Roboto Serif Micro Wide-Super Italic G4.ufo
<glyph name="exclam" format="2">
  <advance width="523"/>
  <unicode hex="0021"/>
  <outline>
    <contour>
      <point x="555" y="766" type="line"/>
      <point x="521" y="558"/>
      <point x="420" y="477"/>
      <point x="383" y="273" type="curve"/>
      <point x="199" y="273" type="line"/>
      <point x="236" y="475"/>
      <point x="177" y="571"/>
      <point x="210" y="766" type="curve"/>
    </contour>
    <component base="period" xOffset="1"/>
  </outline>
</glyph>
<glyph name="numbersign" format="2">
  <advance width="911"/>
  <unicode hex="0023"/>
  <outline>
    <contour>
      <point x="176" y="0" type="line"/>
      <point x="322" y="0" type="line"/>
      <point x="612" y="780" type="line"/>
      <point x="466" y="780" type="line"/>
    </contour>
    <contour>
      <point x="120" y="181" type="line"/>
      <point x="794" y="181" type="line"/>
      <point x="819" y="339" type="line"/>
      <point x="145" y="339" type="line"/>
    </contour>
    <contour>
      <point x="222" y="472" type="line"/>
      <point x="896" y="472" type="line"/>
      <point x="921" y="630" type="line"/>
      <point x="247" y="630" type="line"/>
    </contour>
    <contour>
      <point x="424" y="0" type="line"/>
      <point x="570" y="0" type="line"/>
      <point x="860" y="780" type="line"/>
      <point x="714" y="780" type="line"/>
    </contour>
  </outline>
</glyph>
<glyph name="dollar" format="2">
  <advance width="680"/>
  <unicode hex="0024"/>
  <outline>
    <contour>
      <point x="345" y="14" type="curve" smooth="yes"/>
      <point x="566" y="14"/>
      <point x="695" y="96"/>
      <point x="695" y="272" type="curve" smooth="yes"/>
      <point x="695" y="384"/>
      <point x="618" y="434"/>
      <point x="436" y="469" type="curve" smooth="yes"/>
      <point x="334" y="489"/>
      <point x="311" y="503"/>
      <point x="311" y="539" type="curve" smooth="yes"/>
      <point x="311" y="576"/>
      <point x="349" y="593"/>
      <point x="434" y="593" type="curve"/>
      <point x="520" y="593"/>
      <point x="556" y="583"/>
      <point x="604" y="564" type="curve"/>
      <point x="607" y="574"/>
      <point x="611" y="626"/>
      <point x="569" y="622" type="curve"/>
      <point x="553" y="523" type="line"/>
      <point x="708" y="523" type="line"/>
      <point x="726" y="635" type="line"/>
      <point x="678" y="665"/>
      <point x="579" y="697"/>
      <point x="460" y="697" type="curve" smooth="yes"/>
      <point x="248" y="697"/>
      <point x="120" y="631"/>
      <point x="120" y="476" type="curve" smooth="yes"/>
      <point x="120" y="360"/>
      <point x="191" y="298"/>
      <point x="357" y="262" type="curve" smooth="yes"/>
      <point x="477" y="236"/>
      <point x="498" y="216"/>
      <point x="498" y="181" type="curve" smooth="yes"/>
      <point x="498" y="143"/>
      <point x="462" y="119"/>
      <point x="354" y="119" type="curve" smooth="yes"/>
      <point x="243" y="119"/>
      <point x="173" y="140"/>
      <point x="146" y="170" type="curve"/>
      <point x="139" y="139"/>
      <point x="152" y="91"/>
      <point x="194" y="95" type="curve"/>
      <point x="213" y="216" type="line"/>
      <point x="59" y="216" type="line"/>
      <point x="38" y="82" type="line"/>
      <point x="96" y="58"/>
      <point x="201" y="14"/>
    </contour>
    <contour>
      <point x="247" y="-118" type="line"/>
      <point x="403" y="-118" type="line"/>
      <point x="428" y="37" type="line"/>
      <point x="399" y="47" type="line"/>
      <point x="496" y="656" type="line"/>
      <point x="527" y="666" type="line"/>
      <point x="547" y="787" type="line"/>
      <point x="391" y="787" type="line"/>
      <point x="371" y="666" type="line"/>
      <point x="400" y="656" type="line"/>
      <point x="303" y="47" type="line"/>
      <point x="272" y="37" type="line"/>
    </contour>
  </outline>
</glyph>
<glyph name="ampersand" format="2">
  <advance width="993"/>
  <unicode hex="0026"/>
  <outline>
    <contour>
      <point x="961" y="0" type="line"/>
      <point x="983" y="135" type="line"/>
      <point x="958" y="135" type="line" smooth="yes"/>
      <point x="921" y="135"/>
      <point x="880" y="148"/>
      <point x="840" y="182" type="curve" smooth="yes"/>
      <point x="499" y="474"/>
      <point x="469" y="497"/>
      <point x="469" y="545" type="curve" smooth="yes"/>
      <point x="469" y="575"/>
      <point x="497" y="600"/>
      <point x="556" y="600" type="curve" smooth="yes"/>
      <point x="619" y="600"/>
      <point x="637" y="568"/>
      <point x="637" y="541" type="curve" smooth="yes"/>
      <point x="637" y="490"/>
      <point x="587" y="454"/>
      <point x="446" y="430" type="curve"/>
      <point x="469" y="358" type="line"/>
      <point x="712" y="399"/>
      <point x="845" y="457"/>
      <point x="845" y="568" type="curve" smooth="yes"/>
      <point x="845" y="647"/>
      <point x="770" y="718"/>
      <point x="562" y="718" type="curve" smooth="yes"/>
      <point x="350" y="718"/>
      <point x="259" y="642"/>
      <point x="259" y="529" type="curve" smooth="yes"/>
      <point x="259" y="401"/>
      <point x="323" y="343"/>
      <point x="737" y="0" type="curve"/>
    </contour>
    <contour>
      <point x="492" y="111" type="curve"/>
      <point x="378" y="111"/>
      <point x="305" y="157"/>
      <point x="305" y="232" type="curve" smooth="yes"/>
      <point x="305" y="296"/>
      <point x="346" y="318"/>
      <point x="408" y="341" type="curve"/>
      <point x="388" y="411" type="line"/>
      <point x="200" y="396"/>
      <point x="62" y="323"/>
      <point x="62" y="201" type="curve"/>
      <point x="62" y="46"/>
      <point x="204" y="-10"/>
      <point x="448" y="-10" type="curve"/>
      <point x="724" y="-10"/>
      <point x="857" y="134"/>
      <point x="944" y="261" type="curve" smooth="yes"/>
      <point x="960" y="285"/>
      <point x="977" y="306"/>
      <point x="1020" y="306" type="curve" smooth="yes"/>
      <point x="1033" y="306" type="line"/>
      <point x="1053" y="426" type="line"/>
      <point x="782" y="426" type="line"/>
      <point x="762" y="306" type="line"/>
      <point x="770" y="306" type="line" smooth="yes"/>
      <point x="806" y="306"/>
      <point x="820" y="300"/>
      <point x="823" y="289" type="curve"/>
      <point x="794" y="193"/>
      <point x="667" y="111"/>
    </contour>
  </outline>
</glyph>
<glyph name="period" format="2">
  <advance width="516"/>
  <unicode hex="002E"/>
  <outline>
    <contour>
      <point x="421" y="102" type="curve" smooth="yes"/>
      <point x="421" y="177"/>
      <point x="367" y="231"/>
      <point x="275" y="231" type="curve" smooth="yes"/>
      <point x="182" y="231"/>
      <point x="127" y="177"/>
      <point x="127" y="102" type="curve" smooth="yes"/>
      <point x="127" y="22"/>
      <point x="182" y="-26"/>
      <point x="275" y="-26" type="curve" smooth="yes"/>
      <point x="367" y="-26"/>
      <point x="421" y="23"/>
    </contour>
  </outline>
</glyph>
<glyph name="slash" format="2">
  <advance width="634"/>
  <unicode hex="002F"/>
  <outline>
    <contour>
      <point x="585" y="780" type="line"/>
      <point x="-20" y="-158" type="line"/>
      <point x="149" y="-158" type="line"/>
      <point x="753" y="780" type="line"/>
    </contour>
  </outline>
</glyph>
<glyph name="zero" format="2">
  <advance width="680"/>
  <unicode hex="0030"/>
  <outline>
    <contour>
      <point x="361" y="-11" type="curve" smooth="yes"/>
      <point x="624" y="-11"/>
      <point x="710" y="214"/>
      <point x="710" y="406" type="curve" smooth="yes"/>
      <point x="710" y="596"/>
      <point x="610" y="693"/>
      <point x="432" y="693" type="curve" smooth="yes"/>
      <point x="169" y="693"/>
      <point x="78" y="468"/>
      <point x="78" y="276" type="curve" smooth="yes"/>
      <point x="78" y="87"/>
      <point x="184" y="-11"/>
    </contour>
    <contour>
      <point x="363" y="132" type="curve" smooth="yes"/>
      <point x="324" y="132"/>
      <point x="302" y="157"/>
      <point x="302" y="209" type="curve" smooth="yes"/>
      <point x="302" y="251"/>
      <point x="306" y="298"/>
      <point x="318" y="365" type="curve" smooth="yes"/>
      <point x="346" y="523"/>
      <point x="381" y="550"/>
      <point x="429" y="550" type="curve" smooth="yes"/>
      <point x="468" y="550"/>
      <point x="490" y="525"/>
      <point x="490" y="473" type="curve" smooth="yes"/>
      <point x="490" y="431"/>
      <point x="486" y="384"/>
      <point x="474" y="317" type="curve" smooth="yes"/>
      <point x="446" y="159"/>
      <point x="411" y="132"/>
    </contour>
  </outline>
</glyph>
<glyph name="two" format="2">
  <advance width="680"/>
  <unicode hex="0032"/>
  <outline>
    <contour>
      <point x="47" y="0" type="line"/>
      <point x="84" y="224" type="line"/>
      <point x="403" y="369"/>
      <point x="440" y="430"/>
      <point x="440" y="480" type="curve" smooth="yes"/>
      <point x="440" y="518"/>
      <point x="423" y="543"/>
      <point x="366" y="543" type="curve" smooth="yes"/>
      <point x="325" y="543"/>
      <point x="291" y="537"/>
      <point x="259" y="525" type="curve"/>
      <point x="239" y="540"/>
      <point x="285" y="630"/>
      <point x="325" y="611" type="curve"/>
      <point x="299" y="449" type="line"/>
      <point x="122" y="449" type="line"/>
      <point x="153" y="647" type="line"/>
      <point x="202" y="666"/>
      <point x="282" y="693"/>
      <point x="402" y="693" type="curve" smooth="yes"/>
      <point x="582" y="693"/>
      <point x="694" y="632"/>
      <point x="693" y="516" type="curve" smooth="yes"/>
      <point x="692" y="365"/>
      <point x="551" y="301"/>
      <point x="182" y="155" type="curve"/>
      <point x="162" y="177" type="line"/>
      <point x="395" y="177" type="line" smooth="yes"/>
      <point x="490" y="177"/>
      <point x="527" y="181"/>
      <point x="545" y="216" type="curve" smooth="yes"/>
      <point x="563" y="251" type="line"/>
      <point x="679" y="251" type="line"/>
      <point x="637" y="0" type="line"/>
    </contour>
  </outline>
</glyph>
<glyph name="four" format="2">
  <advance width="680"/>
  <unicode hex="0034"/>
  <outline>
    <contour>
      <point x="47" y="109" type="line"/>
      <point x="659" y="109" type="line"/>
      <point x="686" y="277" type="line"/>
      <point x="157" y="277" type="line"/>
      <point x="192" y="250" type="line"/>
      <point x="469" y="621" type="line"/>
      <point x="480" y="667" type="line"/>
      <point x="356" y="667" type="line"/>
      <point x="78" y="303" type="line"/>
    </contour>
    <contour>
      <point x="575" y="-50" type="line"/>
      <point x="689" y="667" type="line"/>
      <point x="430" y="667" type="line"/>
      <point x="432" y="641" type="line"/>
      <point x="322" y="-50" type="line"/>
    </contour>
  </outline>
</glyph>
<glyph name="seven" format="2">
  <advance width="680"/>
  <unicode hex="0037"/>
  <outline>
    <contour>
      <point x="404" y="499" type="line" smooth="yes"/>
      <point x="328" y="499"/>
      <point x="306" y="496"/>
      <point x="292" y="462" type="curve" smooth="yes"/>
      <point x="257" y="377" type="line"/>
      <point x="113" y="377" type="line"/>
      <point x="161" y="679" type="line"/>
      <point x="751" y="679" type="line"/>
      <point x="723" y="507" type="line"/>
      <point x="565" y="390"/>
      <point x="478" y="282"/>
      <point x="421" y="-42" type="curve"/>
      <point x="161" y="-42" type="line"/>
      <point x="224" y="242"/>
      <point x="443" y="435"/>
      <point x="577" y="514" type="curve"/>
      <point x="581" y="499" type="line"/>
    </contour>
  </outline>
</glyph>
<glyph name="eight" format="2">
  <advance width="680"/>
  <unicode hex="0038"/>
  <outline>
    <contour>
      <point x="364" y="118" type="curve" smooth="yes"/>
      <point x="311" y="118"/>
      <point x="296" y="158"/>
      <point x="296" y="192" type="curve"/>
      <point x="296" y="232"/>
      <point x="302" y="256"/>
      <point x="318" y="280" type="curve"/>
      <point x="335" y="305"/>
      <point x="360" y="316"/>
      <point x="387" y="316" type="curve"/>
      <point x="436" y="316"/>
      <point x="452" y="284"/>
      <point x="452" y="242" type="curve"/>
      <point x="452" y="210"/>
      <point x="447" y="179"/>
      <point x="434" y="157" type="curve" smooth="yes"/>
      <point x="418" y="129"/>
      <point x="392" y="118"/>
    </contour>
    <contour>
      <point x="416" y="439" type="curve"/>
      <point x="367" y="439"/>
      <point x="351" y="474"/>
      <point x="351" y="505" type="curve"/>
      <point x="351" y="529"/>
      <point x="359" y="552"/>
      <point x="374" y="568" type="curve" smooth="yes"/>
      <point x="388" y="583"/>
      <point x="409" y="591"/>
      <point x="433" y="591" type="curve" smooth="yes"/>
      <point x="478" y="591"/>
      <point x="498" y="565"/>
      <point x="498" y="529" type="curve"/>
      <point x="498" y="502"/>
      <point x="489" y="479"/>
      <point x="476" y="464" type="curve" smooth="yes"/>
      <point x="460" y="446"/>
      <point x="440" y="439"/>
    </contour>
    <contour>
      <point x="352" y="-10" type="curve" smooth="yes"/>
      <point x="559" y="-10"/>
      <point x="685" y="62"/>
      <point x="685" y="210" type="curve" smooth="yes"/>
      <point x="685" y="302"/>
      <point x="632" y="367"/>
      <point x="461" y="379" type="curve"/>
      <point x="529" y="354" type="line"/>
      <point x="538" y="411" type="line"/>
      <point x="462" y="385" type="line"/>
      <point x="621" y="397"/>
      <point x="716" y="443"/>
      <point x="716" y="559" type="curve" smooth="yes"/>
      <point x="716" y="661"/>
      <point x="634" y="726"/>
      <point x="445" y="726" type="curve" smooth="yes"/>
      <point x="266" y="726"/>
      <point x="140" y="657"/>
      <point x="140" y="531" type="curve" smooth="yes"/>
      <point x="140" y="441"/>
      <point x="195" y="397"/>
      <point x="340" y="385" type="curve"/>
      <point x="272" y="411" type="line"/>
      <point x="263" y="354" type="line"/>
      <point x="339" y="379" type="line"/>
      <point x="164" y="367"/>
      <point x="57" y="304"/>
      <point x="57" y="180" type="curve" smooth="yes"/>
      <point x="57" y="61"/>
      <point x="149" y="-10"/>
    </contour>
  </outline>
</glyph>
<glyph name="A" format="2">
  <advance width="960"/>
  <unicode hex="0041"/>
  <outline>
    <contour>
      <point x="281" y="316" type="line"/>
      <point x="261" y="193" type="line"/>
      <point x="595" y="193" type="line"/>
      <point x="598" y="316" type="line"/>
    </contour>
    <contour>
      <point x="490" y="601" type="line"/>
      <point x="577" y="152" type="line"/>
      <point x="576" y="148"/>
      <point x="573" y="145"/>
      <point x="526" y="145" type="curve" smooth="yes"/>
      <point x="506" y="145" type="line"/>
      <point x="482" y="0" type="line"/>
      <point x="923" y="0" type="line"/>
      <point x="947" y="145" type="line"/>
      <point x="930" y="145" type="line" smooth="yes"/>
      <point x="895" y="145"/>
      <point x="863" y="159"/>
      <point x="853" y="205" type="curve" smooth="yes"/>
      <point x="744" y="722" type="line"/>
      <point x="423" y="722" type="line"/>
      <point x="152" y="205" type="line" smooth="yes"/>
      <point x="129" y="160"/>
      <point x="107" y="145"/>
      <point x="74" y="145" type="curve" smooth="yes"/>
      <point x="62" y="145" type="line"/>
      <point x="38" y="0" type="line"/>
      <point x="327" y="0" type="line"/>
      <point x="351" y="145" type="line"/>
      <point x="342" y="145" type="line" smooth="yes"/>
      <point x="302" y="145"/>
      <point x="294" y="148"/>
      <point x="294" y="154" type="curve"/>
      <point x="523" y="617" type="line"/>
    </contour>
  </outline>
</glyph>
<glyph name="I" format="2">
  <advance width="544"/>
  <unicode hex="0049"/>
  <outline>
    <contour>
      <point x="160" y="175" type="line" smooth="yes"/>
      <point x="157" y="153"/>
      <point x="136" y="145"/>
      <point x="106" y="145" type="curve" smooth="yes"/>
      <point x="70" y="145" type="line"/>
      <point x="46" y="0" type="line"/>
      <point x="498" y="0" type="line"/>
      <point x="522" y="145" type="line"/>
      <point x="485" y="145" type="line" smooth="yes"/>
      <point x="456" y="145"/>
      <point x="436" y="156"/>
      <point x="439" y="175" type="curve" smooth="yes"/>
      <point x="495" y="535" type="line" smooth="yes"/>
      <point x="498" y="557"/>
      <point x="520" y="565"/>
      <point x="550" y="565" type="curve" smooth="yes"/>
      <point x="587" y="565" type="line"/>
      <point x="610" y="710" type="line"/>
      <point x="158" y="710" type="line"/>
      <point x="135" y="565" type="line"/>
      <point x="171" y="565" type="line" smooth="yes"/>
      <point x="201" y="565"/>
      <point x="219" y="554"/>
      <point x="216" y="535" type="curve" smooth="yes"/>
    </contour>
  </outline>
</glyph>
<glyph name="K" format="2">
  <advance width="1060"/>
  <unicode hex="004B"/>
  <outline>
    <contour>
      <point x="46" y="0" type="line"/>
      <point x="467" y="0" type="line"/>
      <point x="490" y="145" type="line"/>
      <point x="474" y="145" type="line" smooth="yes"/>
      <point x="445" y="145"/>
      <point x="424" y="148"/>
      <point x="426" y="158" type="curve" smooth="yes"/>
      <point x="488" y="552" type="line" smooth="yes"/>
      <point x="490" y="562"/>
      <point x="510" y="565"/>
      <point x="540" y="565" type="curve" smooth="yes"/>
      <point x="557" y="565" type="line"/>
      <point x="580" y="710" type="line"/>
      <point x="159" y="710" type="line"/>
      <point x="136" y="565" type="line"/>
      <point x="161" y="565" type="line" smooth="yes"/>
      <point x="191" y="565"/>
      <point x="210" y="553"/>
      <point x="207" y="535" type="curve" smooth="yes"/>
      <point x="150" y="175" type="line" smooth="yes"/>
      <point x="147" y="155"/>
      <point x="125" y="145"/>
      <point x="95" y="145" type="curve" smooth="yes"/>
      <point x="69" y="145" type="line"/>
    </contour>
    <contour>
      <point x="593" y="0" type="line"/>
      <point x="1030" y="0" type="line"/>
      <point x="1053" y="145" type="line"/>
      <point x="1040" y="145" type="line" smooth="yes"/>
      <point x="1011" y="145"/>
      <point x="997" y="153"/>
      <point x="976" y="176" type="curve" smooth="yes"/>
      <point x="703" y="482" type="line"/>
      <point x="719" y="368" type="line"/>
      <point x="993" y="549" type="line" smooth="yes"/>
      <point x="1012" y="561"/>
      <point x="1029" y="565"/>
      <point x="1057" y="565" type="curve" smooth="yes"/>
      <point x="1065" y="565" type="line"/>
      <point x="1088" y="710" type="line"/>
      <point x="735" y="710" type="line"/>
      <point x="712" y="565" type="line"/>
      <point x="732" y="565" type="line" smooth="yes"/>
      <point x="771" y="565"/>
      <point x="774" y="562"/>
      <point x="774" y="555" type="curve"/>
      <point x="501" y="371" type="line"/>
      <point x="498" y="352" type="line"/>
      <point x="673" y="154" type="line"/>
      <point x="671" y="147"/>
      <point x="662" y="145"/>
      <point x="640" y="145" type="curve" smooth="yes"/>
      <point x="616" y="145" type="line"/>
    </contour>
  </outline>
</glyph>
<glyph name="L" format="2">
  <advance width="871"/>
  <unicode hex="004C"/>
  <outline>
    <contour>
      <point x="612" y="710" type="line"/>
      <point x="159" y="710" type="line"/>
      <point x="136" y="565" type="line"/>
      <point x="161" y="565" type="line" smooth="yes"/>
      <point x="191" y="565"/>
      <point x="210" y="553"/>
      <point x="207" y="535" type="curve" smooth="yes"/>
      <point x="151" y="175" type="line" smooth="yes"/>
      <point x="148" y="155"/>
      <point x="126" y="145"/>
      <point x="96" y="145" type="curve" smooth="yes"/>
      <point x="70" y="145" type="line"/>
      <point x="46" y="0" type="line"/>
      <point x="826" y="0" type="line"/>
      <point x="871" y="282" type="line"/>
      <point x="706" y="282" type="line"/>
      <point x="666" y="183" type="line" smooth="yes"/>
      <point x="652" y="148"/>
      <point x="627" y="138"/>
      <point x="542" y="138" type="curve" smooth="yes"/>
      <point x="424" y="138" type="line"/>
      <point x="488" y="552" type="line" smooth="yes"/>
      <point x="490" y="562"/>
      <point x="510" y="565"/>
      <point x="540" y="565" type="curve" smooth="yes"/>
      <point x="589" y="565" type="line"/>
    </contour>
  </outline>
</glyph>
<glyph name="O" format="2">
  <advance width="1009"/>
  <unicode hex="004F"/>
  <outline>
    <contour>
      <point x="529" y="-25" type="curve" smooth="yes"/>
      <point x="851" y="-25"/>
      <point x="1015" y="158"/>
      <point x="1015" y="393" type="curve" smooth="yes"/>
      <point x="1015" y="604"/>
      <point x="864" y="735"/>
      <point x="593" y="735" type="curve" smooth="yes"/>
      <point x="269" y="735"/>
      <point x="106" y="552"/>
      <point x="106" y="317" type="curve" smooth="yes"/>
      <point x="106" y="106"/>
      <point x="256" y="-25"/>
    </contour>
    <contour>
      <point x="589" y="568" type="curve" smooth="yes"/>
      <point x="668" y="568"/>
      <point x="718" y="526"/>
      <point x="718" y="401" type="curve" smooth="yes"/>
      <point x="718" y="358"/>
      <point x="711" y="315"/>
      <point x="696" y="276" type="curve" smooth="yes"/>
      <point x="667" y="200"/>
      <point x="611" y="143"/>
      <point x="532" y="143" type="curve" smooth="yes"/>
      <point x="453" y="143"/>
      <point x="403" y="185"/>
      <point x="403" y="310" type="curve" smooth="yes"/>
      <point x="403" y="353"/>
      <point x="410" y="396"/>
      <point x="425" y="435" type="curve" smooth="yes"/>
      <point x="454" y="511"/>
      <point x="510" y="568"/>
    </contour>
  </outline>
</glyph>
<glyph name="P" format="2">
  <advance width="929"/>
  <unicode hex="0050"/>
  <outline>
    <contour>
      <point x="508" y="145" type="line"/>
      <point x="474" y="145" type="line" smooth="yes"/>
      <point x="445" y="145"/>
      <point x="425" y="148"/>
      <point x="426" y="157" type="curve" smooth="yes"/>
      <point x="442" y="266" type="line"/>
      <point x="628" y="266" type="line" smooth="yes"/>
      <point x="844" y="266"/>
      <point x="976" y="345"/>
      <point x="976" y="514" type="curve" smooth="yes"/>
      <point x="976" y="638"/>
      <point x="873" y="709"/>
      <point x="632" y="710" type="curve" smooth="yes"/>
      <point x="159" y="710" type="line"/>
      <point x="136" y="565" type="line"/>
      <point x="161" y="565" type="line" smooth="yes"/>
      <point x="191" y="565"/>
      <point x="210" y="553"/>
      <point x="207" y="535" type="curve" smooth="yes"/>
      <point x="151" y="175" type="line" smooth="yes"/>
      <point x="148" y="155"/>
      <point x="125" y="145"/>
      <point x="95" y="145" type="curve" smooth="yes"/>
      <point x="70" y="145" type="line"/>
      <point x="46" y="0" type="line"/>
      <point x="484" y="0" type="line"/>
    </contour>
    <contour>
      <point x="704" y="496" type="curve" smooth="yes"/>
      <point x="704" y="439"/>
      <point x="673" y="401"/>
      <point x="574" y="401" type="curve" smooth="yes"/>
      <point x="464" y="401" type="line"/>
      <point x="490" y="575" type="line"/>
      <point x="594" y="575" type="line" smooth="yes"/>
      <point x="671" y="575"/>
      <point x="704" y="545"/>
    </contour>
  </outline>
</glyph>
<glyph name="Q" format="2">
  <advance width="1009"/>
  <unicode hex="0051"/>
  <outline>
    <contour>
      <point x="1015" y="393" type="curve" smooth="yes"/>
      <point x="1015" y="604"/>
      <point x="864" y="735"/>
      <point x="593" y="735" type="curve" smooth="yes"/>
      <point x="269" y="735"/>
      <point x="106" y="552"/>
      <point x="106" y="317" type="curve" smooth="yes"/>
      <point x="106" y="106"/>
      <point x="256" y="-25"/>
      <point x="529" y="-25" type="curve" smooth="yes"/>
      <point x="851" y="-25"/>
      <point x="1015" y="158"/>
    </contour>
    <contour>
      <point x="532" y="143" type="curve" smooth="yes"/>
      <point x="453" y="143"/>
      <point x="403" y="185"/>
      <point x="403" y="310" type="curve" smooth="yes"/>
      <point x="403" y="353"/>
      <point x="410" y="396"/>
      <point x="425" y="435" type="curve" smooth="yes"/>
      <point x="454" y="511"/>
      <point x="510" y="568"/>
      <point x="589" y="568" type="curve" smooth="yes"/>
      <point x="668" y="568"/>
      <point x="718" y="526"/>
      <point x="718" y="401" type="curve" smooth="yes"/>
      <point x="718" y="358"/>
      <point x="711" y="315"/>
      <point x="696" y="276" type="curve" smooth="yes"/>
      <point x="667" y="200"/>
      <point x="611" y="143"/>
    </contour>
    <contour>
      <point x="752" y="-290" type="curve" smooth="yes"/>
      <point x="835" y="-290"/>
      <point x="893" y="-280"/>
      <point x="922" y="-270" type="curve"/>
      <point x="951" y="-90" type="line"/>
      <point x="903" y="-103"/>
      <point x="845" y="-110"/>
      <point x="769" y="-110" type="curve" smooth="yes"/>
      <point x="632" y="-110"/>
      <point x="603" y="-87"/>
      <point x="603" y="-35" type="curve" smooth="yes"/>
      <point x="603" y="-25"/>
      <point x="605" y="-6"/>
      <point x="609" y="7" type="curve"/>
      <point x="437" y="7" type="line"/>
      <point x="429" y="-29"/>
      <point x="424" y="-62"/>
      <point x="424" y="-83" type="curve"/>
      <point x="424" y="-217"/>
      <point x="559" y="-290"/>
    </contour>
  </outline>
</glyph>
<glyph name="R" format="2">
  <advance width="994"/>
  <unicode hex="0052"/>
  <outline>
    <contour>
      <point x="536" y="319" type="line"/>
      <point x="674" y="0" type="line"/>
      <point x="971" y="0" type="line"/>
      <point x="994" y="145" type="line"/>
      <point x="981" y="145" type="line" smooth="yes"/>
      <point x="936" y="145"/>
      <point x="906" y="153"/>
      <point x="882" y="202" type="curve" smooth="yes"/>
      <point x="784" y="393" type="line"/>
    </contour>
    <contour>
      <point x="507" y="145" type="line"/>
      <point x="473" y="145" type="line" smooth="yes"/>
      <point x="444" y="145"/>
      <point x="424" y="148"/>
      <point x="425" y="157" type="curve" smooth="yes"/>
      <point x="443" y="272" type="line"/>
      <point x="652" y="272" type="line"/>
      <point x="664" y="283"/>
      <point x="683" y="299"/>
      <point x="696" y="311" type="curve"/>
      <point x="898" y="322"/>
      <point x="991" y="398"/>
      <point x="991" y="531" type="curve" smooth="yes"/>
      <point x="991" y="641"/>
      <point x="914" y="710"/>
      <point x="701" y="710" type="curve" smooth="yes"/>
      <point x="158" y="710" type="line"/>
      <point x="135" y="565" type="line"/>
      <point x="161" y="565" type="line" smooth="yes"/>
      <point x="191" y="565"/>
      <point x="210" y="553"/>
      <point x="207" y="535" type="curve" smooth="yes"/>
      <point x="150" y="175" type="line" smooth="yes"/>
      <point x="147" y="155"/>
      <point x="124" y="145"/>
      <point x="94" y="145" type="curve" smooth="yes"/>
      <point x="69" y="145" type="line"/>
      <point x="46" y="0" type="line"/>
      <point x="484" y="0" type="line"/>
    </contour>
    <contour>
      <point x="590" y="577" type="line" smooth="yes"/>
      <point x="664" y="577"/>
      <point x="710" y="557"/>
      <point x="710" y="498" type="curve" smooth="yes"/>
      <point x="710" y="422"/>
      <point x="656" y="404"/>
      <point x="561" y="404" type="curve" smooth="yes"/>
      <point x="464" y="404" type="line"/>
      <point x="491" y="577" type="line"/>
    </contour>
  </outline>
</glyph>
<glyph name="T" format="2">
  <advance width="962"/>
  <unicode hex="0054"/>
  <outline>
    <contour>
      <point x="369" y="175" type="line" smooth="yes"/>
      <point x="366" y="155"/>
      <point x="345" y="145"/>
      <point x="315" y="145" type="curve" smooth="yes"/>
      <point x="274" y="145" type="line"/>
      <point x="250" y="0" type="line"/>
      <point x="711" y="0" type="line"/>
      <point x="735" y="145" type="line"/>
      <point x="694" y="145" type="line" smooth="yes"/>
      <point x="664" y="145"/>
      <point x="645" y="156"/>
      <point x="648" y="175" type="curve" smooth="yes"/>
      <point x="709" y="567" type="line"/>
      <point x="731" y="567" type="line" smooth="yes"/>
      <point x="804" y="567"/>
      <point x="822" y="550"/>
      <point x="822" y="514" type="curve" smooth="yes"/>
      <point x="821" y="398" type="line"/>
      <point x="980" y="398" type="line"/>
      <point x="1029" y="710" type="line"/>
      <point x="157" y="710" type="line"/>
      <point x="108" y="398" type="line"/>
      <point x="265" y="398" type="line"/>
      <point x="299" y="514" type="line" smooth="yes"/>
      <point x="310" y="551"/>
      <point x="334" y="567"/>
      <point x="408" y="567" type="curve" smooth="yes"/>
      <point x="430" y="567" type="line"/>
    </contour>
  </outline>
</glyph>
<glyph name="V" format="2">
  <advance width="926"/>
  <unicode hex="0056"/>
  <outline>
    <contour>
      <point x="575" y="72" type="line"/>
      <point x="468" y="558" type="line"/>
      <point x="468" y="562"/>
      <point x="474" y="565"/>
      <point x="519" y="565" type="curve" smooth="yes"/>
      <point x="539" y="565" type="line"/>
      <point x="563" y="710" type="line"/>
      <point x="132" y="710" type="line"/>
      <point x="108" y="565" type="line"/>
      <point x="125" y="565" type="line" smooth="yes"/>
      <point x="160" y="565"/>
      <point x="192" y="551"/>
      <point x="202" y="505" type="curve" smooth="yes"/>
      <point x="312" y="-12" type="line"/>
      <point x="626" y="-12" type="line"/>
      <point x="896" y="505" type="line" smooth="yes"/>
      <point x="919" y="550"/>
      <point x="958" y="565"/>
      <point x="981" y="565" type="curve" smooth="yes"/>
      <point x="993" y="565" type="line"/>
      <point x="1017" y="710" type="line"/>
      <point x="712" y="710" type="line"/>
      <point x="688" y="565" type="line"/>
      <point x="703" y="565" type="line" smooth="yes"/>
      <point x="754" y="565"/>
      <point x="759" y="561"/>
      <point x="759" y="556" type="curve"/>
      <point x="522" y="75" type="line"/>
    </contour>
  </outline>
</glyph>
<glyph name="Y" format="2">
  <advance width="908"/>
  <unicode hex="0059"/>
  <outline>
    <contour>
      <point x="214" y="0" type="line"/>
      <point x="675" y="0" type="line"/>
      <point x="699" y="145" type="line"/>
      <point x="675" y="145" type="line" smooth="yes"/>
      <point x="640" y="145"/>
      <point x="610" y="152"/>
      <point x="615" y="181" type="curve" smooth="yes"/>
      <point x="630" y="279" type="line"/>
      <point x="586" y="220" type="line"/>
      <point x="878" y="509" type="line" smooth="yes"/>
      <point x="913" y="544"/>
      <point x="934" y="565"/>
      <point x="958" y="565" type="curve" smooth="yes"/>
      <point x="967" y="565" type="line"/>
      <point x="990" y="710" type="line"/>
      <point x="699" y="710" type="line"/>
      <point x="676" y="565" type="line"/>
      <point x="698" y="565" type="line" smooth="yes"/>
      <point x="741" y="565"/>
      <point x="745" y="561"/>
      <point x="747" y="556" type="curve"/>
      <point x="542" y="343" type="line"/>
      <point x="580" y="357" type="line"/>
      <point x="457" y="554" type="line"/>
      <point x="458" y="561"/>
      <point x="476" y="565"/>
      <point x="529" y="565" type="curve" smooth="yes"/>
      <point x="542" y="565" type="line"/>
      <point x="565" y="710" type="line"/>
      <point x="142" y="710" type="line"/>
      <point x="119" y="565" type="line"/>
      <point x="124" y="565" type="line" smooth="yes"/>
      <point x="158" y="565"/>
      <point x="170" y="540"/>
      <point x="196" y="498" type="curve" smooth="yes"/>
      <point x="366" y="227" type="line"/>
      <point x="355" y="300" type="line"/>
      <point x="336" y="181" type="line" smooth="yes"/>
      <point x="331" y="152"/>
      <point x="297" y="145"/>
      <point x="261" y="145" type="curve" smooth="yes"/>
      <point x="238" y="145" type="line"/>
    </contour>
  </outline>
</glyph>
<glyph name="asciicircum" format="2">
  <advance width="680"/>
  <unicode hex="005E"/>
  <outline>
    <contour>
      <point x="296" y="302" type="line"/>
      <point x="482" y="622" type="line"/>
      <point x="484" y="716" type="line"/>
      <point x="336" y="716" type="line"/>
      <point x="64" y="302" type="line"/>
    </contour>
    <contour>
      <point x="488" y="302" type="line"/>
      <point x="712" y="302" type="line"/>
      <point x="587" y="716" type="line"/>
      <point x="428" y="716" type="line"/>
      <point x="414" y="622" type="line"/>
    </contour>
  </outline>
</glyph>
<glyph name="j" format="2">
  <advance width="476"/>
  <unicode hex="006A"/>
  <outline>
    <contour>
      <point x="334" y="605" type="curve" smooth="yes"/>
      <point x="424" y="605"/>
      <point x="488" y="638"/>
      <point x="488" y="721" type="curve"/>
      <point x="488" y="790"/>
      <point x="441" y="829"/>
      <point x="346" y="829" type="curve" smooth="yes"/>
      <point x="256" y="829"/>
      <point x="192" y="795"/>
      <point x="192" y="713" type="curve"/>
      <point x="192" y="640"/>
      <point x="239" y="605"/>
    </contour>
    <contour>
      <point x="-137" y="-222" type="line"/>
      <point x="-115" y="-230"/>
      <point x="-57" y="-250"/>
      <point x="58" y="-250" type="curve" smooth="yes"/>
      <point x="229" y="-250"/>
      <point x="347" y="-199"/>
      <point x="373" y="-39" type="curve" smooth="yes"/>
      <point x="472" y="572" type="line"/>
      <point x="132" y="572" type="line"/>
      <point x="109" y="432" type="line"/>
      <point x="131" y="429" type="line" smooth="yes"/>
      <point x="169" y="424"/>
      <point x="184" y="419"/>
      <point x="182" y="406" type="curve" smooth="yes"/>
      <point x="116" y="-8" type="line" smooth="yes"/>
      <point x="106" y="-68"/>
      <point x="66" y="-84"/>
      <point x="12" y="-84" type="curve" smooth="yes"/>
      <point x="-39" y="-84"/>
      <point x="-70" y="-74"/>
      <point x="-98" y="-63" type="curve"/>
    </contour>
  </outline>
</glyph>
<glyph name="n" format="2">
  <advance width="912"/>
  <unicode hex="006E"/>
  <outline>
    <contour>
      <point x="108" y="0" type="line"/>
      <point x="174" y="406" type="line" smooth="yes"/>
      <point x="176" y="419"/>
      <point x="165" y="424"/>
      <point x="127" y="429" type="curve" smooth="yes"/>
      <point x="105" y="432" type="line"/>
      <point x="128" y="572" type="line"/>
      <point x="427" y="572" type="line"/>
      <point x="432" y="416" type="line"/>
      <point x="437" y="404" type="line"/>
      <point x="371" y="0" type="line"/>
    </contour>
    <contour>
      <point x="853" y="268" type="line" smooth="yes"/>
      <point x="842" y="199"/>
      <point x="837" y="170"/>
      <point x="837" y="159" type="curve" smooth="yes"/>
      <point x="837" y="138"/>
      <point x="849" y="130"/>
      <point x="873" y="130" type="curve" smooth="yes"/>
      <point x="889" y="130"/>
      <point x="881" y="130"/>
      <point x="904" y="130" type="curve"/>
      <point x="883" y="0" type="line"/>
      <point x="813" y="0"/>
      <point x="780" y="0"/>
      <point x="717" y="0" type="curve" smooth="yes"/>
      <point x="623" y="0"/>
      <point x="572" y="27"/>
      <point x="572" y="108" type="curve" smooth="yes"/>
      <point x="572" y="138"/>
      <point x="579" y="176"/>
      <point x="591" y="247" type="curve" smooth="yes"/>
      <point x="602" y="312" type="line" smooth="yes"/>
      <point x="604" y="326"/>
      <point x="607" y="341"/>
      <point x="607" y="354" type="curve" smooth="yes"/>
      <point x="607" y="383"/>
      <point x="583" y="399"/>
      <point x="549" y="399" type="curve" smooth="yes"/>
      <point x="494" y="399"/>
      <point x="446" y="374"/>
      <point x="389" y="281" type="curve"/>
      <point x="391" y="396" type="line"/>
      <point x="481" y="525"/>
      <point x="569" y="585"/>
      <point x="699" y="585" type="curve" smooth="yes"/>
      <point x="818" y="585"/>
      <point x="877" y="524"/>
      <point x="877" y="446" type="curve" smooth="yes"/>
      <point x="877" y="430"/>
      <point x="875" y="407"/>
      <point x="872" y="387" type="curve" smooth="yes"/>
    </contour>
  </outline>
</glyph>
<glyph name="p" format="2">
  <advance width="885"/>
  <unicode hex="0070"/>
  <outline>
    <contour>
      <point x="11" y="-223" type="line"/>
      <point x="429" y="-223" type="line"/>
      <point x="450" y="-93" type="line"/>
      <point x="442" y="-93" type="line" smooth="yes"/>
      <point x="383" y="-93"/>
      <point x="360" y="-92"/>
      <point x="360" y="-85" type="curve"/>
      <point x="440" y="404" type="line"/>
      <point x="435" y="416" type="line"/>
      <point x="430" y="572" type="line"/>
      <point x="131" y="572" type="line"/>
      <point x="109" y="432" type="line"/>
      <point x="131" y="429" type="line" smooth="yes"/>
      <point x="169" y="424"/>
      <point x="180" y="419"/>
      <point x="178" y="406" type="curve" smooth="yes"/>
      <point x="105" y="-34" type="line" smooth="yes"/>
      <point x="97" y="-84"/>
      <point x="75" y="-93"/>
      <point x="36" y="-93" type="curve" smooth="yes"/>
      <point x="32" y="-93" type="line"/>
    </contour>
    <contour>
      <point x="365" y="203" type="line"/>
      <point x="389" y="64"/>
      <point x="449" y="-12"/>
      <point x="597" y="-12" type="curve" smooth="yes"/>
      <point x="786" y="-12"/>
      <point x="898" y="127"/>
      <point x="898" y="326" type="curve" smooth="yes"/>
      <point x="898" y="507"/>
      <point x="783" y="583"/>
      <point x="659" y="583" type="curve" smooth="yes"/>
      <point x="537" y="583"/>
      <point x="441" y="518"/>
      <point x="392" y="373" type="curve"/>
      <point x="392" y="310" type="line"/>
      <point x="445" y="384"/>
      <point x="485" y="404"/>
      <point x="538" y="404" type="curve" smooth="yes"/>
      <point x="599" y="404"/>
      <point x="642" y="369"/>
      <point x="642" y="294" type="curve" smooth="yes"/>
      <point x="642" y="205"/>
      <point x="599" y="153"/>
      <point x="510" y="153" type="curve" smooth="yes"/>
      <point x="436" y="153"/>
      <point x="409" y="185"/>
      <point x="380" y="237" type="curve"/>
    </contour>
  </outline>
</glyph>
<glyph name="q" format="2">
  <advance width="873"/>
  <unicode hex="0071"/>
  <outline>
    <contour>
      <point x="408" y="-223" type="line"/>
      <point x="826" y="-223" type="line"/>
      <point x="848" y="-84" type="line"/>
      <point x="840" y="-84" type="line" smooth="yes"/>
      <point x="781" y="-84"/>
      <point x="758" y="-75"/>
      <point x="766" y="-25" type="curve" smooth="yes"/>
      <point x="864" y="584" type="line"/>
      <point x="710" y="584" type="line"/>
      <point x="595" y="415" type="line"/>
      <point x="575" y="420" type="line"/>
      <point x="496" y="-76" type="line"/>
      <point x="495" y="-84"/>
      <point x="473" y="-84"/>
      <point x="434" y="-84" type="curve" smooth="yes"/>
      <point x="430" y="-84" type="line"/>
    </contour>
    <contour>
      <point x="631" y="367" type="line"/>
      <point x="610" y="506"/>
      <point x="521" y="583"/>
      <point x="387" y="583" type="curve" smooth="yes"/>
      <point x="184" y="583"/>
      <point x="79" y="423"/>
      <point x="79" y="255" type="curve" smooth="yes"/>
      <point x="79" y="74"/>
      <point x="194" y="-12"/>
      <point x="328" y="-12" type="curve"/>
      <point x="440" y="-12"/>
      <point x="525" y="51"/>
      <point x="586" y="200" type="curve"/>
      <point x="577" y="242" type="line"/>
      <point x="531" y="183"/>
      <point x="496" y="158"/>
      <point x="439" y="158" type="curve" smooth="yes"/>
      <point x="372" y="158"/>
      <point x="335" y="196"/>
      <point x="335" y="270" type="curve" smooth="yes"/>
      <point x="335" y="356"/>
      <point x="392" y="411"/>
      <point x="462" y="411" type="curve" smooth="yes"/>
      <point x="538" y="411"/>
      <point x="562" y="374"/>
      <point x="591" y="337" type="curve"/>
    </contour>
  </outline>
</glyph>
<glyph name="r" format="2">
  <advance width="685"/>
  <unicode hex="0072"/>
  <outline>
    <contour>
      <point x="111" y="0" type="line"/>
      <point x="177" y="406" type="line" smooth="yes"/>
      <point x="179" y="419"/>
      <point x="168" y="424"/>
      <point x="130" y="429" type="curve" smooth="yes"/>
      <point x="108" y="432" type="line"/>
      <point x="131" y="572" type="line"/>
      <point x="430" y="572" type="line"/>
      <point x="435" y="416" type="line"/>
      <point x="440" y="404" type="line"/>
      <point x="374" y="0" type="line"/>
    </contour>
    <contour>
      <point x="724" y="570" type="curve"/>
      <point x="695" y="347" type="line"/>
      <point x="665" y="357"/>
      <point x="619" y="366"/>
      <point x="573" y="366" type="curve" smooth="yes"/>
      <point x="508" y="366"/>
      <point x="467" y="357"/>
      <point x="418" y="339" type="curve"/>
      <point x="396" y="384" type="line"/>
      <point x="475" y="507"/>
      <point x="546" y="585"/>
      <point x="653" y="585" type="curve" smooth="yes"/>
      <point x="694" y="585"/>
      <point x="717" y="575"/>
    </contour>
  </outline>
</glyph>
<glyph name="y" format="2">
  <advance width="805"/>
  <unicode hex="0079"/>
  <outline>
    <contour>
      <point x="371" y="-45" type="line"/>
      <point x="191" y="392" type="line" smooth="yes"/>
      <point x="179" y="420"/>
      <point x="163" y="427"/>
      <point x="123" y="433" type="curve" smooth="yes"/>
      <point x="102" y="436" type="line"/>
      <point x="128" y="572" type="line"/>
      <point x="399" y="572" type="line"/>
      <point x="549" y="149" type="line"/>
      <point x="543" y="72" type="line"/>
    </contour>
    <contour>
      <point x="499" y="120" type="line"/>
      <point x="559" y="271"/>
      <point x="618" y="421"/>
      <point x="678" y="572" type="curve"/>
      <point x="873" y="572" type="line"/>
      <point x="873" y="555" type="line"/>
      <point x="756" y="359"/>
      <point x="623" y="126"/>
      <point x="540" y="-2" type="curve" smooth="yes"/>
      <point x="429" y="-174"/>
      <point x="350" y="-254"/>
      <point x="158" y="-254" type="curve" smooth="yes"/>
      <point x="89" y="-254"/>
      <point x="33" y="-241"/>
      <point x="8" y="-229" type="curve"/>
      <point x="33" y="-72" type="line"/>
      <point x="58" y="-83"/>
      <point x="111" y="-95"/>
      <point x="176" y="-95" type="curve" smooth="yes"/>
      <point x="299" y="-95"/>
      <point x="372" y="-51"/>
      <point x="420" y="55" type="curve"/>
    </contour>
  </outline>
</glyph>
<glyph name="braceleft" format="2">
  <advance width="497"/>
  <unicode hex="007B"/>
  <outline>
    <contour>
      <point x="441" y="191" type="curve" smooth="yes"/>
      <point x="441" y="238"/>
      <point x="401" y="269"/>
      <point x="254" y="299" type="curve"/>
      <point x="258" y="325" type="line"/>
      <point x="424" y="356"/>
      <point x="480" y="380"/>
      <point x="480" y="445" type="curve" smooth="yes"/>
      <point x="480" y="497"/>
      <point x="438" y="537"/>
      <point x="438" y="573" type="curve" smooth="yes"/>
      <point x="438" y="604"/>
      <point x="455" y="623"/>
      <point x="519" y="623" type="curve" smooth="yes"/>
      <point x="527" y="623"/>
      <point x="532" y="623"/>
      <point x="546" y="622" type="curve"/>
      <point x="561" y="749" type="line"/>
      <point x="541" y="750"/>
      <point x="525" y="750"/>
      <point x="500" y="750" type="curve" smooth="yes"/>
      <point x="308" y="750"/>
      <point x="205" y="703"/>
      <point x="205" y="576" type="curve" smooth="yes"/>
      <point x="205" y="514"/>
      <point x="227" y="470"/>
      <point x="303" y="376" type="curve"/>
      <point x="336" y="452" type="line"/>
      <point x="114" y="397" type="line"/>
      <point x="86" y="235" type="line"/>
      <point x="291" y="180" type="line"/>
      <point x="283" y="250" type="line"/>
      <point x="177" y="156"/>
      <point x="117" y="101"/>
      <point x="117" y="15" type="curve" smooth="yes"/>
      <point x="117" y="-69"/>
      <point x="164" y="-124"/>
      <point x="365" y="-124" type="curve"/>
      <point x="384" y="-124"/>
      <point x="401" y="-124"/>
      <point x="422" y="-123" type="curve"/>
      <point x="449" y="7" type="line"/>
      <point x="436" y="6"/>
      <point x="430" y="6"/>
      <point x="418" y="6" type="curve"/>
      <point x="378" y="6"/>
      <point x="362" y="18"/>
      <point x="362" y="38" type="curve" smooth="yes"/>
      <point x="362" y="80"/>
      <point x="441" y="131"/>
    </contour>
  </outline>
</glyph>
<glyph name="section" format="2">
  <advance width="715"/>
  <unicode hex="00A7"/>
  <outline>
    <contour>
      <point x="300" y="-236" type="curve" smooth="yes"/>
      <point x="480" y="-236"/>
      <point x="601" y="-160"/>
      <point x="601" y="-16" type="curve" smooth="yes"/>
      <point x="601" y="81"/>
      <point x="549" y="140"/>
      <point x="417" y="179" type="curve" smooth="yes"/>
      <point x="302" y="213"/>
      <point x="264" y="229"/>
      <point x="264" y="267" type="curve" smooth="yes"/>
      <point x="264" y="294"/>
      <point x="277" y="328"/>
      <point x="341" y="339" type="curve"/>
      <point x="333" y="411" type="line"/>
      <point x="184" y="402"/>
      <point x="67" y="349"/>
      <point x="67" y="215" type="curve" smooth="yes"/>
      <point x="67" y="105"/>
      <point x="149" y="58"/>
      <point x="252" y="24" type="curve" smooth="yes"/>
      <point x="355" y="-10"/>
      <point x="404" y="-31"/>
      <point x="404" y="-66" type="curve"/>
      <point x="404" y="-101"/>
      <point x="355" y="-115"/>
      <point x="288" y="-115" type="curve"/>
      <point x="234" y="-115"/>
      <point x="189" y="-109"/>
      <point x="143" y="-92" type="curve"/>
      <point x="136" y="-128"/>
      <point x="144" y="-148"/>
      <point x="173" y="-172" type="curve"/>
      <point x="195" y="-33" type="line"/>
      <point x="45" y="-33" type="line"/>
      <point x="21" y="-184" type="line"/>
      <point x="65" y="-205"/>
      <point x="167" y="-236"/>
    </contour>
    <contour>
      <point x="426" y="86" type="line"/>
      <point x="625" y="97"/>
      <point x="729" y="163"/>
      <point x="729" y="291" type="curve" smooth="yes"/>
      <point x="729" y="390"/>
      <point x="639" y="441"/>
      <point x="535" y="478" type="curve" smooth="yes"/>
      <point x="455" y="507"/>
      <point x="389" y="516"/>
      <point x="389" y="559" type="curve" smooth="yes"/>
      <point x="389" y="596"/>
      <point x="415" y="610"/>
      <point x="496" y="610" type="curve"/>
      <point x="542" y="610"/>
      <point x="595" y="601"/>
      <point x="630" y="593" type="curve"/>
      <point x="640" y="635"/>
      <point x="606" y="663"/>
      <point x="576" y="665" type="curve"/>
      <point x="553" y="523" type="line"/>
      <point x="703" y="523" type="line"/>
      <point x="730" y="690" type="line"/>
      <point x="690" y="704"/>
      <point x="599" y="720"/>
      <point x="491" y="720" type="curve" smooth="yes"/>
      <point x="300" y="720"/>
      <point x="195" y="638"/>
      <point x="195" y="518" type="curve" smooth="yes"/>
      <point x="195" y="405"/>
      <point x="278" y="353"/>
      <point x="373" y="320" type="curve" smooth="yes"/>
      <point x="500" y="276"/>
      <point x="529" y="263"/>
      <point x="529" y="235" type="curve" smooth="yes"/>
      <point x="529" y="206"/>
      <point x="506" y="172"/>
      <point x="421" y="169" type="curve"/>
    </contour>
  </outline>
</glyph>
<glyph name="copyright" format="2">
  <advance width="1037"/>
  <unicode hex="00A9"/>
  <outline>
    <contour>
      <point x="597" y="479" type="curve" smooth="yes"/>
      <point x="642" y="479"/>
      <point x="672" y="465"/>
      <point x="684" y="409" type="curve"/>
      <point x="764" y="409" type="line"/>
      <point x="764" y="555" type="line"/>
      <point x="706" y="555" type="line"/>
      <point x="672" y="467" type="line"/>
      <point x="733" y="419" type="line"/>
      <point x="712" y="511"/>
      <point x="666" y="564"/>
      <point x="570" y="564" type="curve" smooth="yes"/>
      <point x="452" y="564"/>
      <point x="357" y="502"/>
      <point x="357" y="356" type="curve" smooth="yes"/>
      <point x="357" y="215"/>
      <point x="448" y="148"/>
      <point x="578" y="148" type="curve" smooth="yes"/>
      <point x="688" y="148"/>
      <point x="745" y="197"/>
      <point x="772" y="284" type="curve"/>
      <point x="700" y="309" type="line"/>
      <point x="681" y="248"/>
      <point x="645" y="234"/>
      <point x="602" y="234" type="curve" smooth="yes"/>
      <point x="544" y="234"/>
      <point x="503" y="257"/>
      <point x="503" y="356" type="curve" smooth="yes"/>
      <point x="503" y="446"/>
      <point x="539" y="479"/>
    </contour>
    <contour>
      <point x="245" y="355" type="curve" smooth="yes"/>
      <point x="245" y="544"/>
      <point x="361" y="651"/>
      <point x="574" y="651" type="curve" smooth="yes"/>
      <point x="787" y="651"/>
      <point x="904" y="544"/>
      <point x="904" y="355" type="curve" smooth="yes"/>
      <point x="904" y="165"/>
      <point x="787" y="59"/>
      <point x="574" y="59" type="curve" smooth="yes"/>
      <point x="361" y="59"/>
      <point x="245" y="165"/>
    </contour>
    <contour>
      <point x="128" y="355" type="curve" smooth="yes"/>
      <point x="128" y="109"/>
      <point x="299" y="-46"/>
      <point x="574" y="-46" type="curve" smooth="yes"/>
      <point x="849" y="-46"/>
      <point x="1021" y="109"/>
      <point x="1021" y="355" type="curve" smooth="yes"/>
      <point x="1021" y="600"/>
      <point x="849" y="756"/>
      <point x="574" y="756" type="curve" smooth="yes"/>
      <point x="299" y="756"/>
      <point x="128" y="600"/>
    </contour>
  </outline>
</glyph>
<glyph name="ordfeminine" format="2">
  <advance width="701"/>
  <unicode hex="00AA"/>
  <outline>
    <contour>
      <point x="595" y="282" type="curve" smooth="yes"/>
      <point x="633" y="282"/>
      <point x="679" y="282"/>
      <point x="726" y="282" type="curve"/>
      <point x="744" y="396" type="line"/>
      <point x="731" y="396"/>
      <point x="721" y="396"/>
      <point x="708" y="396" type="curve" smooth="yes"/>
      <point x="686" y="396"/>
      <point x="679" y="404"/>
      <point x="679" y="420" type="curve" smooth="yes"/>
      <point x="679" y="432"/>
      <point x="683" y="452"/>
      <point x="692" y="501" type="curve" smooth="yes"/>
      <point x="732" y="722" type="line"/>
      <point x="586" y="722" type="line"/>
      <point x="506" y="624" type="line"/>
      <point x="496" y="597" type="line"/>
      <point x="460" y="392" type="line"/>
      <point x="470" y="390" type="line"/>
      <point x="470" y="386"/>
      <point x="470" y="385"/>
      <point x="470" y="381" type="curve" smooth="yes"/>
      <point x="470" y="312"/>
      <point x="510" y="282"/>
    </contour>
    <contour>
      <point x="291" y="273" type="curve" smooth="yes"/>
      <point x="389" y="273"/>
      <point x="439" y="326"/>
      <point x="513" y="441" type="curve"/>
      <point x="499" y="476" type="line"/>
      <point x="453" y="424"/>
      <point x="425" y="406"/>
      <point x="385" y="406" type="curve" smooth="yes"/>
      <point x="338" y="406"/>
      <point x="316" y="433"/>
      <point x="316" y="482" type="curve" smooth="yes"/>
      <point x="316" y="556"/>
      <point x="350" y="597"/>
      <point x="413" y="597" type="curve" smooth="yes"/>
      <point x="469" y="597"/>
      <point x="489" y="558"/>
      <point x="511" y="506" type="curve"/>
      <point x="539" y="562" type="line"/>
      <point x="514" y="675"/>
      <point x="465" y="730"/>
      <point x="354" y="730" type="curve"/>
      <point x="193" y="730"/>
      <point x="99" y="605"/>
      <point x="99" y="474" type="curve" smooth="yes"/>
      <point x="99" y="341"/>
      <point x="174" y="273"/>
    </contour>
  </outline>
</glyph>
<glyph name="cedilla" format="2">
  <advance width="613"/>
  <unicode hex="00B8"/>
  <outline>
    <contour>
      <point x="324" y="-333" type="curve" smooth="yes"/>
      <point x="433" y="-333"/>
      <point x="547" y="-294"/>
      <point x="547" y="-199" type="curve" smooth="yes"/>
      <point x="547" y="-112"/>
      <point x="484" y="-73"/>
      <point x="306" y="-66" type="curve"/>
      <point x="294" y="-96" type="line"/>
      <point x="441" y="6" type="line"/>
      <point x="274" y="16" type="line"/>
      <point x="182" y="-145" type="line"/>
      <point x="262" y="-145" type="line" smooth="yes"/>
      <point x="335" y="-145"/>
      <point x="352" y="-162"/>
      <point x="352" y="-193" type="curve" smooth="yes"/>
      <point x="352" y="-218"/>
      <point x="334" y="-234"/>
      <point x="292" y="-234" type="curve" smooth="yes"/>
      <point x="250" y="-234"/>
      <point x="210" y="-215"/>
      <point x="187" y="-192" type="curve"/>
      <point x="118" y="-267" type="line"/>
      <point x="151" y="-300"/>
      <point x="220" y="-333"/>
    </contour>
  </outline>
</glyph>
<glyph name="AE" format="2">
  <advance width="1365"/>
  <unicode hex="00C6"/>
  <outline>
    <contour>
      <point x="33" y="141" type="line"/>
      <point x="10" y="0" type="line"/>
      <point x="311" y="0" type="line"/>
      <point x="334" y="141" type="line"/>
      <point x="324" y="141" type="line" smooth="yes"/>
      <point x="281" y="141"/>
      <point x="276" y="151"/>
      <point x="278" y="164" type="curve"/>
      <point x="681" y="572" type="line"/>
      <point x="707" y="572" type="line"/>
      <point x="645" y="175" type="line" smooth="yes"/>
      <point x="642" y="155"/>
      <point x="620" y="145"/>
      <point x="590" y="145" type="curve" smooth="yes"/>
      <point x="564" y="145" type="line"/>
      <point x="540" y="0" type="line"/>
      <point x="1304" y="0" type="line"/>
      <point x="1339" y="224" type="line"/>
      <point x="1142" y="224" type="line"/>
      <point x="1123" y="183" type="line" smooth="yes"/>
      <point x="1107" y="149"/>
      <point x="1084" y="138"/>
      <point x="989" y="138" type="curve" smooth="yes"/>
      <point x="918" y="138" type="line"/>
      <point x="985" y="572" type="line"/>
      <point x="1084" y="572" type="line" smooth="yes"/>
      <point x="1153" y="572"/>
      <point x="1168" y="564"/>
      <point x="1170" y="527" type="curve" smooth="yes"/>
      <point x="1171" y="511" type="line"/>
      <point x="1365" y="511" type="line"/>
      <point x="1396" y="710" type="line"/>
      <point x="454" y="710" type="line"/>
      <point x="436" y="605" type="line"/>
      <point x="446" y="605" type="line" smooth="yes"/>
      <point x="498" y="605"/>
      <point x="531" y="600"/>
      <point x="531" y="591" type="curve"/>
      <point x="150" y="205" type="line" smooth="yes"/>
      <point x="97" y="152"/>
      <point x="72" y="141"/>
      <point x="40" y="141" type="curve" smooth="yes"/>
    </contour>
    <contour>
      <point x="333" y="340" type="line"/>
      <point x="282" y="217" type="line"/>
      <point x="682" y="217" type="line"/>
      <point x="712" y="340" type="line"/>
    </contour>
    <contour>
      <point x="939" y="420" type="curve"/>
      <point x="920" y="312" type="line"/>
      <point x="1028" y="300"/>
      <point x="1107" y="289"/>
      <point x="1214" y="278" type="curve"/>
      <point x="1243" y="453" type="line"/>
      <point x="1138" y="444"/>
      <point x="1055" y="432"/>
    </contour>
  </outline>
</glyph>
<glyph name="Eth" format="2">
  <advance width="1036"/>
  <unicode hex="00D0"/>
  <outline>
    <contour>
      <point x="79" y="296" type="line"/>
      <point x="589" y="296" type="line"/>
      <point x="611" y="436" type="line"/>
      <point x="101" y="436" type="line"/>
    </contour>
    <component base="D"/>
  </outline>
</glyph>
<glyph name="multiply" format="2">
  <advance width="680"/>
  <unicode hex="00D7"/>
  <outline>
    <contour>
      <point x="242" y="81" type="line"/>
      <point x="680" y="449" type="line"/>
      <point x="549" y="600" type="line"/>
      <point x="111" y="232" type="line"/>
    </contour>
    <contour>
      <point x="477" y="84" type="line"/>
      <point x="641" y="225" type="line"/>
      <point x="305" y="593" type="line"/>
      <point x="141" y="452" type="line"/>
    </contour>
  </outline>
</glyph>
<glyph name="Thorn" format="2">
  <advance width="922"/>
  <unicode hex="00DE"/>
  <outline>
    <contour>
      <point x="488" y="552" type="line" smooth="yes"/>
      <point x="490" y="562"/>
      <point x="510" y="565"/>
      <point x="540" y="565" type="curve" smooth="yes"/>
      <point x="557" y="565" type="line"/>
      <point x="580" y="710" type="line"/>
      <point x="159" y="710" type="line"/>
      <point x="136" y="565" type="line"/>
      <point x="161" y="565" type="line" smooth="yes"/>
      <point x="191" y="565"/>
      <point x="210" y="553"/>
      <point x="207" y="535" type="curve" smooth="yes"/>
      <point x="151" y="175" type="line" smooth="yes"/>
      <point x="148" y="155"/>
      <point x="126" y="145"/>
      <point x="96" y="145" type="curve" smooth="yes"/>
      <point x="70" y="145" type="line"/>
      <point x="46" y="0" type="line"/>
      <point x="483" y="0" type="line"/>
      <point x="507" y="145" type="line"/>
      <point x="475" y="145" type="line" smooth="yes"/>
      <point x="446" y="145"/>
      <point x="425" y="148"/>
      <point x="427" y="158" type="curve" smooth="yes"/>
    </contour>
    <contour>
      <point x="368" y="180" type="line"/>
      <point x="659" y="180" type="line" smooth="yes"/>
      <point x="866" y="180"/>
      <point x="954" y="236"/>
      <point x="954" y="370" type="curve"/>
      <point x="954" y="478"/>
      <point x="878" y="534"/>
      <point x="635" y="534" type="curve" smooth="yes"/>
      <point x="416" y="534" type="line"/>
      <point x="414" y="415" type="line"/>
      <point x="590" y="415" type="line" smooth="yes"/>
      <point x="660" y="415"/>
      <point x="686" y="398"/>
      <point x="686" y="358" type="curve" smooth="yes"/>
      <point x="686" y="311"/>
      <point x="660" y="298"/>
      <point x="576" y="298" type="curve" smooth="yes"/>
      <point x="387" y="298" type="line"/>
    </contour>
  </outline>
</glyph>
<glyph name="germandbls" format="2">
  <advance width="953"/>
  <unicode hex="00DF"/>
  <outline>
    <contour>
      <point x="105" y="572" type="line"/>
      <point x="81" y="425" type="line"/>
      <point x="327" y="425" type="line"/>
      <point x="351" y="572" type="line"/>
    </contour>
    <contour>
      <point x="110" y="-253" type="line"/>
      <point x="328" y="-253" type="line"/>
      <point x="482" y="529" type="line" smooth="yes"/>
      <point x="499" y="615"/>
      <point x="541" y="641"/>
      <point x="605" y="641" type="curve" smooth="yes"/>
      <point x="668" y="641"/>
      <point x="692" y="616"/>
      <point x="692" y="576" type="curve" smooth="yes"/>
      <point x="692" y="541"/>
      <point x="662" y="511"/>
      <point x="567" y="505" type="curve"/>
      <point x="534" y="354" type="line"/>
      <point x="604" y="344"/>
      <point x="671" y="323"/>
      <point x="671" y="253" type="curve" smooth="yes"/>
      <point x="671" y="183"/>
      <point x="633" y="150"/>
      <point x="557" y="150" type="curve" smooth="yes"/>
      <point x="530" y="150"/>
      <point x="510" y="156"/>
      <point x="488" y="164" type="curve"/>
      <point x="455" y="15" type="line"/>
      <point x="487" y="1"/>
      <point x="553" y="-10"/>
      <point x="622" y="-10" type="curve" smooth="yes"/>
      <point x="823" y="-10"/>
      <point x="950" y="67"/>
      <point x="950" y="221" type="curve" smooth="yes"/>
      <point x="950" y="354"/>
      <point x="841" y="415"/>
      <point x="658" y="428" type="curve"/>
      <point x="687" y="403" type="line"/>
      <point x="698" y="478" type="line"/>
      <point x="639" y="442" type="line"/>
      <point x="838" y="445"/>
      <point x="955" y="482"/>
      <point x="955" y="615" type="curve" smooth="yes"/>
      <point x="955" y="707"/>
      <point x="843" y="785"/>
      <point x="604" y="785" type="curve" smooth="yes"/>
      <point x="341" y="785"/>
      <point x="241" y="707"/>
      <point x="223" y="575" type="curve" smooth="yes"/>
    </contour>
  </outline>
</glyph>
<glyph name="icircumflex" format="2">
  <advance width="470"/>
  <unicode hex="00EE"/>
  <outline>
    <contour>
      <point x="431" y="870" type="line"/>
      <point x="558" y="681" type="line"/>
      <point x="548" y="618" type="line"/>
      <point x="455" y="618" type="line"/>
      <point x="281" y="727" type="line"/>
      <point x="340" y="729" type="line"/>
      <point x="172" y="618" type="line"/>
      <point x="58" y="618" type="line"/>
      <point x="68" y="681" type="line"/>
      <point x="258" y="870" type="line"/>
    </contour>
    <component base="dotlessi"/>
  </outline>
</glyph>
<glyph name="idieresis" format="2">
  <advance width="470"/>
  <unicode hex="00EF"/>
  <outline>
    <contour>
      <point x="159" y="602" type="curve" smooth="yes"/>
      <point x="75" y="602"/>
      <point x="27" y="638"/>
      <point x="27" y="713" type="curve" smooth="yes"/>
      <point x="27" y="786"/>
      <point x="75" y="824"/>
      <point x="159" y="824" type="curve" smooth="yes"/>
      <point x="239" y="824"/>
      <point x="287" y="786"/>
      <point x="287" y="713" type="curve" smooth="yes"/>
      <point x="287" y="639"/>
      <point x="239" y="602"/>
    </contour>
    <contour>
      <point x="472" y="602" type="curve" smooth="yes"/>
      <point x="391" y="602"/>
      <point x="343" y="638"/>
      <point x="343" y="713" type="curve" smooth="yes"/>
      <point x="343" y="786"/>
      <point x="391" y="824"/>
      <point x="472" y="824" type="curve" smooth="yes"/>
      <point x="554" y="824"/>
      <point x="603" y="786"/>
      <point x="603" y="713" type="curve" smooth="yes"/>
      <point x="603" y="639"/>
      <point x="554" y="602"/>
    </contour>
    <component base="dotlessi"/>
  </outline>
</glyph>
<glyph name="eth" format="2">
  <advance width="810"/>
  <unicode hex="00F0"/>
  <outline>
    <contour>
      <point x="216" y="668" type="line"/>
      <point x="247" y="565" type="line"/>
      <point x="813" y="735" type="line"/>
      <point x="782" y="838" type="line"/>
    </contour>
    <contour>
      <point x="618" y="415" type="line"/>
      <point x="570" y="472"/>
      <point x="534" y="557"/>
      <point x="397" y="557" type="curve"/>
      <point x="217" y="557"/>
      <point x="81" y="449"/>
      <point x="81" y="262" type="curve" smooth="yes"/>
      <point x="81" y="75"/>
      <point x="208" y="-15"/>
      <point x="423" y="-15" type="curve" smooth="yes"/>
      <point x="650" y="-15"/>
      <point x="830" y="90"/>
      <point x="830" y="381" type="curve"/>
      <point x="830" y="645"/>
      <point x="655" y="805"/>
      <point x="326" y="855" type="curve"/>
      <point x="287" y="745" type="line"/>
      <point x="498" y="690"/>
      <point x="561" y="589"/>
      <point x="561" y="359" type="curve" smooth="yes"/>
      <point x="561" y="287"/>
      <point x="551" y="228"/>
      <point x="533" y="192" type="curve" smooth="yes"/>
      <point x="511" y="149"/>
      <point x="480" y="131"/>
      <point x="448" y="131" type="curve" smooth="yes"/>
      <point x="384" y="131"/>
      <point x="343" y="167"/>
      <point x="343" y="263" type="curve" smooth="yes"/>
      <point x="343" y="305"/>
      <point x="351" y="342"/>
      <point x="368" y="364" type="curve" smooth="yes"/>
      <point x="390" y="393"/>
      <point x="425" y="411"/>
      <point x="459" y="411" type="curve" smooth="yes"/>
      <point x="521" y="411"/>
      <point x="558" y="391"/>
      <point x="598" y="347" type="curve"/>
    </contour>
  </outline>
</glyph>
<glyph name="divide" format="2">
  <advance width="680"/>
  <unicode hex="00F7"/>
  <outline>
    <contour>
      <point x="565" y="622" type="curve" smooth="yes"/>
      <point x="565" y="701"/>
      <point x="515" y="738"/>
      <point x="439" y="738" type="curve" smooth="yes"/>
      <point x="363" y="738"/>
      <point x="313" y="701"/>
      <point x="313" y="622" type="curve" smooth="yes"/>
      <point x="313" y="545"/>
      <point x="363" y="507"/>
      <point x="439" y="507" type="curve" smooth="yes"/>
      <point x="515" y="507"/>
      <point x="565" y="545"/>
    </contour>
    <contour>
      <point x="485" y="121" type="curve" smooth="yes"/>
      <point x="485" y="200"/>
      <point x="435" y="236"/>
      <point x="359" y="236" type="curve" smooth="yes"/>
      <point x="283" y="236"/>
      <point x="233" y="200"/>
      <point x="233" y="121" type="curve" smooth="yes"/>
      <point x="233" y="43"/>
      <point x="283" y="6"/>
      <point x="359" y="6" type="curve" smooth="yes"/>
      <point x="435" y="6"/>
      <point x="485" y="43"/>
    </contour>
    <component base="minus" xOffset="7" yOffset="42"/>
  </outline>
</glyph>
<glyph name="oslash" format="2">
  <advance width="849"/>
  <unicode hex="00F8"/>
  <outline>
    <contour>
      <point x="447" y="133" type="curve" smooth="yes"/>
      <point x="381" y="133"/>
      <point x="348" y="179"/>
      <point x="348" y="236" type="curve" smooth="yes"/>
      <point x="348" y="262"/>
      <point x="350" y="288"/>
      <point x="357" y="312" type="curve" smooth="yes"/>
      <point x="379" y="394"/>
      <point x="420" y="438"/>
      <point x="489" y="438" type="curve" smooth="yes"/>
      <point x="555" y="438"/>
      <point x="588" y="392"/>
      <point x="588" y="335" type="curve" smooth="yes"/>
      <point x="588" y="309"/>
      <point x="586" y="283"/>
      <point x="579" y="259" type="curve" smooth="yes"/>
      <point x="557" y="177"/>
      <point x="516" y="133"/>
    </contour>
    <contour>
      <point x="454" y="-12" type="curve" smooth="yes"/>
      <point x="715" y="-12"/>
      <point x="856" y="130"/>
      <point x="856" y="307" type="curve" smooth="yes"/>
      <point x="856" y="480"/>
      <point x="724" y="583"/>
      <point x="484" y="583" type="curve" smooth="yes"/>
      <point x="222" y="583"/>
      <point x="80" y="437"/>
      <point x="80" y="260" type="curve" smooth="yes"/>
      <point x="80" y="85"/>
      <point x="214" y="-12"/>
    </contour>
    <contour>
      <point x="15" y="-15" type="line"/>
      <point x="191" y="-15" type="line"/>
      <point x="922" y="584" type="line"/>
      <point x="747" y="584" type="line"/>
    </contour>
  </outline>
</glyph>
<glyph name="eogonek" format="2">
  <advance width="764"/>
  <unicode hex="0119"/>
  <outline>
    <contour>
      <point x="473" y="135" type="curve" smooth="yes"/>
      <point x="374" y="135"/>
      <point x="340" y="167"/>
      <point x="340" y="263" type="curve" smooth="yes"/>
      <point x="340" y="367"/>
      <point x="390" y="463"/>
      <point x="490" y="463" type="curve" smooth="yes"/>
      <point x="531" y="463"/>
      <point x="557" y="444"/>
      <point x="558" y="411" type="curve" smooth="yes"/>
      <point x="560" y="355"/>
      <point x="510" y="331"/>
      <point x="274" y="328" type="curve"/>
      <point x="274" y="222" type="line"/>
      <point x="615" y="229"/>
      <point x="768" y="276"/>
      <point x="768" y="425" type="curve" smooth="yes"/>
      <point x="768" y="519"/>
      <point x="673" y="584"/>
      <point x="499" y="584" type="curve" smooth="yes"/>
      <point x="214" y="584"/>
      <point x="80" y="433"/>
      <point x="80" y="253" type="curve" smooth="yes"/>
      <point x="80" y="60"/>
      <point x="237" y="-15"/>
      <point x="431" y="-15" type="curve" smooth="yes"/>
      <point x="474" y="-15"/>
      <point x="527" y="-10"/>
      <point x="559" y="0" type="curve"/>
      <point x="533" y="5" type="line"/>
      <point x="340" y="-35"/>
      <point x="270" y="-76"/>
      <point x="270" y="-144" type="curve" smooth="yes"/>
      <point x="270" y="-218"/>
      <point x="333" y="-252"/>
      <point x="461" y="-252" type="curve" smooth="yes"/>
      <point x="543" y="-252"/>
      <point x="616" y="-230"/>
      <point x="651" y="-201" type="curve"/>
      <point x="600" y="-117" type="line"/>
      <point x="575" y="-135"/>
      <point x="541" y="-143"/>
      <point x="516" y="-143" type="curve" smooth="yes"/>
      <point x="476" y="-143"/>
      <point x="462" y="-126"/>
      <point x="462" y="-104" type="curve" smooth="yes"/>
      <point x="462" y="-77"/>
      <point x="491" y="-49"/>
      <point x="609" y="14" type="curve" smooth="yes"/>
      <point x="678" y="50"/>
      <point x="722" y="85"/>
      <point x="757" y="135" type="curve"/>
      <point x="643" y="218" type="line"/>
      <point x="606" y="173"/>
      <point x="556" y="135"/>
    </contour>
  </outline>
</glyph>
<glyph name="Hbar" format="2">
  <advance width="1051"/>
  <unicode hex="0126"/>
  <outline>
    <contour>
      <point x="313" y="367" type="line"/>
      <point x="295" y="231" type="line"/>
      <point x="806" y="231" type="line"/>
      <point x="824" y="367" type="line"/>
    </contour>
    <contour>
      <point x="46" y="0" type="line"/>
      <point x="467" y="0" type="line"/>
      <point x="491" y="145" type="line"/>
      <point x="475" y="145" type="line" smooth="yes"/>
      <point x="446" y="145"/>
      <point x="425" y="148"/>
      <point x="427" y="158" type="curve"/>
      <point x="488" y="552" type="line"/>
      <point x="490" y="562"/>
      <point x="510" y="565"/>
      <point x="540" y="565" type="curve" smooth="yes"/>
      <point x="557" y="565" type="line"/>
      <point x="580" y="710" type="line"/>
      <point x="159" y="710" type="line"/>
      <point x="136" y="565" type="line"/>
      <point x="161" y="565" type="line" smooth="yes"/>
      <point x="191" y="565"/>
      <point x="210" y="553"/>
      <point x="207" y="535" type="curve" smooth="yes"/>
      <point x="151" y="175" type="line" smooth="yes"/>
      <point x="148" y="155"/>
      <point x="126" y="145"/>
      <point x="96" y="145" type="curve" smooth="yes"/>
      <point x="70" y="145" type="line"/>
    </contour>
    <contour>
      <point x="583" y="0" type="line"/>
      <point x="1004" y="0" type="line"/>
      <point x="1028" y="145" type="line"/>
      <point x="1003" y="145" type="line" smooth="yes"/>
      <point x="973" y="145"/>
      <point x="954" y="157"/>
      <point x="957" y="175" type="curve" smooth="yes"/>
      <point x="1013" y="535" type="line" smooth="yes"/>
      <point x="1016" y="555"/>
      <point x="1038" y="565"/>
      <point x="1068" y="565" type="curve" smooth="yes"/>
      <point x="1094" y="565" type="line"/>
      <point x="1117" y="710" type="line"/>
      <point x="696" y="710" type="line"/>
      <point x="673" y="565" type="line"/>
      <point x="689" y="565" type="line" smooth="yes"/>
      <point x="718" y="565"/>
      <point x="739" y="562"/>
      <point x="737" y="552" type="curve"/>
      <point x="676" y="158" type="line"/>
      <point x="674" y="148"/>
      <point x="654" y="145"/>
      <point x="624" y="145" type="curve" smooth="yes"/>
      <point x="607" y="145" type="line"/>
    </contour>
    <contour>
      <point x="87" y="406" type="line"/>
      <point x="1093" y="406" type="line"/>
      <point x="1113" y="523" type="line"/>
      <point x="107" y="523" type="line"/>
    </contour>
  </outline>
</glyph>
<glyph name="imacron" format="2">
  <advance width="470"/>
  <unicode hex="012B"/>
  <outline>
    <contour>
      <point x="128" y="802" type="line"/>
      <point x="99" y="629" type="line"/>
      <point x="513" y="629" type="line"/>
      <point x="542" y="802" type="line"/>
    </contour>
    <component base="dotlessi"/>
  </outline>
</glyph>
<glyph name="Iogonek" format="2">
  <advance width="544"/>
  <unicode hex="012E"/>
  <outline>
    <contour>
      <point x="352" y="34" type="line"/>
      <point x="141" y="-28"/>
      <point x="70" y="-65"/>
      <point x="70" y="-144" type="curve" smooth="yes"/>
      <point x="70" y="-218"/>
      <point x="133" y="-252"/>
      <point x="261" y="-252" type="curve" smooth="yes"/>
      <point x="343" y="-252"/>
      <point x="416" y="-230"/>
      <point x="451" y="-201" type="curve"/>
      <point x="400" y="-117" type="line"/>
      <point x="375" y="-135"/>
      <point x="341" y="-143"/>
      <point x="316" y="-143" type="curve" smooth="yes"/>
      <point x="278" y="-143"/>
      <point x="261" y="-129"/>
      <point x="261" y="-106" type="curve" smooth="yes"/>
      <point x="261" y="-76"/>
      <point x="294" y="-53"/>
      <point x="416" y="7" type="curve"/>
    </contour>
    <component base="I"/>
  </outline>
</glyph>
<glyph name="iogonek" format="2">
  <advance width="470"/>
  <unicode hex="012F"/>
  <outline>
    <contour>
      <point x="301" y="28" type="line"/>
      <point x="90" y="-26"/>
      <point x="40" y="-65"/>
      <point x="40" y="-144" type="curve" smooth="yes"/>
      <point x="40" y="-218"/>
      <point x="103" y="-252"/>
      <point x="231" y="-252" type="curve" smooth="yes"/>
      <point x="313" y="-252"/>
      <point x="386" y="-230"/>
      <point x="421" y="-201" type="curve"/>
      <point x="370" y="-117" type="line"/>
      <point x="345" y="-135"/>
      <point x="310" y="-143"/>
      <point x="284" y="-143" type="curve" smooth="yes"/>
      <point x="247" y="-143"/>
      <point x="231" y="-130"/>
      <point x="231" y="-106" type="curve" smooth="yes"/>
      <point x="231" y="-75"/>
      <point x="261" y="-54"/>
      <point x="386" y="7" type="curve"/>
    </contour>
    <component base="i"/>
  </outline>
</glyph>
<glyph name="kgreenlandic" format="2">
  <advance width="927"/>
  <unicode hex="0138"/>
  <outline>
    <contour>
      <point x="653" y="403" type="line"/>
      <point x="789" y="168" type="line" smooth="yes"/>
      <point x="807" y="137"/>
      <point x="822" y="130"/>
      <point x="862" y="130" type="curve" smooth="yes"/>
      <point x="884" y="130"/>
      <point x="902" y="130"/>
      <point x="920" y="130" type="curve"/>
      <point x="899" y="0" type="line"/>
      <point x="831" y="0"/>
      <point x="763" y="0"/>
      <point x="695" y="0" type="curve" smooth="yes"/>
      <point x="621" y="0"/>
      <point x="588" y="9"/>
      <point x="561" y="59" type="curve" smooth="yes"/>
      <point x="442" y="283" type="line"/>
      <point x="452" y="330" type="line"/>
      <point x="528" y="409"/>
      <point x="609" y="494"/>
      <point x="683" y="572" type="curve"/>
      <point x="964" y="572" type="line"/>
      <point x="964" y="547" type="line"/>
      <point x="848" y="480"/>
      <point x="715" y="404"/>
      <point x="599" y="337" type="curve"/>
    </contour>
    <contour>
      <point x="371" y="0" type="line"/>
      <point x="462" y="572" type="line"/>
      <point x="128" y="572" type="line"/>
      <point x="105" y="432" type="line"/>
      <point x="127" y="429" type="line" smooth="yes"/>
      <point x="165" y="424"/>
      <point x="176" y="419"/>
      <point x="174" y="406" type="curve" smooth="yes"/>
      <point x="108" y="0" type="line"/>
    </contour>
  </outline>
</glyph>
<glyph name="Ldot" format="2">
  <advance width="881"/>
  <unicode hex="013F"/>
  <outline>
    <contour>
      <point x="612" y="710" type="line"/>
      <point x="159" y="710" type="line"/>
      <point x="136" y="565" type="line"/>
      <point x="161" y="565" type="line" smooth="yes"/>
      <point x="191" y="565"/>
      <point x="210" y="553"/>
      <point x="207" y="535" type="curve" smooth="yes"/>
      <point x="151" y="175" type="line" smooth="yes"/>
      <point x="148" y="155"/>
      <point x="126" y="145"/>
      <point x="96" y="145" type="curve" smooth="yes"/>
      <point x="70" y="145" type="line"/>
      <point x="46" y="0" type="line"/>
      <point x="826" y="0" type="line"/>
      <point x="867" y="260" type="line"/>
      <point x="704" y="260" type="line"/>
      <point x="666" y="183" type="line" smooth="yes"/>
      <point x="650" y="149"/>
      <point x="627" y="138"/>
      <point x="542" y="138" type="curve" smooth="yes"/>
      <point x="424" y="138" type="line"/>
      <point x="488" y="552" type="line" smooth="yes"/>
      <point x="490" y="562"/>
      <point x="510" y="565"/>
      <point x="540" y="565" type="curve" smooth="yes"/>
      <point x="589" y="565" type="line"/>
    </contour>
    <component base="periodcentered" xOffset="491" yOffset="110"/>
  </outline>
</glyph>
<glyph name="Lslash" format="2">
  <advance width="871"/>
  <unicode hex="0141"/>
  <outline>
    <contour>
      <point x="29" y="154" type="line"/>
      <point x="728" y="393" type="line"/>
      <point x="752" y="548" type="line"/>
      <point x="53" y="309" type="line"/>
    </contour>
    <component base="L"/>
  </outline>
</glyph>
<glyph name="lslash" format="2">
  <advance width="534"/>
  <unicode hex="0142"/>
  <outline>
    <contour>
      <point x="41" y="171" type="line"/>
      <point x="588" y="442" type="line"/>
      <point x="615" y="600" type="line"/>
      <point x="68" y="329" type="line"/>
    </contour>
    <component base="l" xOffset="33"/>
  </outline>
</glyph>
<glyph name="OE" format="2">
  <advance width="1366"/>
  <unicode hex="0152"/>
  <outline>
    <contour>
      <point x="940" y="420" type="curve"/>
      <point x="921" y="312" type="line"/>
      <point x="1028" y="300"/>
      <point x="1108" y="289"/>
      <point x="1215" y="278" type="curve"/>
      <point x="1244" y="453" type="line"/>
      <point x="1139" y="444"/>
      <point x="1056" y="432"/>
    </contour>
    <contour>
      <point x="611" y="710" type="line" smooth="yes"/>
      <point x="352" y="710"/>
      <point x="107" y="611"/>
      <point x="107" y="321" type="curve" smooth="yes"/>
      <point x="107" y="105"/>
      <point x="271" y="0"/>
      <point x="540" y="0" type="curve" smooth="yes"/>
      <point x="1305" y="0" type="line"/>
      <point x="1340" y="224" type="line"/>
      <point x="1143" y="224" type="line"/>
      <point x="1123" y="183" type="line" smooth="yes"/>
      <point x="1106" y="149"/>
      <point x="1085" y="138"/>
      <point x="990" y="138" type="curve" smooth="yes"/>
      <point x="919" y="138" type="line"/>
      <point x="986" y="572" type="line"/>
      <point x="1079" y="572" type="line" smooth="yes"/>
      <point x="1148" y="572"/>
      <point x="1169" y="563"/>
      <point x="1171" y="527" type="curve" smooth="yes"/>
      <point x="1172" y="511" type="line"/>
      <point x="1366" y="511" type="line"/>
      <point x="1397" y="710" type="line"/>
    </contour>
    <contour>
      <point x="614" y="138" type="line" smooth="yes"/>
      <point x="472" y="138"/>
      <point x="400" y="196"/>
      <point x="400" y="301" type="curve" smooth="yes"/>
      <point x="400" y="536"/>
      <point x="500" y="572"/>
      <point x="642" y="572" type="curve" smooth="yes"/>
      <point x="707" y="572" type="line"/>
      <point x="640" y="138" type="line"/>
    </contour>
  </outline>
</glyph>
<glyph name="tbar" format="2">
  <advance width="643"/>
  <unicode hex="0167"/>
  <outline>
    <contour>
      <point x="640" y="363" type="line"/>
      <point x="113" y="363" type="line"/>
      <point x="94" y="243" type="line"/>
      <point x="621" y="243" type="line"/>
    </contour>
    <component base="t"/>
  </outline>
</glyph>
<glyph name="Dhook" format="2">
  <advance width="1201"/>
  <unicode hex="018A"/>
  <outline>
    <contour>
      <point x="747" y="575" type="line" smooth="yes"/>
      <point x="879" y="575"/>
      <point x="922" y="507"/>
      <point x="922" y="411" type="curve"/>
      <point x="922" y="291"/>
      <point x="876" y="135"/>
      <point x="717" y="135" type="curve" smooth="yes"/>
      <point x="587" y="135" type="line"/>
      <point x="654" y="575" type="line"/>
    </contour>
    <contour>
      <point x="392" y="665" type="line"/>
      <point x="317" y="175" type="line" smooth="yes"/>
      <point x="314" y="155"/>
      <point x="292" y="145"/>
      <point x="262" y="145" type="curve" smooth="yes"/>
      <point x="236" y="145" type="line"/>
      <point x="211" y="0" type="line"/>
      <point x="746" y="0" type="line" smooth="yes"/>
      <point x="1076" y="1"/>
      <point x="1209" y="178"/>
      <point x="1209" y="396" type="curve" smooth="yes"/>
      <point x="1209" y="603"/>
      <point x="1051" y="710"/>
      <point x="754" y="710" type="curve" smooth="yes"/>
      <point x="329" y="710" type="line"/>
      <point x="190" y="710.0"/>
      <point x="116" y="657.0"/>
      <point x="87" y="516" type="curve" smooth="yes"/>
      <point x="81" y="485"/>
      <point x="79.0" y="449.0"/>
      <point x="79" y="430" type="curve"/>
      <point x="258" y="430" type="line"/>
      <point x="257.0" y="447"/>
      <point x="258.0" y="474"/>
      <point x="263" y="503" type="curve" smooth="yes"/>
      <point x="274" y="565"/>
      <point x="300.0" y="575.0"/>
      <point x="337" y="575" type="curve" smooth="yes"/>
      <point x="395" y="575" type="line"/>
    </contour>
  </outline>
</glyph>
<glyph name="Schwa" format="2">
  <advance width="972"/>
  <unicode hex="018F"/>
  <outline>
    <contour>
      <point x="507" y="-24" type="curve" smooth="yes"/>
      <point x="808" y="-24"/>
      <point x="972" y="140"/>
      <point x="972" y="374" type="curve" smooth="yes"/>
      <point x="972" y="600"/>
      <point x="837" y="734"/>
      <point x="533" y="734" type="curve" smooth="yes"/>
      <point x="370" y="734"/>
      <point x="237" y="687"/>
      <point x="149" y="606" type="curve"/>
      <point x="269" y="474" type="line"/>
      <point x="349" y="548"/>
      <point x="425" y="563"/>
      <point x="509" y="563" type="curve" smooth="yes"/>
      <point x="638" y="563"/>
      <point x="689" y="503"/>
      <point x="689" y="419" type="curve" smooth="yes"/>
      <point x="689" y="276"/>
      <point x="642" y="145"/>
      <point x="492" y="145" type="curve" smooth="yes"/>
      <point x="399" y="145"/>
      <point x="369" y="197"/>
      <point x="369" y="258" type="curve" smooth="yes"/>
      <point x="369" y="297"/>
      <point x="371" y="304"/>
      <point x="383" y="362" type="curve"/>
      <point x="353" y="287" type="line"/>
      <point x="798" y="287" type="line"/>
      <point x="815" y="421" type="line"/>
      <point x="121" y="421" type="line"/>
      <point x="110" y="378"/>
      <point x="103" y="325"/>
      <point x="103" y="283" type="curve" smooth="yes"/>
      <point x="103" y="95"/>
      <point x="231" y="-24"/>
    </contour>
  </outline>
</glyph>
<glyph name="Uhorn" format="2">
  <advance width="1133"/>
  <unicode hex="01AF"/>
  <outline>
    <contour>
      <point x="519" y="-25" type="curve" smooth="yes"/>
      <point x="727" y="-25"/>
      <point x="863" y="58"/>
      <point x="899" y="286" type="curve" smooth="yes"/>
      <point x="938" y="535" type="line" smooth="yes"/>
      <point x="943" y="564"/>
      <point x="968" y="569"/>
      <point x="1014" y="574" type="curve" smooth="yes"/>
      <point x="1154" y="591"/>
      <point x="1236" y="657"/>
      <point x="1261" y="888" type="curve"/>
      <point x="1092" y="888" type="line"/>
      <point x="1061" y="726"/>
      <point x="1035" y="710"/>
      <point x="868" y="710" type="curve" smooth="yes"/>
      <point x="746" y="710" type="line"/>
      <point x="723" y="565" type="line"/>
      <point x="758" y="565" type="line" smooth="yes"/>
      <point x="794" y="565"/>
      <point x="789" y="560"/>
      <point x="788" y="551" type="curve" smooth="yes"/>
      <point x="757" y="346" type="line" smooth="yes"/>
      <point x="733" y="188"/>
      <point x="674" y="137"/>
      <point x="568" y="137" type="curve" smooth="yes"/>
      <point x="477" y="137"/>
      <point x="434" y="173"/>
      <point x="434" y="249" type="curve" smooth="yes"/>
      <point x="434" y="288"/>
      <point x="439" y="320"/>
      <point x="444" y="346" type="curve" smooth="yes"/>
      <point x="475" y="552" type="line" smooth="yes"/>
      <point x="476" y="561"/>
      <point x="494" y="565"/>
      <point x="526" y="565" type="curve" smooth="yes"/>
      <point x="544" y="565" type="line"/>
      <point x="567" y="710" type="line"/>
      <point x="146" y="710" type="line"/>
      <point x="123" y="565" type="line"/>
      <point x="148" y="565" type="line" smooth="yes"/>
      <point x="178" y="565"/>
      <point x="197" y="553"/>
      <point x="194" y="535" type="curve" smooth="yes"/>
      <point x="166" y="349" type="line" smooth="yes"/>
      <point x="157" y="290"/>
      <point x="154" y="260"/>
      <point x="154" y="232" type="curve" smooth="yes"/>
      <point x="154" y="60"/>
      <point x="311" y="-25"/>
    </contour>
  </outline>
</glyph>
<glyph name="Yhook" format="2">
  <advance width="973"/>
  <unicode hex="01B3"/>
  <outline>
    <contour>
      <point x="939" y="719" type="curve" smooth="yes"/>
      <point x="867" y="719.0"/>
      <point x="818" y="699"/>
      <point x="746" y="610" type="curve" smooth="yes"/>
      <point x="532" y="343" type="line"/>
      <point x="580" y="357" type="line"/>
      <point x="457" y="554" type="line"/>
      <point x="458" y="561"/>
      <point x="476" y="565"/>
      <point x="529" y="565" type="curve" smooth="yes"/>
      <point x="542" y="565" type="line"/>
      <point x="565" y="710" type="line"/>
      <point x="142" y="710" type="line"/>
      <point x="119" y="565" type="line"/>
      <point x="124" y="565" type="line" smooth="yes"/>
      <point x="158" y="565"/>
      <point x="170" y="540"/>
      <point x="196" y="498" type="curve" smooth="yes"/>
      <point x="366" y="227" type="line"/>
      <point x="355" y="300" type="line"/>
      <point x="336" y="181" type="line" smooth="yes"/>
      <point x="331" y="152"/>
      <point x="297" y="145"/>
      <point x="261" y="145" type="curve" smooth="yes"/>
      <point x="238" y="145" type="line"/>
      <point x="214" y="0" type="line"/>
      <point x="675" y="0" type="line"/>
      <point x="699" y="145" type="line"/>
      <point x="675" y="145" type="line" smooth="yes"/>
      <point x="640" y="145"/>
      <point x="610" y="152"/>
      <point x="615" y="181" type="curve" smooth="yes"/>
      <point x="630" y="279" type="line"/>
      <point x="586" y="215" type="line"/>
      <point x="822" y="497" type="line" smooth="yes"/>
      <point x="865" y="548"/>
      <point x="874.0" y="556.0"/>
      <point x="889" y="556" type="curve" smooth="yes"/>
      <point x="904.0" y="556.0"/>
      <point x="909.0" y="547"/>
      <point x="909" y="531" type="curve" smooth="yes"/>
      <point x="909.0" y="503"/>
      <point x="889.0" y="461"/>
      <point x="873" y="438" type="curve"/>
      <point x="1039" y="438" type="line"/>
      <point x="1062.0" y="474"/>
      <point x="1084.0" y="534"/>
      <point x="1084" y="581" type="curve" smooth="yes"/>
      <point x="1084.0" y="674"/>
      <point x="1028.0" y="719.0"/>
    </contour>
  </outline>
</glyph>
<glyph name="yhook" format="2">
  <advance width="827"/>
  <unicode hex="01B4"/>
  <outline>
    <contour>
      <point x="33" y="-72" type="curve"/>
      <point x="8" y="-229" type="line"/>
      <point x="33" y="-241"/>
      <point x="89" y="-254"/>
      <point x="158" y="-254" type="curve" smooth="yes"/>
      <point x="350" y="-254"/>
      <point x="435" y="-173"/>
      <point x="545" y="0" type="curve" smooth="yes"/>
      <point x="627" y="129"/>
      <point x="748" y="336"/>
      <point x="865" y="531.0" type="curve" smooth="yes"/>
      <point x="899" y="587"/>
      <point x="924" y="608.0"/>
      <point x="962" y="608.0" type="curve" smooth="yes"/>
      <point x="985" y="608.0"/>
      <point x="1008" y="603.0"/>
      <point x="1019" y="599.0" type="curve"/>
      <point x="1051" y="776.0" type="line"/>
      <point x="1041" y="779.0"/>
      <point x="1012" y="785.0"/>
      <point x="985" y="785.0" type="curve" smooth="yes"/>
      <point x="882" y="785.0"/>
      <point x="829" y="763"/>
      <point x="753" y="623.0" type="curve" smooth="yes"/>
      <point x="664" y="460"/>
      <point x="573" y="288"/>
      <point x="486" y="120" type="curve"/>
      <point x="420" y="55" type="line"/>
      <point x="372" y="-51"/>
      <point x="299" y="-95"/>
      <point x="176" y="-95" type="curve" smooth="yes"/>
      <point x="111" y="-95"/>
      <point x="58" y="-83"/>
    </contour>
    <contour>
      <point x="191" y="392" type="curve" smooth="yes"/>
      <point x="371" y="-45" type="line"/>
      <point x="543" y="72" type="line"/>
      <point x="549" y="149" type="line"/>
      <point x="399" y="572" type="line"/>
      <point x="128" y="572" type="line"/>
      <point x="102" y="436" type="line"/>
      <point x="123" y="433" type="line" smooth="yes"/>
      <point x="163" y="427"/>
      <point x="179" y="420"/>
    </contour>
  </outline>
</glyph>
<glyph name="icaron" format="2">
  <advance width="470"/>
  <unicode hex="01D0"/>
  <outline>
    <contour>
      <point x="243" y="618" type="line"/>
      <point x="115" y="807" type="line"/>
      <point x="126" y="870" type="line"/>
      <point x="219" y="870" type="line"/>
      <point x="393" y="761" type="line"/>
      <point x="334" y="759" type="line"/>
      <point x="502" y="870" type="line"/>
      <point x="616" y="870" type="line"/>
      <point x="605" y="807" type="line"/>
      <point x="416" y="618" type="line"/>
    </contour>
    <component base="dotlessi"/>
  </outline>
</glyph>
<glyph name="iinvertedbreve" format="2">
  <advance width="470"/>
  <unicode hex="020B"/>
  <outline>
    <contour>
      <point x="360" y="843" type="curve" smooth="yes"/>
      <point x="505" y="843"/>
      <point x="586" y="773"/>
      <point x="586" y="657" type="curve" smooth="yes"/>
      <point x="586" y="645"/>
      <point x="585" y="633"/>
      <point x="584" y="621" type="curve"/>
      <point x="450" y="621" type="line"/>
      <point x="446" y="675"/>
      <point x="411" y="696"/>
      <point x="343" y="696" type="curve" smooth="yes"/>
      <point x="275" y="696"/>
      <point x="236" y="675"/>
      <point x="213" y="621" type="curve"/>
      <point x="82" y="621" type="line"/>
      <point x="115" y="768"/>
      <point x="198" y="843"/>
    </contour>
    <component base="dotlessi"/>
  </outline>
</glyph>
<glyph name="dhook" format="2">
  <advance width="873"/>
  <unicode hex="0257"/>
  <outline>
    <contour>
      <point x="328" y="-12" type="curve" smooth="yes"/>
      <point x="440" y="-12"/>
      <point x="525" y="51"/>
      <point x="596" y="200" type="curve"/>
      <point x="587" y="242" type="line"/>
      <point x="531" y="183"/>
      <point x="496" y="163"/>
      <point x="439" y="163" type="curve" smooth="yes"/>
      <point x="372" y="163"/>
      <point x="335" y="202"/>
      <point x="335" y="276" type="curve" smooth="yes"/>
      <point x="335" y="362"/>
      <point x="388" y="415"/>
      <point x="453" y="415" type="curve" smooth="yes"/>
      <point x="534" y="415"/>
      <point x="562" y="374"/>
      <point x="591" y="337" type="curve"/>
      <point x="618" y="367" type="line"/>
      <point x="597" y="506"/>
      <point x="521" y="583"/>
      <point x="387" y="583" type="curve" smooth="yes"/>
      <point x="184" y="583"/>
      <point x="79" y="423"/>
      <point x="79" y="255" type="curve" smooth="yes"/>
      <point x="79" y="74"/>
      <point x="194" y="-12"/>
    </contour>
    <contour>
      <point x="598" y="544.0" type="curve" smooth="yes"/>
      <point x="536" y="154" type="line"/>
      <point x="550" y="153" type="line"/>
      <point x="549" y="144"/>
      <point x="546" y="130"/>
      <point x="546" y="115" type="curve" smooth="yes"/>
      <point x="546" y="34"/>
      <point x="582" y="0"/>
      <point x="676" y="0" type="curve" smooth="yes"/>
      <point x="739" y="0"/>
      <point x="777" y="0"/>
      <point x="847" y="0" type="curve"/>
      <point x="868" y="130" type="line"/>
      <point x="854" y="130"/>
      <point x="844" y="130"/>
      <point x="837" y="130" type="curve" smooth="yes"/>
      <point x="813" y="130"/>
      <point x="801" y="142"/>
      <point x="801" y="163" type="curve" smooth="yes"/>
      <point x="801" y="176"/>
      <point x="806" y="211"/>
      <point x="818" y="282" type="curve" smooth="yes"/>
      <point x="861" y="543.0" type="line" smooth="yes"/>
      <point x="877.7272727272727" y="620.3636363636364"/>
      <point x="892.5959595959596" y="635.0"/>
      <point x="953" y="635.0" type="curve" smooth="yes"/>
      <point x="976" y="635.0"/>
      <point x="1010" y="630.0"/>
      <point x="1025" y="627.0" type="curve"/>
      <point x="1049" y="772.0" type="line"/>
      <point x="1030.381818181818" y="776.0"/>
      <point x="986" y="785.0"/>
      <point x="921" y="785.0" type="curve" smooth="yes"/>
      <point x="728.761329305136" y="785.0"/>
      <point x="626" y="722"/>
    </contour>
  </outline>
</glyph>
<glyph name="verticallinemod" format="2">
  <advance width="582"/>
  <unicode hex="02C8"/>
  <outline>
    <contour>
      <point x="324" y="477" type="line"/>
      <point x="453" y="477" type="line"/>
      <point x="453" y="750" type="line"/>
      <point x="324" y="750" type="line"/>
    </contour>
  </outline>
</glyph>
<glyph name="breve" format="2">
  <advance width="491"/>
  <unicode hex="02D8"/>
  <outline>
    <contour>
      <point x="365" y="621" type="curve" smooth="yes"/>
      <point x="207" y="621"/>
      <point x="112" y="694"/>
      <point x="112" y="813" type="curve" smooth="yes"/>
      <point x="112" y="823"/>
      <point x="113" y="833"/>
      <point x="114" y="843" type="curve"/>
      <point x="250" y="843" type="line"/>
      <point x="254" y="789"/>
      <point x="300" y="768"/>
      <point x="373" y="768" type="curve" smooth="yes"/>
      <point x="445" y="768"/>
      <point x="491" y="789"/>
      <point x="514" y="843" type="curve"/>
      <point x="645" y="843" type="line"/>
      <point x="612" y="686"/>
      <point x="526" y="621"/>
    </contour>
  </outline>
</glyph>
<glyph name="ring" format="2">
  <advance width="371"/>
  <unicode hex="02DA"/>
  <outline>
    <contour>
      <point x="312" y="818" type="curve" smooth="yes"/>
      <point x="359" y="818"/>
      <point x="381" y="795"/>
      <point x="381" y="762" type="curve" smooth="yes"/>
      <point x="381" y="723"/>
      <point x="349" y="703"/>
      <point x="300" y="703" type="curve" smooth="yes"/>
      <point x="253" y="703"/>
      <point x="231" y="726"/>
      <point x="231" y="759" type="curve" smooth="yes"/>
      <point x="231" y="798"/>
      <point x="263" y="818"/>
    </contour>
    <contour>
      <point x="492" y="776" type="curve" smooth="yes"/>
      <point x="492" y="849"/>
      <point x="431" y="910"/>
      <point x="321" y="910" type="curve" smooth="yes"/>
      <point x="211" y="910"/>
      <point x="120" y="857"/>
      <point x="120" y="745" type="curve" smooth="yes"/>
      <point x="120" y="672"/>
      <point x="181" y="610"/>
      <point x="291" y="610" type="curve" smooth="yes"/>
      <point x="401" y="610"/>
      <point x="492" y="664"/>
    </contour>
  </outline>
</glyph>
<glyph name="Delta" format="2">
  <advance width="988"/>
  <unicode hex="0394"/>
  <outline>
    <contour>
      <point x="80" y="0" type="line"/>
      <point x="908" y="0" type="line"/>
      <point x="936" y="175" type="line"/>
      <point x="729" y="710" type="line"/>
      <point x="525" y="710" type="line"/>
      <point x="108" y="175" type="line"/>
    </contour>
    <contour>
      <point x="674" y="174" type="line"/>
      <point x="809" y="181" type="line"/>
      <point x="220" y="181" type="line"/>
      <point x="255" y="153" type="line"/>
      <point x="609" y="606" type="line"/>
      <point x="540" y="549" type="line"/>
    </contour>
  </outline>
</glyph>
<glyph name="Eukrcyr" format="2">
  <advance width="994"/>
  <unicode hex="0404"/>
  <guideline x="211" y="787" angle="90" identifier="mFTeE97JTj"/>
  <outline>
    <contour>
      <point x="265" y="421" type="curve"/>
      <point x="236" y="314" type="line"/>
      <point x="397" y="301"/>
      <point x="537" y="289"/>
      <point x="660" y="278" type="curve"/>
      <point x="689" y="453" type="line"/>
      <point x="558" y="442"/>
      <point x="411" y="431"/>
    </contour>
    <contour>
      <point x="599" y="127" type="curve" smooth="yes"/>
      <point x="482" y="127"/>
      <point x="405" y="185"/>
      <point x="405" y="326" type="curve" smooth="yes"/>
      <point x="405" y="440"/>
      <point x="445" y="574"/>
      <point x="614" y="574" type="curve" smooth="yes"/>
      <point x="706" y="574"/>
      <point x="749" y="542"/>
      <point x="769" y="479" type="curve"/>
      <point x="952" y="479" type="line"/>
      <point x="990" y="720" type="line"/>
      <point x="844" y="720" type="line"/>
      <point x="800" y="552" type="line"/>
      <point x="845" y="550" type="line"/>
      <point x="837" y="620"/>
      <point x="768" y="735"/>
      <point x="574" y="735" type="curve" smooth="yes"/>
      <point x="256" y="735"/>
      <point x="109" y="542"/>
      <point x="109" y="309" type="curve" smooth="yes"/>
      <point x="109" y="92"/>
      <point x="282" y="-25"/>
      <point x="525" y="-25" type="curve" smooth="yes"/>
      <point x="754" y="-25"/>
      <point x="881" y="60"/>
      <point x="950" y="200" type="curve"/>
      <point x="815" y="271" type="line"/>
      <point x="762" y="175"/>
      <point x="694" y="127"/>
    </contour>
  </outline>
</glyph>
<glyph name="Njecyr" format="2">
  <advance width="1409"/>
  <unicode hex="040A"/>
  <outline>
    <contour>
      <point x="315" y="458" type="line"/>
      <point x="292" y="318" type="line"/>
      <point x="803" y="318" type="line"/>
      <point x="826" y="458" type="line"/>
    </contour>
    <contour>
      <point x="46" y="0" type="line"/>
      <point x="467" y="0" type="line"/>
      <point x="491" y="145" type="line"/>
      <point x="475" y="145" type="line" smooth="yes"/>
      <point x="446" y="145"/>
      <point x="425" y="148"/>
      <point x="427" y="158" type="curve" smooth="yes"/>
      <point x="488" y="552" type="line" smooth="yes"/>
      <point x="490" y="562"/>
      <point x="510" y="565"/>
      <point x="540" y="565" type="curve" smooth="yes"/>
      <point x="557" y="565" type="line"/>
      <point x="580" y="710" type="line"/>
      <point x="159" y="710" type="line"/>
      <point x="136" y="565" type="line"/>
      <point x="161" y="565" type="line" smooth="yes"/>
      <point x="191" y="565"/>
      <point x="210" y="553"/>
      <point x="207" y="535" type="curve" smooth="yes"/>
      <point x="151" y="175" type="line" smooth="yes"/>
      <point x="148" y="155"/>
      <point x="126" y="145"/>
      <point x="96" y="145" type="curve" smooth="yes"/>
      <point x="70" y="145" type="line"/>
    </contour>
    <contour>
      <point x="1123" y="0" type="line" smooth="yes"/>
      <point x="1310" y="0"/>
      <point x="1442" y="83"/>
      <point x="1442" y="245" type="curve" smooth="yes"/>
      <point x="1442" y="382"/>
      <point x="1355" y="458"/>
      <point x="1127" y="458" type="curve" smooth="yes"/>
      <point x="833" y="458" type="line"/>
      <point x="810" y="318" type="line"/>
      <point x="1050" y="318" type="line" smooth="yes"/>
      <point x="1146" y="318"/>
      <point x="1170" y="284"/>
      <point x="1170" y="239" type="curve" smooth="yes"/>
      <point x="1170" y="186"/>
      <point x="1144" y="136"/>
      <point x="1052" y="136" type="curve" smooth="yes"/>
      <point x="930" y="136" type="line"/>
      <point x="993" y="536" type="line" smooth="yes"/>
      <point x="996" y="553"/>
      <point x="1016" y="565"/>
      <point x="1047" y="565" type="curve" smooth="yes"/>
      <point x="1064" y="565" type="line"/>
      <point x="1087" y="710" type="line"/>
      <point x="676" y="710" type="line"/>
      <point x="653" y="565" type="line"/>
      <point x="669" y="565" type="line" smooth="yes"/>
      <point x="705" y="565"/>
      <point x="718" y="561"/>
      <point x="717" y="552" type="curve" smooth="yes"/>
      <point x="656" y="158" type="line" smooth="yes"/>
      <point x="654" y="148"/>
      <point x="633" y="145"/>
      <point x="603" y="145" type="curve" smooth="yes"/>
      <point x="587" y="145" type="line"/>
      <point x="563" y="0" type="line"/>
    </contour>
  </outline>
</glyph>
<glyph name="Dzhecyr" format="2">
  <advance width="1051"/>
  <unicode hex="040F"/>
  <outline>
    <contour>
      <point x="291" y="0" type="line"/>
      <point x="345" y="0" type="line" smooth="yes"/>
      <point x="401" y="0"/>
      <point x="423" y="-8"/>
      <point x="417" y="-56" type="curve" smooth="yes"/>
      <point x="401" y="-189" type="line"/>
      <point x="579" y="-189" type="line"/>
      <point x="609" y="-56" type="line" smooth="yes"/>
      <point x="620" y="-6"/>
      <point x="649" y="0"/>
      <point x="709" y="0" type="curve" smooth="yes"/>
      <point x="743" y="0" type="line"/>
      <point x="768" y="140" type="line"/>
      <point x="316" y="140" type="line"/>
    </contour>
    <contour>
      <point x="46" y="0" type="line"/>
      <point x="401" y="0" type="line"/>
      <point x="488" y="552" type="line" smooth="yes"/>
      <point x="490" y="562"/>
      <point x="510" y="565"/>
      <point x="540" y="565" type="curve" smooth="yes"/>
      <point x="557" y="565" type="line"/>
      <point x="580" y="710" type="line"/>
      <point x="159" y="710" type="line"/>
      <point x="136" y="565" type="line"/>
      <point x="161" y="565" type="line" smooth="yes"/>
      <point x="191" y="565"/>
      <point x="210" y="553"/>
      <point x="207" y="535" type="curve" smooth="yes"/>
      <point x="151" y="175" type="line" smooth="yes"/>
      <point x="148" y="155"/>
      <point x="126" y="145"/>
      <point x="96" y="145" type="curve" smooth="yes"/>
      <point x="70" y="145" type="line"/>
    </contour>
    <contour>
      <point x="994" y="0" type="line"/>
      <point x="1018" y="145" type="line"/>
      <point x="993" y="145" type="line" smooth="yes"/>
      <point x="963" y="145"/>
      <point x="944" y="157"/>
      <point x="947" y="175" type="curve" smooth="yes"/>
      <point x="1003" y="535" type="line" smooth="yes"/>
      <point x="1006" y="555"/>
      <point x="1028" y="565"/>
      <point x="1058" y="565" type="curve" smooth="yes"/>
      <point x="1084" y="565" type="line"/>
      <point x="1107" y="710" type="line"/>
      <point x="686" y="710" type="line"/>
      <point x="663" y="565" type="line"/>
      <point x="679" y="565" type="line" smooth="yes"/>
      <point x="708" y="565"/>
      <point x="729" y="562"/>
      <point x="727" y="552" type="curve" smooth="yes"/>
      <point x="640" y="0" type="line"/>
    </contour>
  </outline>
</glyph>
<glyph name="Becyr" format="2">
  <advance width="932"/>
  <unicode hex="0411"/>
  <outline>
    <contour>
      <point x="942" y="710" type="line"/>
      <point x="159" y="710" type="line"/>
      <point x="136" y="565" type="line"/>
      <point x="161" y="565" type="line" smooth="yes"/>
      <point x="192" y="565"/>
      <point x="210" y="552"/>
      <point x="207" y="535" type="curve" smooth="yes"/>
      <point x="151" y="175" type="line" smooth="yes"/>
      <point x="147" y="153"/>
      <point x="126" y="145"/>
      <point x="96" y="145" type="curve" smooth="yes"/>
      <point x="70" y="145" type="line"/>
      <point x="46" y="0" type="line"/>
      <point x="616" y="0" type="line" smooth="yes"/>
      <point x="803" y="0"/>
      <point x="935" y="80"/>
      <point x="935" y="238" type="curve" smooth="yes"/>
      <point x="935" y="365"/>
      <point x="847" y="433"/>
      <point x="616" y="433" type="curve" smooth="yes"/>
      <point x="322" y="433" type="line"/>
      <point x="290" y="297" type="line"/>
      <point x="536" y="297" type="line" smooth="yes"/>
      <point x="638" y="297"/>
      <point x="663" y="267"/>
      <point x="663" y="222" type="curve" smooth="yes"/>
      <point x="663" y="186"/>
      <point x="633" y="136"/>
      <point x="545" y="136" type="curve" smooth="yes"/>
      <point x="423" y="136" type="line"/>
      <point x="491" y="572" type="line"/>
      <point x="621" y="572" type="line" smooth="yes"/>
      <point x="707" y="572"/>
      <point x="717" y="566"/>
      <point x="717" y="498" type="curve" smooth="yes"/>
      <point x="717" y="480" type="line"/>
      <point x="906" y="480" type="line"/>
    </contour>
  </outline>
</glyph>
<glyph name="Icyr" format="2">
  <advance width="1061"/>
  <unicode hex="0418"/>
  <guideline x="739" y="930" angle="90" identifier="jpSOnFR6u4"/>
  <outline>
    <contour>
      <point x="330" y="283" type="line"/>
      <point x="397" y="181" type="line"/>
      <point x="853" y="434" type="line"/>
      <point x="786" y="536" type="line"/>
    </contour>
    <contour>
      <point x="46" y="0" type="line"/>
      <point x="467" y="0" type="line"/>
      <point x="491" y="145" type="line"/>
      <point x="475" y="145" type="line" smooth="yes"/>
      <point x="446" y="145"/>
      <point x="425" y="148"/>
      <point x="427" y="158" type="curve" smooth="yes"/>
      <point x="488" y="552" type="line" smooth="yes"/>
      <point x="490" y="562"/>
      <point x="510" y="565"/>
      <point x="540" y="565" type="curve" smooth="yes"/>
      <point x="557" y="565" type="line"/>
      <point x="580" y="710" type="line"/>
      <point x="159" y="710" type="line"/>
      <point x="136" y="565" type="line"/>
      <point x="161" y="565" type="line" smooth="yes"/>
      <point x="191" y="565"/>
      <point x="210" y="553"/>
      <point x="207" y="535" type="curve" smooth="yes"/>
      <point x="151" y="175" type="line" smooth="yes"/>
      <point x="148" y="155"/>
      <point x="126" y="145"/>
      <point x="96" y="145" type="curve" smooth="yes"/>
      <point x="70" y="145" type="line"/>
    </contour>
    <contour>
      <point x="593" y="0" type="line"/>
      <point x="1014" y="0" type="line"/>
      <point x="1038" y="145" type="line"/>
      <point x="1013" y="145" type="line" smooth="yes"/>
      <point x="983" y="145"/>
      <point x="964" y="157"/>
      <point x="967" y="175" type="curve" smooth="yes"/>
      <point x="1023" y="535" type="line" smooth="yes"/>
      <point x="1026" y="555"/>
      <point x="1048" y="565"/>
      <point x="1078" y="565" type="curve" smooth="yes"/>
      <point x="1104" y="565" type="line"/>
      <point x="1127" y="710" type="line"/>
      <point x="706" y="710" type="line"/>
      <point x="683" y="565" type="line"/>
      <point x="699" y="565" type="line" smooth="yes"/>
      <point x="728" y="565"/>
      <point x="749" y="562"/>
      <point x="747" y="552" type="curve" smooth="yes"/>
      <point x="686" y="158" type="line" smooth="yes"/>
      <point x="684" y="148"/>
      <point x="664" y="145"/>
      <point x="634" y="145" type="curve" smooth="yes"/>
      <point x="617" y="145" type="line"/>
    </contour>
  </outline>
</glyph>
<glyph name="Checyr" format="2">
  <advance width="1011"/>
  <unicode hex="0427"/>
  <guideline x="1130" y="741" angle="90" identifier="nfCxFSb4p1"/>
  <guideline x="1130" y="741" angle="90" identifier="2XVA9XPjvS"/>
  <outline>
    <contour>
      <point x="194" y="468" type="line" smooth="yes"/>
      <point x="172" y="318"/>
      <point x="242" y="250"/>
      <point x="453" y="250" type="curve" smooth="yes"/>
      <point x="558" y="250"/>
      <point x="648" y="257"/>
      <point x="709" y="283" type="curve"/>
      <point x="730" y="411" type="line"/>
      <point x="677" y="387"/>
      <point x="625" y="382"/>
      <point x="586" y="382" type="curve" smooth="yes"/>
      <point x="491" y="382"/>
      <point x="465" y="410"/>
      <point x="479" y="509" type="curve" smooth="yes"/>
      <point x="485" y="552" type="line" smooth="yes"/>
      <point x="487" y="563"/>
      <point x="513" y="565"/>
      <point x="537" y="565" type="curve" smooth="yes"/>
      <point x="554" y="565" type="line"/>
      <point x="577" y="710" type="line"/>
      <point x="156" y="710" type="line"/>
      <point x="133" y="565" type="line"/>
      <point x="158" y="565" type="line" smooth="yes"/>
      <point x="179" y="565"/>
      <point x="208" y="559"/>
      <point x="204" y="535" type="curve" smooth="yes"/>
    </contour>
    <contour>
      <point x="550" y="0" type="line"/>
      <point x="971" y="0" type="line"/>
      <point x="995" y="145" type="line"/>
      <point x="970" y="145" type="line" smooth="yes"/>
      <point x="940" y="145"/>
      <point x="921" y="157"/>
      <point x="924" y="175" type="curve" smooth="yes"/>
      <point x="980" y="535" type="line" smooth="yes"/>
      <point x="983" y="555"/>
      <point x="1005" y="565"/>
      <point x="1035" y="565" type="curve" smooth="yes"/>
      <point x="1061" y="565" type="line"/>
      <point x="1084" y="710" type="line"/>
      <point x="663" y="710" type="line"/>
      <point x="640" y="565" type="line"/>
      <point x="656" y="565" type="line" smooth="yes"/>
      <point x="685" y="565"/>
      <point x="706" y="562"/>
      <point x="704" y="552" type="curve" smooth="yes"/>
      <point x="643" y="158" type="line" smooth="yes"/>
      <point x="641" y="148"/>
      <point x="621" y="145"/>
      <point x="591" y="145" type="curve" smooth="yes"/>
      <point x="574" y="145" type="line"/>
    </contour>
  </outline>
</glyph>
<glyph name="Shacyr" format="2">
  <advance width="1440"/>
  <unicode hex="0428"/>
  <outline>
    <contour>
      <point x="1168" y="0" type="line"/>
      <point x="1193" y="140" type="line"/>
      <point x="328" y="140" type="line"/>
      <point x="303" y="0" type="line"/>
    </contour>
    <contour>
      <point x="46" y="0" type="line"/>
      <point x="401" y="0" type="line"/>
      <point x="488" y="552" type="line" smooth="yes"/>
      <point x="490" y="562"/>
      <point x="508" y="565"/>
      <point x="535" y="565" type="curve" smooth="yes"/>
      <point x="552" y="565" type="line"/>
      <point x="575" y="710" type="line"/>
      <point x="159" y="710" type="line"/>
      <point x="136" y="565" type="line"/>
      <point x="161" y="565" type="line" smooth="yes"/>
      <point x="191" y="565"/>
      <point x="210" y="553"/>
      <point x="207" y="535" type="curve" smooth="yes"/>
      <point x="151" y="175" type="line" smooth="yes"/>
      <point x="148" y="155"/>
      <point x="126" y="145"/>
      <point x="96" y="145" type="curve" smooth="yes"/>
      <point x="70" y="145" type="line"/>
    </contour>
    <contour>
      <point x="1393" y="0" type="line"/>
      <point x="1417" y="145" type="line"/>
      <point x="1392" y="145" type="line" smooth="yes"/>
      <point x="1362" y="145"/>
      <point x="1343" y="157"/>
      <point x="1346" y="175" type="curve" smooth="yes"/>
      <point x="1402" y="535" type="line" smooth="yes"/>
      <point x="1405" y="555"/>
      <point x="1427" y="565"/>
      <point x="1457" y="565" type="curve" smooth="yes"/>
      <point x="1483" y="565" type="line"/>
      <point x="1506" y="710" type="line"/>
      <point x="1085" y="710" type="line"/>
      <point x="1062" y="565" type="line"/>
      <point x="1078" y="565" type="line" smooth="yes"/>
      <point x="1107" y="565"/>
      <point x="1128" y="562"/>
      <point x="1126" y="552" type="curve" smooth="yes"/>
      <point x="1039" y="0" type="line"/>
    </contour>
    <contour>
      <point x="859" y="0" type="line"/>
      <point x="946" y="552" type="line" smooth="yes"/>
      <point x="947" y="560"/>
      <point x="965" y="565"/>
      <point x="991" y="565" type="curve" smooth="yes"/>
      <point x="1010" y="565" type="line"/>
      <point x="1033" y="710" type="line"/>
      <point x="627" y="710" type="line"/>
      <point x="604" y="565" type="line"/>
      <point x="620" y="565" type="line" smooth="yes"/>
      <point x="649" y="565"/>
      <point x="670" y="562"/>
      <point x="668" y="552" type="curve" smooth="yes"/>
      <point x="581" y="0" type="line"/>
    </contour>
  </outline>
</glyph>
<glyph name="Shchacyr" format="2">
  <advance width="1446"/>
  <unicode hex="0429"/>
  <outline>
    <contour>
      <point x="1101" y="0" type="line" smooth="yes"/>
      <point x="1170" y="0"/>
      <point x="1203" y="-7"/>
      <point x="1204" y="-53" type="curve" smooth="yes"/>
      <point x="1206" y="-189" type="line"/>
      <point x="1384" y="-189" type="line"/>
      <point x="1436" y="140" type="line"/>
      <point x="1105" y="140" type="line"/>
      <point x="1075" y="0" type="line"/>
    </contour>
    <contour>
      <point x="1168" y="0" type="line"/>
      <point x="1193" y="140" type="line"/>
      <point x="328" y="140" type="line"/>
      <point x="303" y="0" type="line"/>
    </contour>
    <contour>
      <point x="46" y="0" type="line"/>
      <point x="401" y="0" type="line"/>
      <point x="488" y="552" type="line" smooth="yes"/>
      <point x="490" y="562"/>
      <point x="508" y="565"/>
      <point x="535" y="565" type="curve" smooth="yes"/>
      <point x="554" y="565" type="line"/>
      <point x="577" y="710" type="line"/>
      <point x="159" y="710" type="line"/>
      <point x="136" y="565" type="line"/>
      <point x="161" y="565" type="line" smooth="yes"/>
      <point x="191" y="565"/>
      <point x="210" y="553"/>
      <point x="207" y="535" type="curve" smooth="yes"/>
      <point x="151" y="175" type="line" smooth="yes"/>
      <point x="148" y="155"/>
      <point x="126" y="145"/>
      <point x="96" y="145" type="curve" smooth="yes"/>
      <point x="70" y="145" type="line"/>
    </contour>
    <contour>
      <point x="1317" y="0" type="line"/>
      <point x="1402" y="535" type="line" smooth="yes"/>
      <point x="1405" y="555"/>
      <point x="1427" y="565"/>
      <point x="1457" y="565" type="curve" smooth="yes"/>
      <point x="1483" y="565" type="line"/>
      <point x="1506" y="710" type="line"/>
      <point x="1083" y="710" type="line"/>
      <point x="1060" y="565" type="line"/>
      <point x="1078" y="565" type="line" smooth="yes"/>
      <point x="1107" y="565"/>
      <point x="1128" y="562"/>
      <point x="1126" y="552" type="curve" smooth="yes"/>
      <point x="1039" y="0" type="line"/>
    </contour>
    <contour>
      <point x="859" y="0" type="line"/>
      <point x="946" y="552" type="line" smooth="yes"/>
      <point x="947" y="560"/>
      <point x="965" y="565"/>
      <point x="991" y="565" type="curve" smooth="yes"/>
      <point x="1012" y="565" type="line"/>
      <point x="1035" y="710" type="line"/>
      <point x="625" y="710" type="line"/>
      <point x="602" y="565" type="line"/>
      <point x="620" y="565" type="line" smooth="yes"/>
      <point x="649" y="565"/>
      <point x="670" y="562"/>
      <point x="668" y="552" type="curve" smooth="yes"/>
      <point x="581" y="0" type="line"/>
    </contour>
  </outline>
</glyph>
<glyph name="Hardcyr" format="2">
  <advance width="1120"/>
  <unicode hex="042A"/>
  <outline>
    <contour>
      <point x="430" y="567" type="line"/>
      <point x="369" y="175" type="line" smooth="yes"/>
      <point x="366" y="153"/>
      <point x="344" y="145"/>
      <point x="314" y="145" type="curve" smooth="yes"/>
      <point x="288" y="145" type="line"/>
      <point x="264" y="0" type="line"/>
      <point x="834" y="0" type="line" smooth="yes"/>
      <point x="1021" y="0"/>
      <point x="1153" y="84"/>
      <point x="1153" y="248" type="curve" smooth="yes"/>
      <point x="1153" y="387"/>
      <point x="1066" y="463"/>
      <point x="837" y="463" type="curve" smooth="yes"/>
      <point x="543" y="463" type="line"/>
      <point x="514" y="327" type="line"/>
      <point x="760" y="327" type="line" smooth="yes"/>
      <point x="857" y="327"/>
      <point x="881" y="290"/>
      <point x="881" y="235" type="curve" smooth="yes"/>
      <point x="881" y="187"/>
      <point x="845" y="136"/>
      <point x="763" y="136" type="curve" smooth="yes"/>
      <point x="641" y="136" type="line"/>
      <point x="706" y="552" type="line" smooth="yes"/>
      <point x="707" y="561"/>
      <point x="726" y="565"/>
      <point x="758" y="565" type="curve" smooth="yes"/>
      <point x="775" y="565" type="line"/>
      <point x="798" y="710" type="line"/>
      <point x="157" y="710" type="line"/>
      <point x="108" y="398" type="line"/>
      <point x="265" y="398" type="line"/>
      <point x="300" y="518" type="line" smooth="yes"/>
      <point x="310" y="551"/>
      <point x="334" y="567"/>
      <point x="405" y="567" type="curve" smooth="yes"/>
    </contour>
  </outline>
</glyph>
<glyph name="Ylongcyr" format="2">
  <advance width="1391"/>
  <unicode hex="042B"/>
  <outline>
    <contour>
      <point x="923" y="0" type="line"/>
      <point x="1344" y="0" type="line"/>
      <point x="1368" y="145" type="line"/>
      <point x="1343" y="145" type="line" smooth="yes"/>
      <point x="1313" y="145"/>
      <point x="1294" y="157"/>
      <point x="1297" y="175" type="curve" smooth="yes"/>
      <point x="1353" y="535" type="line" smooth="yes"/>
      <point x="1356" y="555"/>
      <point x="1378" y="565"/>
      <point x="1408" y="565" type="curve" smooth="yes"/>
      <point x="1434" y="565" type="line"/>
      <point x="1457" y="710" type="line"/>
      <point x="1036" y="710" type="line"/>
      <point x="1013" y="565" type="line"/>
      <point x="1029" y="565" type="line" smooth="yes"/>
      <point x="1058" y="565"/>
      <point x="1079" y="562"/>
      <point x="1077" y="552" type="curve" smooth="yes"/>
      <point x="1016" y="158" type="line" smooth="yes"/>
      <point x="1014" y="148"/>
      <point x="994" y="145"/>
      <point x="964" y="145" type="curve" smooth="yes"/>
      <point x="947" y="145" type="line"/>
    </contour>
    <component base="Softcyr"/>
  </outline>
</glyph>
<glyph name="Ereversedcyr" format="2">
  <advance width="944"/>
  <unicode hex="042D"/>
  <guideline x="1149" y="753" angle="90" identifier="Ovo68woMtl"/>
  <guideline x="213" y="787" angle="90" identifier="vAARoAR0gU"/>
  <outline>
    <contour>
      <point x="771" y="417" type="line"/>
      <point x="653" y="429"/>
      <point x="562" y="439"/>
      <point x="413" y="453" type="curve"/>
      <point x="384" y="278" type="line"/>
      <point x="518" y="291"/>
      <point x="625" y="302"/>
      <point x="747" y="315" type="curve"/>
    </contour>
    <contour>
      <point x="534" y="-25" type="curve" smooth="yes"/>
      <point x="799" y="-25"/>
      <point x="952" y="160"/>
      <point x="952" y="401" type="curve" smooth="yes"/>
      <point x="952" y="609"/>
      <point x="806" y="735"/>
      <point x="596" y="735" type="curve" smooth="yes"/>
      <point x="430" y="735"/>
      <point x="333" y="657"/>
      <point x="289" y="552" type="curve"/>
      <point x="347" y="586" type="line"/>
      <point x="345" y="720" type="line"/>
      <point x="199" y="720" type="line"/>
      <point x="159" y="471" type="line"/>
      <point x="335" y="471" type="line"/>
      <point x="364" y="530"/>
      <point x="418" y="574"/>
      <point x="504" y="574" type="curve" smooth="yes"/>
      <point x="619" y="574"/>
      <point x="656" y="508"/>
      <point x="656" y="375" type="curve" smooth="yes"/>
      <point x="656" y="257"/>
      <point x="614" y="127"/>
      <point x="443" y="127" type="curve" smooth="yes"/>
      <point x="354" y="127"/>
      <point x="305" y="171"/>
      <point x="295" y="239" type="curve"/>
      <point x="110" y="239" type="line"/>
      <point x="70" y="-10" type="line"/>
      <point x="216" y="-10" type="line"/>
      <point x="260" y="158" type="line"/>
      <point x="207" y="158" type="line"/>
      <point x="228" y="82"/>
      <point x="304" y="-25"/>
    </contour>
  </outline>
</glyph>
<glyph name="Yacyr" format="2">
  <advance width="991"/>
  <unicode hex="042F"/>
  <outline>
    <contour>
      <point x="566" y="321" type="line"/>
      <point x="287" y="351" type="line"/>
      <point x="164" y="180" type="line" smooth="yes"/>
      <point x="142" y="149"/>
      <point x="114" y="145"/>
      <point x="56" y="145" type="curve" smooth="yes"/>
      <point x="37" y="145" type="line"/>
      <point x="13" y="0" type="line"/>
      <point x="336" y="0" type="line"/>
    </contour>
    <contour>
      <point x="492" y="710" type="line" smooth="yes"/>
      <point x="281" y="710"/>
      <point x="158" y="630"/>
      <point x="158" y="472" type="curve" smooth="yes"/>
      <point x="158" y="380"/>
      <point x="210" y="313"/>
      <point x="311" y="285" type="curve"/>
      <point x="347" y="268" type="line"/>
      <point x="368" y="264"/>
      <point x="390" y="259"/>
      <point x="414" y="259" type="curve" smooth="yes"/>
      <point x="701" y="259" type="line"/>
      <point x="728" y="392" type="line"/>
      <point x="565" y="392" type="line" smooth="yes"/>
      <point x="476" y="392"/>
      <point x="433" y="427"/>
      <point x="433" y="483" type="curve" smooth="yes"/>
      <point x="433" y="540"/>
      <point x="486" y="577"/>
      <point x="583" y="577" type="curve" smooth="yes"/>
      <point x="682" y="577" type="line"/>
      <point x="616" y="158" type="line" smooth="yes"/>
      <point x="614" y="148"/>
      <point x="592" y="145"/>
      <point x="564" y="145" type="curve" smooth="yes"/>
      <point x="547" y="145" type="line"/>
      <point x="523" y="0" type="line"/>
      <point x="944" y="0" type="line"/>
      <point x="968" y="145" type="line"/>
      <point x="943" y="145" type="line" smooth="yes"/>
      <point x="922" y="145"/>
      <point x="893" y="150"/>
      <point x="897" y="175" type="curve" smooth="yes"/>
      <point x="953" y="535" type="line" smooth="yes"/>
      <point x="956" y="557"/>
      <point x="979" y="565"/>
      <point x="1008" y="565" type="curve" smooth="yes"/>
      <point x="1034" y="565" type="line"/>
      <point x="1057" y="710" type="line"/>
    </contour>
  </outline>
</glyph>
<glyph name="becyr" format="2">
  <advance width="847"/>
  <unicode hex="0431"/>
  <outline>
    <contour>
      <point x="498" y="383" type="curve" smooth="yes"/>
      <point x="551" y="383"/>
      <point x="583" y="355"/>
      <point x="583" y="303" type="curve" smooth="yes"/>
      <point x="583" y="225"/>
      <point x="550" y="143"/>
      <point x="446" y="143" type="curve" smooth="yes"/>
      <point x="388" y="143"/>
      <point x="353" y="175"/>
      <point x="353" y="274" type="curve" smooth="yes"/>
      <point x="353" y="308"/>
      <point x="363" y="349"/>
      <point x="381" y="389" type="curve"/>
      <point x="341" y="389" type="line"/>
      <point x="357" y="554"/>
      <point x="413" y="593"/>
      <point x="533" y="597" type="curve" smooth="yes"/>
      <point x="836" y="609" type="line"/>
      <point x="864" y="786" type="line"/>
      <point x="561" y="774" type="line" smooth="yes"/>
      <point x="212" y="760"/>
      <point x="80" y="541"/>
      <point x="80" y="315" type="curve" smooth="yes"/>
      <point x="80" y="90"/>
      <point x="210" y="-12"/>
      <point x="454" y="-12" type="curve" smooth="yes"/>
      <point x="716" y="-12"/>
      <point x="856" y="119"/>
      <point x="856" y="305" type="curve" smooth="yes"/>
      <point x="856" y="479"/>
      <point x="750" y="543"/>
      <point x="618" y="543" type="curve" smooth="yes"/>
      <point x="472" y="543"/>
      <point x="360" y="455"/>
      <point x="300" y="347" type="curve"/>
      <point x="282" y="249" type="line"/>
      <point x="343" y="312"/>
      <point x="422" y="383"/>
    </contour>
  </outline>
</glyph>
<glyph name="vecyr" format="2">
  <advance width="827"/>
  <unicode hex="0432"/>
  <outline>
    <contour>
      <point x="448" y="105" type="curve" smooth="yes"/>
      <point x="378" y="105"/>
      <point x="353" y="144"/>
      <point x="353" y="209" type="curve" smooth="yes"/>
      <point x="353" y="384"/>
      <point x="407" y="466"/>
      <point x="496" y="466" type="curve" smooth="yes"/>
      <point x="541" y="466"/>
      <point x="549" y="445"/>
      <point x="549" y="427" type="curve" smooth="yes"/>
      <point x="549" y="376"/>
      <point x="512" y="357"/>
      <point x="457" y="357" type="curve" smooth="yes"/>
      <point x="285" y="357" type="line"/>
      <point x="254" y="252" type="line"/>
      <point x="440" y="252" type="line" smooth="yes"/>
      <point x="499" y="252"/>
      <point x="537" y="228"/>
      <point x="537" y="180" type="curve" smooth="yes"/>
      <point x="537" y="136"/>
      <point x="508" y="105"/>
    </contour>
    <contour>
      <point x="523" y="583" type="curve" smooth="yes"/>
      <point x="205" y="583"/>
      <point x="80" y="430"/>
      <point x="80" y="258" type="curve" smooth="yes"/>
      <point x="80" y="67"/>
      <point x="229" y="-12"/>
      <point x="443" y="-12" type="curve" smooth="yes"/>
      <point x="666" y="-12"/>
      <point x="820" y="50"/>
      <point x="820" y="165" type="curve" smooth="yes"/>
      <point x="820" y="265"/>
      <point x="698" y="296"/>
      <point x="569" y="296" type="curve"/>
      <point x="592" y="253" type="line"/>
      <point x="607" y="348" type="line"/>
      <point x="573" y="317" type="line"/>
      <point x="731" y="317"/>
      <point x="832" y="355"/>
      <point x="832" y="455" type="curve" smooth="yes"/>
      <point x="832" y="546"/>
      <point x="713" y="583"/>
    </contour>
  </outline>
</glyph>
<glyph name="decyr" format="2">
  <advance width="847"/>
  <unicode hex="0434"/>
  <outline>
    <contour>
      <point x="442" y="634" type="curve" smooth="yes"/>
      <point x="548" y="634"/>
      <point x="596" y="588"/>
      <point x="596" y="440" type="curve" smooth="yes"/>
      <point x="596" y="368"/>
      <point x="591" y="307"/>
      <point x="580" y="258" type="curve" smooth="yes"/>
      <point x="560" y="169"/>
      <point x="511" y="141"/>
      <point x="454" y="141" type="curve" smooth="yes"/>
      <point x="392" y="141"/>
      <point x="348" y="173"/>
      <point x="348" y="246" type="curve" smooth="yes"/>
      <point x="348" y="295"/>
      <point x="365" y="340"/>
      <point x="383" y="364" type="curve" smooth="yes"/>
      <point x="409" y="398"/>
      <point x="437" y="409"/>
      <point x="473" y="409" type="curve" smooth="yes"/>
      <point x="532" y="409"/>
      <point x="573" y="385"/>
      <point x="617" y="340" type="curve"/>
      <point x="638" y="458" type="line"/>
      <point x="594" y="515"/>
      <point x="534" y="557"/>
      <point x="417" y="557" type="curve" smooth="yes"/>
      <point x="217" y="557"/>
      <point x="81" y="449"/>
      <point x="81" y="262" type="curve" smooth="yes"/>
      <point x="81" y="90"/>
      <point x="195" y="-15"/>
      <point x="439" y="-15" type="curve" smooth="yes"/>
      <point x="706" y="-15"/>
      <point x="855" y="145"/>
      <point x="855" y="419" type="curve" smooth="yes"/>
      <point x="855" y="643"/>
      <point x="734" y="785"/>
      <point x="497" y="785" type="curve" smooth="yes"/>
      <point x="339" y="785"/>
      <point x="230" y="734"/>
      <point x="181" y="670" type="curve"/>
      <point x="296" y="592" type="line"/>
      <point x="312" y="606"/>
      <point x="370" y="634"/>
    </contour>
  </outline>
</glyph>
<glyph name="kacyr" format="2">
  <advance width="929"/>
  <unicode hex="043A"/>
  <guideline x="458" y="572" angle="90" identifier="lmgRx0QBdK"/>
  <guideline x="543" y="272" angle="0" identifier="qdHgBDPa7a"/>
  <outline>
    <contour>
      <point x="807" y="173" type="line" smooth="yes"/>
      <point x="831" y="135"/>
      <point x="841" y="130"/>
      <point x="881" y="130" type="curve" smooth="yes"/>
      <point x="903" y="130"/>
      <point x="904" y="130"/>
      <point x="922" y="130" type="curve"/>
      <point x="901" y="0" type="line"/>
      <point x="833" y="0"/>
      <point x="765" y="0"/>
      <point x="697" y="0" type="curve" smooth="yes"/>
      <point x="623" y="0"/>
      <point x="591" y="11"/>
      <point x="563" y="59" type="curve" smooth="yes"/>
      <point x="443" y="266" type="line"/>
      <point x="453" y="313" type="line"/>
      <point x="529" y="395"/>
      <point x="617" y="490"/>
      <point x="693" y="572" type="curve"/>
      <point x="974" y="572" type="line"/>
      <point x="974" y="547" type="line"/>
      <point x="862" y="482"/>
      <point x="746" y="415"/>
      <point x="617" y="340" type="curve"/>
      <point x="664" y="406" type="line"/>
    </contour>
    <contour>
      <point x="108" y="0" type="line"/>
      <point x="176" y="410" type="line" smooth="yes"/>
      <point x="178" y="420"/>
      <point x="168" y="424"/>
      <point x="127" y="430" type="curve" smooth="yes"/>
      <point x="113" y="432" type="line"/>
      <point x="136" y="572" type="line"/>
      <point x="467" y="572" type="line"/>
      <point x="373" y="0" type="line"/>
    </contour>
  </outline>
</glyph>
<glyph name="elcyr" format="2">
  <advance width="808"/>
  <unicode hex="043B"/>
  <outline>
    <contour>
      <point x="227" y="311" type="curve" smooth="yes"/>
      <point x="246" y="392" type="line" smooth="yes"/>
      <point x="252" y="419"/>
      <point x="247" y="426"/>
      <point x="229" y="428" type="curve" smooth="yes"/>
      <point x="198" y="432" type="line"/>
      <point x="221" y="572" type="line"/>
      <point x="438" y="572" type="line"/>
      <point x="361" y="238" type="line" smooth="yes"/>
      <point x="311" y="22"/>
      <point x="233" y="-15"/>
      <point x="114" y="-15" type="curve" smooth="yes"/>
      <point x="70" y="-15"/>
      <point x="41" y="-9"/>
      <point x="25" y="-5" type="curve"/>
      <point x="61" y="220" type="line"/>
      <point x="74" y="216"/>
      <point x="87" y="210"/>
      <point x="125" y="210" type="curve" smooth="yes"/>
      <point x="162" y="210"/>
      <point x="206" y="222"/>
    </contour>
    <contour>
      <point x="333" y="437" type="line"/>
      <point x="357" y="572" type="line"/>
      <point x="561" y="572" type="line"/>
      <point x="540" y="437" type="line"/>
    </contour>
    <contour>
      <point x="745" y="163" type="curve" smooth="yes"/>
      <point x="745" y="137"/>
      <point x="756" y="130"/>
      <point x="779" y="130" type="curve" smooth="yes"/>
      <point x="789" y="130"/>
      <point x="800" y="130"/>
      <point x="810" y="130" type="curve"/>
      <point x="789" y="0" type="line"/>
      <point x="729" y="0"/>
      <point x="669" y="0"/>
      <point x="609" y="0" type="curve" smooth="yes"/>
      <point x="524" y="0"/>
      <point x="473" y="30"/>
      <point x="473" y="103" type="curve" smooth="yes"/>
      <point x="473" y="141"/>
      <point x="481" y="181"/>
      <point x="492" y="251" type="curve" smooth="yes"/>
      <point x="543" y="572" type="line"/>
      <point x="806" y="572" type="line"/>
      <point x="760" y="271" type="line" smooth="yes"/>
      <point x="749" y="198"/>
      <point x="745" y="176"/>
    </contour>
  </outline>
</glyph>
<glyph name="emcyr" format="2">
  <advance width="1150"/>
  <unicode hex="043C"/>
  <outline>
    <contour>
      <point x="637" y="572" type="line"/>
      <point x="687" y="238" type="line"/>
      <point x="612" y="238" type="line"/>
      <point x="806" y="572" type="line"/>
      <point x="942" y="572" type="line"/>
      <point x="610" y="0" type="line"/>
      <point x="475" y="0" type="line"/>
      <point x="389" y="572" type="line"/>
    </contour>
    <contour>
      <point x="227" y="311" type="curve" smooth="yes"/>
      <point x="246" y="392" type="line" smooth="yes"/>
      <point x="252" y="419"/>
      <point x="247" y="426"/>
      <point x="229" y="428" type="curve" smooth="yes"/>
      <point x="198" y="432" type="line"/>
      <point x="221" y="572" type="line"/>
      <point x="438" y="572" type="line"/>
      <point x="361" y="238" type="line" smooth="yes"/>
      <point x="311" y="22"/>
      <point x="233" y="-15"/>
      <point x="114" y="-15" type="curve" smooth="yes"/>
      <point x="70" y="-15"/>
      <point x="42" y="-9"/>
      <point x="25" y="-5" type="curve"/>
      <point x="61" y="220" type="line"/>
      <point x="76" y="214"/>
      <point x="97" y="210"/>
      <point x="125" y="210" type="curve" smooth="yes"/>
      <point x="172" y="210"/>
      <point x="209" y="234"/>
    </contour>
    <contour>
      <point x="1087" y="160" type="curve" smooth="yes"/>
      <point x="1087" y="140"/>
      <point x="1096" y="130"/>
      <point x="1121" y="130" type="curve" smooth="yes"/>
      <point x="1131" y="130"/>
      <point x="1142" y="130"/>
      <point x="1152" y="130" type="curve"/>
      <point x="1131" y="0" type="line"/>
      <point x="1071" y="0"/>
      <point x="1011" y="0"/>
      <point x="951" y="0" type="curve" smooth="yes"/>
      <point x="866" y="0"/>
      <point x="815" y="28"/>
      <point x="815" y="104" type="curve" smooth="yes"/>
      <point x="815" y="131"/>
      <point x="823" y="181"/>
      <point x="834" y="251" type="curve" smooth="yes"/>
      <point x="885" y="572" type="line"/>
      <point x="1148" y="572" type="line"/>
      <point x="1102" y="271" type="line" smooth="yes"/>
      <point x="1091" y="198"/>
      <point x="1087" y="173"/>
    </contour>
  </outline>
</glyph>
<glyph name="encyr" format="2">
  <advance width="898"/>
  <unicode hex="043D"/>
  <outline>
    <contour>
      <point x="291" y="237" type="line"/>
      <point x="317" y="372" type="line"/>
      <point x="698" y="372" type="line"/>
      <point x="672" y="237" type="line"/>
    </contour>
    <contour>
      <point x="111" y="0" type="line"/>
      <point x="177" y="406" type="line" smooth="yes"/>
      <point x="179" y="418"/>
      <point x="172" y="423"/>
      <point x="130" y="429" type="curve" smooth="yes"/>
      <point x="108" y="432" type="line"/>
      <point x="131" y="572" type="line"/>
      <point x="468" y="572" type="line"/>
      <point x="374" y="0" type="line"/>
    </contour>
    <contour>
      <point x="838" y="161" type="curve" smooth="yes"/>
      <point x="838" y="137"/>
      <point x="849" y="130"/>
      <point x="872" y="130" type="curve" smooth="yes"/>
      <point x="882" y="130"/>
      <point x="893" y="130"/>
      <point x="903" y="130" type="curve"/>
      <point x="882" y="0" type="line"/>
      <point x="822" y="0"/>
      <point x="762" y="0"/>
      <point x="702" y="0" type="curve" smooth="yes"/>
      <point x="617" y="0"/>
      <point x="566" y="28"/>
      <point x="566" y="104" type="curve" smooth="yes"/>
      <point x="566" y="131"/>
      <point x="574" y="181"/>
      <point x="585" y="251" type="curve" smooth="yes"/>
      <point x="636" y="572" type="line"/>
      <point x="899" y="572" type="line"/>
      <point x="853" y="271" type="line" smooth="yes"/>
      <point x="842" y="198"/>
      <point x="838" y="174"/>
    </contour>
  </outline>
</glyph>
<glyph name="checyr" format="2">
  <advance width="840"/>
  <unicode hex="0447"/>
  <guideline x="862" y="515" angle="90" identifier="GGEFes61Q6"/>
  <outline>
    <contour>
      <point x="412" y="432" type="curve" smooth="yes"/>
      <point x="435" y="572" type="line"/>
      <point x="98" y="572" type="line"/>
      <point x="75" y="432" type="line"/>
      <point x="98" y="429" type="line" smooth="yes"/>
      <point x="138" y="424"/>
      <point x="146" y="418"/>
      <point x="144" y="406" type="curve" smooth="yes"/>
      <point x="135" y="353" type="line" smooth="yes"/>
      <point x="133" y="340"/>
      <point x="129" y="311"/>
      <point x="129" y="298" type="curve" smooth="yes"/>
      <point x="129" y="217"/>
      <point x="183" y="181"/>
      <point x="289" y="181" type="curve" smooth="yes"/>
      <point x="416" y="181"/>
      <point x="535" y="222"/>
      <point x="619" y="333" type="curve"/>
      <point x="604" y="397" type="line"/>
      <point x="538" y="345"/>
      <point x="497" y="338"/>
      <point x="456" y="338" type="curve" smooth="yes"/>
      <point x="420" y="338"/>
      <point x="406" y="354"/>
      <point x="406" y="381" type="curve" smooth="yes"/>
      <point x="406" y="388"/>
      <point x="407" y="396"/>
    </contour>
    <contour>
      <point x="784" y="163" type="curve" smooth="yes"/>
      <point x="784" y="176"/>
      <point x="788" y="198"/>
      <point x="799" y="271" type="curve" smooth="yes"/>
      <point x="845" y="572" type="line"/>
      <point x="582" y="572" type="line"/>
      <point x="531" y="251" type="line" smooth="yes"/>
      <point x="520" y="180"/>
      <point x="512" y="137"/>
      <point x="512" y="103" type="curve" smooth="yes"/>
      <point x="512" y="28"/>
      <point x="563" y="0"/>
      <point x="648" y="0" type="curve" smooth="yes"/>
      <point x="708" y="0"/>
      <point x="768" y="0"/>
      <point x="828" y="0" type="curve"/>
      <point x="849" y="130" type="line"/>
      <point x="839" y="130"/>
      <point x="828" y="130"/>
      <point x="818" y="130" type="curve" smooth="yes"/>
      <point x="788" y="130"/>
      <point x="784" y="143"/>
    </contour>
  </outline>
</glyph>
<glyph name="shacyr" format="2">
  <advance width="1335"/>
  <unicode hex="0448"/>
  <outline>
    <contour>
      <point x="418" y="253" type="curve" smooth="yes"/>
      <point x="478" y="572" type="line"/>
      <point x="138" y="572" type="line"/>
      <point x="115" y="432" type="line"/>
      <point x="137" y="429" type="line" smooth="yes"/>
      <point x="175" y="424"/>
      <point x="186" y="419"/>
      <point x="184" y="406" type="curve" smooth="yes"/>
      <point x="144" y="185" type="line" smooth="yes"/>
      <point x="139" y="161"/>
      <point x="139" y="142"/>
      <point x="139" y="126" type="curve" smooth="yes"/>
      <point x="139" y="48"/>
      <point x="193" y="-13"/>
      <point x="322" y="-13" type="curve" smooth="yes"/>
      <point x="468" y="-13"/>
      <point x="572" y="77"/>
      <point x="632" y="196" type="curve"/>
      <point x="625" y="268" type="line"/>
      <point x="569" y="199"/>
      <point x="521" y="177"/>
      <point x="471" y="177" type="curve" smooth="yes"/>
      <point x="437" y="177"/>
      <point x="415" y="189"/>
      <point x="415" y="221" type="curve" smooth="yes"/>
      <point x="415" y="226"/>
      <point x="416" y="244"/>
    </contour>
    <contour>
      <point x="1283" y="254" type="curve" smooth="yes"/>
      <point x="1342" y="572" type="line"/>
      <point x="1079" y="572" type="line"/>
      <point x="1005" y="173" type="line"/>
      <point x="1012" y="153" type="line"/>
      <point x="1011" y="144"/>
      <point x="1010" y="130"/>
      <point x="1010" y="115" type="curve" smooth="yes"/>
      <point x="1010" y="34"/>
      <point x="1056" y="0"/>
      <point x="1150" y="0" type="curve" smooth="yes"/>
      <point x="1213" y="0"/>
      <point x="1246" y="0"/>
      <point x="1316" y="0" type="curve"/>
      <point x="1337" y="130" type="line"/>
      <point x="1323" y="130"/>
      <point x="1314" y="130"/>
      <point x="1307" y="130" type="curve" smooth="yes"/>
      <point x="1280" y="130"/>
      <point x="1269" y="142"/>
      <point x="1269" y="160" type="curve" smooth="yes"/>
      <point x="1269" y="177"/>
      <point x="1272" y="194"/>
    </contour>
    <contour>
      <point x="851" y="253" type="curve" smooth="yes"/>
      <point x="911" y="572" type="line"/>
      <point x="646" y="572" type="line"/>
      <point x="577" y="185" type="line" smooth="yes"/>
      <point x="573" y="161"/>
      <point x="572" y="142"/>
      <point x="572" y="126" type="curve" smooth="yes"/>
      <point x="572" y="48"/>
      <point x="626" y="-13"/>
      <point x="755" y="-13" type="curve" smooth="yes"/>
      <point x="901" y="-13"/>
      <point x="1005" y="77"/>
      <point x="1065" y="196" type="curve"/>
      <point x="1058" y="268" type="line"/>
      <point x="1002" y="199"/>
      <point x="957" y="177"/>
      <point x="907" y="177" type="curve" smooth="yes"/>
      <point x="873" y="177"/>
      <point x="848" y="189"/>
      <point x="848" y="221" type="curve" smooth="yes"/>
      <point x="848" y="226"/>
      <point x="849" y="244"/>
    </contour>
  </outline>
</glyph>
<glyph name="hardcyr" format="2">
  <advance width="883"/>
  <unicode hex="044A"/>
  <outline>
    <contour>
      <point x="569" y="356" type="curve" smooth="yes"/>
      <point x="729" y="459" type="line"/>
      <point x="747" y="572" type="line"/>
      <point x="120" y="572" type="line"/>
      <point x="75" y="309" type="line"/>
      <point x="215" y="309" type="line"/>
      <point x="239" y="391" type="line" smooth="yes"/>
      <point x="254.3927561215" y="443.5919167485"/>
      <point x="299" y="447"/>
      <point x="353" y="447" type="curve" smooth="yes"/>
      <point x="510" y="447" type="line"/>
      <point x="559" y="515" type="line"/>
      <point x="380" y="400" type="line" smooth="yes"/>
      <point x="245.2923430995" y="313.455974617"/>
      <point x="185" y="260"/>
      <point x="185" y="166" type="curve" smooth="yes"/>
      <point x="185" y="77"/>
      <point x="265.7552870091" y="-14"/>
      <point x="515" y="-14" type="curve" smooth="yes"/>
      <point x="788" y="-14"/>
      <point x="894" y="79"/>
      <point x="894" y="210" type="curve" smooth="yes"/>
      <point x="894" y="308"/>
      <point x="820" y="382"/>
      <point x="622" y="382" type="curve" smooth="yes"/>
      <point x="439" y="382" type="line"/>
      <point x="325" y="247" type="line"/>
      <point x="515" y="247" type="line" smooth="yes"/>
      <point x="593" y="247"/>
      <point x="612" y="222"/>
      <point x="612" y="197" type="curve" smooth="yes"/>
      <point x="612" y="164"/>
      <point x="585" y="137"/>
      <point x="520" y="137" type="curve" smooth="yes"/>
      <point x="465" y="137"/>
      <point x="437" y="155"/>
      <point x="437" y="199" type="curve" smooth="yes"/>
      <point x="437" y="252"/>
      <point x="495" y="308"/>
    </contour>
  </outline>
</glyph>
<glyph name="softcyr" format="2">
  <advance width="825"/>
  <unicode hex="044C"/>
  <outline>
    <contour>
      <point x="476" y="-14" type="curve" smooth="yes"/>
      <point x="759" y="-14"/>
      <point x="843" y="85"/>
      <point x="843" y="197" type="curve" smooth="yes"/>
      <point x="843" y="318"/>
      <point x="740" y="378"/>
      <point x="519" y="378" type="curve" smooth="yes"/>
      <point x="394" y="378" type="line"/>
      <point x="374" y="243" type="line"/>
      <point x="469" y="243" type="line" smooth="yes"/>
      <point x="533" y="243"/>
      <point x="561" y="229"/>
      <point x="561" y="195" type="curve" smooth="yes"/>
      <point x="561" y="167"/>
      <point x="542" y="137"/>
      <point x="475" y="137" type="curve" smooth="yes"/>
      <point x="403" y="137"/>
      <point x="402" y="166"/>
      <point x="407" y="195" type="curve" smooth="yes"/>
      <point x="478" y="572" type="line"/>
      <point x="138" y="572" type="line"/>
      <point x="115" y="432" type="line"/>
      <point x="144" y="428" type="line" smooth="yes"/>
      <point x="182" y="424"/>
      <point x="186" y="415"/>
      <point x="184" y="406" type="curve" smooth="yes"/>
      <point x="153" y="233" type="line" smooth="yes"/>
      <point x="120" y="60"/>
      <point x="225" y="-14"/>
    </contour>
  </outline>
</glyph>
<glyph name="ereversedcyr" format="2">
  <advance width="755"/>
  <unicode hex="044D"/>
  <guideline x="179" y="548" angle="90" identifier="n4jm0tBg3Y"/>
  <guideline x="179" y="548" angle="90" identifier="mfF0xQhUKN"/>
  <outline>
    <contour>
      <point x="650" y="362" type="line"/>
      <point x="329" y="362" type="line"/>
      <point x="306" y="227" type="line"/>
      <point x="623" y="227" type="line"/>
    </contour>
    <contour>
      <point x="370" y="426" type="curve" smooth="yes"/>
      <point x="446" y="426"/>
      <point x="496" y="405"/>
      <point x="496" y="286" type="curve" smooth="yes"/>
      <point x="496" y="191.3916083916"/>
      <point x="446" y="123"/>
      <point x="335" y="123" type="curve" smooth="yes"/>
      <point x="284" y="123"/>
      <point x="251" y="132"/>
      <point x="223" y="150" type="curve"/>
      <point x="230" y="138"/>
      <point x="226.7639275557" y="69.1573816295"/>
      <point x="269" y="41" type="curve"/>
      <point x="293" y="194" type="line"/>
      <point x="109" y="194" type="line"/>
      <point x="84" y="34" type="line"/>
      <point x="127" y="16"/>
      <point x="217" y="-12"/>
      <point x="347" y="-12" type="curve" smooth="yes"/>
      <point x="631" y="-12"/>
      <point x="763" y="127"/>
      <point x="763" y="310" type="curve" smooth="yes"/>
      <point x="763" y="486"/>
      <point x="637" y="583"/>
      <point x="424" y="583" type="curve" smooth="yes"/>
      <point x="251" y="583"/>
      <point x="141" y="509"/>
      <point x="97" y="447" type="curve"/>
      <point x="212" y="369" type="line"/>
      <point x="242" y="394"/>
      <point x="298" y="426"/>
    </contour>
  </outline>
</glyph>
<glyph name="yucyr" format="2">
  <advance width="1247"/>
  <unicode hex="044E"/>
  <guideline x="648" y="487" angle="90" identifier="5WLHpa9SA0"/>
  <outline>
    <contour>
      <point x="291" y="237" type="line"/>
      <point x="317" y="372" type="line"/>
      <point x="698" y="372" type="line"/>
      <point x="672" y="237" type="line"/>
    </contour>
    <contour>
      <point x="111" y="0" type="line"/>
      <point x="177" y="406" type="line" smooth="yes"/>
      <point x="179" y="418"/>
      <point x="172" y="423"/>
      <point x="130" y="429" type="curve" smooth="yes"/>
      <point x="108" y="432" type="line"/>
      <point x="131" y="572" type="line"/>
      <point x="468" y="572" type="line"/>
      <point x="374" y="0" type="line"/>
    </contour>
    <contour>
      <point x="896" y="583" type="curve" smooth="yes"/>
      <point x="1131" y="583"/>
      <point x="1259" y="480"/>
      <point x="1259" y="307" type="curve" smooth="yes"/>
      <point x="1259" y="130"/>
      <point x="1121" y="-12"/>
      <point x="866" y="-12" type="curve" smooth="yes"/>
      <point x="632" y="-12"/>
      <point x="502" y="85"/>
      <point x="502" y="260" type="curve" smooth="yes"/>
      <point x="502" y="437"/>
      <point x="640" y="583"/>
    </contour>
    <contour>
      <point x="983" y="320" type="curve" smooth="yes"/>
      <point x="983" y="390"/>
      <point x="952" y="428"/>
      <point x="894" y="428" type="curve" smooth="yes"/>
      <point x="835" y="428"/>
      <point x="802" y="386"/>
      <point x="789" y="337" type="curve" smooth="yes"/>
      <point x="782" y="309"/>
      <point x="779" y="291"/>
      <point x="779" y="250" type="curve" smooth="yes"/>
      <point x="779" y="179"/>
      <point x="814" y="143"/>
      <point x="871" y="143" type="curve" smooth="yes"/>
      <point x="938" y="143"/>
      <point x="962" y="195"/>
      <point x="974" y="240" type="curve" smooth="yes"/>
      <point x="981" y="268"/>
      <point x="983" y="284"/>
    </contour>
  </outline>
</glyph>
<glyph name="yacyr" format="2">
  <advance width="862"/>
  <unicode hex="044F"/>
  <outline>
    <contour>
      <point x="220" y="267" type="line"/>
      <point x="168" y="193" type="line" smooth="yes"/>
      <point x="134.1579190523" y="144.8401155744"/>
      <point x="114.9" y="130"/>
      <point x="78" y="130" type="curve" smooth="yes"/>
      <point x="54" y="130" type="line"/>
      <point x="33" y="0" type="line"/>
      <point x="342" y="0" type="line"/>
      <point x="524" y="252" type="line"/>
    </contour>
    <contour>
      <point x="629" y="370" type="line"/>
      <point x="608" y="479"/>
      <point x="547.5660377358" y="583"/>
      <point x="369" y="583" type="curve" smooth="yes"/>
      <point x="187" y="583"/>
      <point x="112" y="493"/>
      <point x="112" y="375" type="curve" smooth="yes"/>
      <point x="112" y="252"/>
      <point x="216" y="192"/>
      <point x="367" y="192" type="curve" smooth="yes"/>
      <point x="438" y="192"/>
      <point x="524" y="196"/>
      <point x="571" y="216" type="curve"/>
      <point x="582" y="326" type="line"/>
      <point x="550" y="317"/>
      <point x="525" y="312"/>
      <point x="478" y="312" type="curve" smooth="yes"/>
      <point x="402" y="312"/>
      <point x="368" y="329.1111111111"/>
      <point x="368" y="367" type="curve" smooth="yes"/>
      <point x="368" y="398"/>
      <point x="389.4117647059" y="413"/>
      <point x="438" y="413" type="curve" smooth="yes"/>
      <point x="521.44" y="413"/>
      <point x="566.5995302193" y="382.8610100285"/>
      <point x="587" y="339" type="curve"/>
    </contour>
    <contour>
      <point x="825" y="344" type="curve" smooth="yes"/>
      <point x="862" y="584" type="line"/>
      <point x="708" y="584" type="line"/>
      <point x="594" y="416" type="line"/>
      <point x="578" y="402" type="line"/>
      <point x="552" y="247" type="line" smooth="yes"/>
      <point x="539" y="168"/>
      <point x="533" y="138"/>
      <point x="533" y="112" type="curve" smooth="yes"/>
      <point x="533" y="40"/>
      <point x="583" y="0"/>
      <point x="668" y="0" type="curve" smooth="yes"/>
      <point x="726" y="0"/>
      <point x="785" y="0"/>
      <point x="843" y="0" type="curve"/>
      <point x="864" y="130" type="line"/>
      <point x="854" y="130"/>
      <point x="842" y="130"/>
      <point x="832" y="130" type="curve" smooth="yes"/>
      <point x="808.7058823529" y="130"/>
      <point x="799" y="141"/>
      <point x="799" y="160" type="curve" smooth="yes"/>
      <point x="799" y="196"/>
      <point x="810.0305240054" y="246.9006962515"/>
    </contour>
  </outline>
</glyph>
<glyph name="djecyr" format="2">
  <advance width="906"/>
  <unicode hex="0452"/>
  <outline>
    <contour>
      <point x="238" y="780" type="line"/>
      <point x="502" y="780" type="line"/>
      <point x="376" y="0" type="line"/>
      <point x="112" y="0" type="line"/>
    </contour>
    <contour>
      <point x="147" y="732" type="line"/>
      <point x="700" y="732" type="line"/>
      <point x="680" y="607" type="line"/>
      <point x="127" y="607" type="line"/>
    </contour>
    <contour>
      <point x="811" y="-39" type="line" smooth="yes"/>
      <point x="786" y="-199"/>
      <point x="668" y="-250"/>
      <point x="497" y="-250" type="curve" smooth="yes"/>
      <point x="382" y="-250"/>
      <point x="324" y="-231"/>
      <point x="302" y="-223" type="curve"/>
      <point x="340" y="-66" type="line"/>
      <point x="368" y="-77"/>
      <point x="400" y="-87"/>
      <point x="451" y="-87" type="curve" smooth="yes"/>
      <point x="505" y="-87"/>
      <point x="547" y="-74"/>
      <point x="553" y="-25" type="curve" smooth="yes"/>
      <point x="606" y="306" type="line" smooth="yes"/>
      <point x="610.0248674817" y="331.1364365365"/>
      <point x="612" y="344"/>
      <point x="612" y="354" type="curve" smooth="yes"/>
      <point x="612" y="383"/>
      <point x="587.5862068966" y="399"/>
      <point x="553" y="399" type="curve" smooth="yes"/>
      <point x="498.34375" y="399"/>
      <point x="450.9029397864" y="373.8416385989"/>
      <point x="394" y="281" type="curve"/>
      <point x="396" y="396" type="line"/>
      <point x="485.90443814" y="524.8630280007"/>
      <point x="573.4220779221" y="585"/>
      <point x="703" y="585" type="curve" smooth="yes"/>
      <point x="822.6685393258" y="585"/>
      <point x="882" y="524"/>
      <point x="882" y="446" type="curve" smooth="yes"/>
      <point x="882" y="430"/>
      <point x="880" y="407"/>
      <point x="877" y="387" type="curve" smooth="yes"/>
    </contour>
  </outline>
</glyph>
<glyph name="dzhecyr" format="2">
  <advance width="903"/>
  <unicode hex="045F"/>
  <outline>
    <contour>
      <point x="594" y="155" type="curve"/>
      <point x="534" y="155" type="line"/>
      <point x="423.4762297956" y="26.390521944"/>
      <point x="376.0122703486" y="-65.9450501779"/>
      <point x="353" y="-169" type="curve"/>
      <point x="539" y="-169" type="line"/>
      <point x="541.0000249558" y="-57.9986149503"/>
      <point x="549.7218351072" y="55.3741289913"/>
    </contour>
    <contour>
      <point x="418" y="253" type="curve" smooth="yes"/>
      <point x="478" y="572" type="line"/>
      <point x="138" y="572" type="line"/>
      <point x="115" y="432" type="line"/>
      <point x="137" y="429" type="line" smooth="yes"/>
      <point x="175" y="424"/>
      <point x="186" y="419"/>
      <point x="184" y="406" type="curve" smooth="yes"/>
      <point x="144" y="185" type="line" smooth="yes"/>
      <point x="140" y="162"/>
      <point x="139" y="142"/>
      <point x="139" y="126" type="curve" smooth="yes"/>
      <point x="139" y="48"/>
      <point x="193" y="-13"/>
      <point x="322" y="-13" type="curve" smooth="yes"/>
      <point x="457.6711409396" y="-13"/>
      <point x="547" y="54"/>
      <point x="633" y="192" type="curve"/>
      <point x="623" y="268" type="line"/>
      <point x="579" y="205"/>
      <point x="525" y="177"/>
      <point x="471" y="177" type="curve" smooth="yes"/>
      <point x="432" y="177"/>
      <point x="415" y="191.3043478261"/>
      <point x="415" y="224" type="curve" smooth="yes"/>
      <point x="415" y="232"/>
      <point x="416" y="241"/>
    </contour>
    <contour>
      <point x="851" y="254" type="curve" smooth="yes"/>
      <point x="910" y="572" type="line"/>
      <point x="647" y="572" type="line"/>
      <point x="573" y="173" type="line"/>
      <point x="580" y="153" type="line"/>
      <point x="579" y="144"/>
      <point x="578" y="130"/>
      <point x="578" y="115" type="curve" smooth="yes"/>
      <point x="578" y="34"/>
      <point x="626.6111111111" y="0"/>
      <point x="718" y="0" type="curve" smooth="yes"/>
      <point x="781" y="0"/>
      <point x="814" y="0"/>
      <point x="884" y="0" type="curve"/>
      <point x="905" y="130" type="line"/>
      <point x="891" y="130"/>
      <point x="882" y="130"/>
      <point x="875" y="130" type="curve" smooth="yes"/>
      <point x="846.5" y="130"/>
      <point x="837" y="142.1379310345"/>
      <point x="837" y="162" type="curve" smooth="yes"/>
      <point x="837" y="179.9770114943"/>
      <point x="839.1352512002" y="190.0510149432"/>
    </contour>
  </outline>
</glyph>
<glyph name="zhetailcyr" format="2">
  <advance width="1359"/>
  <unicode hex="0497"/>
  <guideline x="241" y="553" angle="90" identifier="iJ3VaKODEI"/>
  <guideline x="241" y="553" angle="90" identifier="CdtU5zqGdb"/>
  <outline>
    <contour>
      <point x="558" y="0" type="line"/>
      <point x="652" y="572" type="line"/>
      <point x="917" y="572" type="line"/>
      <point x="823" y="0" type="line"/>
    </contour>
    <contour>
      <point x="211" y="182" type="curve" smooth="yes"/>
      <point x="385" y="401" type="line"/>
      <point x="459" y="320" type="line"/>
      <point x="363" y="392"/>
      <point x="238" y="483"/>
      <point x="150" y="547" type="curve"/>
      <point x="150" y="572" type="line"/>
      <point x="446" y="572" type="line"/>
      <point x="482" y="503"/>
      <point x="543" y="387"/>
      <point x="581" y="313" type="curve"/>
      <point x="572" y="266" type="line"/>
      <point x="408" y="59" type="line" smooth="yes"/>
      <point x="369" y="10"/>
      <point x="329" y="0"/>
      <point x="254" y="0" type="curve" smooth="yes"/>
      <point x="182" y="0"/>
      <point x="111.6651162791" y="0"/>
      <point x="40" y="0" type="curve"/>
      <point x="61" y="130" type="line"/>
      <point x="70.6428571429" y="130"/>
      <point x="87" y="130"/>
      <point x="91" y="130" type="curve" smooth="yes"/>
      <point x="137" y="130"/>
      <point x="173" y="134"/>
    </contour>
    <contour>
      <point x="1093" y="0" type="curve" smooth="yes"/>
      <point x="1055" y="0"/>
      <point x="1016" y="10"/>
      <point x="993" y="59" type="curve" smooth="yes"/>
      <point x="896" y="266" type="line"/>
      <point x="903" y="313" type="line"/>
      <point x="970" y="392"/>
      <point x="1058" y="494"/>
      <point x="1123" y="572" type="curve"/>
      <point x="1405" y="572" type="line"/>
      <point x="1405" y="547" type="line"/>
      <point x="1300" y="482"/>
      <point x="1158" y="393"/>
      <point x="1057" y="330" type="curve"/>
      <point x="1121" y="386" type="line"/>
      <point x="1231" y="178" type="line" smooth="yes"/>
      <point x="1250" y="142"/>
      <point x="1273" y="135"/>
      <point x="1315" y="135" type="curve" smooth="yes"/>
      <point x="1372" y="135" type="line"/>
      <point x="1324" y="-169" type="line"/>
      <point x="1146" y="-169" type="line"/>
      <point x="1154" y="-61" type="line" smooth="yes"/>
      <point x="1157" y="-14"/>
      <point x="1153" y="0"/>
    </contour>
  </outline>
</glyph>
<glyph name="Katailcyr" format="2">
  <advance width="1070"/>
  <unicode hex="049A"/>
  <guideline x="478" y="355" angle="90" identifier="LxfLwWU0sJ"/>
  <guideline x="480" y="796" angle="90" identifier="5xnO1QSkoa"/>
  <outline>
    <contour>
      <point x="730" y="0" type="line"/>
      <point x="753" y="0" type="line" smooth="yes"/>
      <point x="821" y="0"/>
      <point x="854" y="-7"/>
      <point x="855" y="-55" type="curve" smooth="yes"/>
      <point x="857" y="-189" type="line"/>
      <point x="1033" y="-189" type="line"/>
      <point x="1087" y="140" type="line"/>
      <point x="795" y="140" type="line"/>
    </contour>
    <contour>
      <point x="46" y="0" type="line"/>
      <point x="467" y="0" type="line"/>
      <point x="490" y="145" type="line"/>
      <point x="474" y="145" type="line" smooth="yes"/>
      <point x="445" y="145"/>
      <point x="424" y="148"/>
      <point x="426" y="158" type="curve" smooth="yes"/>
      <point x="488" y="552" type="line" smooth="yes"/>
      <point x="490" y="562"/>
      <point x="510" y="565"/>
      <point x="540" y="565" type="curve" smooth="yes"/>
      <point x="557" y="565" type="line"/>
      <point x="580" y="710" type="line"/>
      <point x="159" y="710" type="line"/>
      <point x="136" y="565" type="line"/>
      <point x="161" y="565" type="line" smooth="yes"/>
      <point x="191" y="565"/>
      <point x="210" y="553"/>
      <point x="207" y="535" type="curve" smooth="yes"/>
      <point x="150" y="175" type="line" smooth="yes"/>
      <point x="147" y="155"/>
      <point x="125" y="145"/>
      <point x="95" y="145" type="curve" smooth="yes"/>
      <point x="69" y="145" type="line"/>
    </contour>
    <contour>
      <point x="593" y="0" type="line"/>
      <point x="970" y="0" type="line"/>
      <point x="1009" y="136" type="line"/>
      <point x="703" y="482" type="line"/>
      <point x="719" y="368" type="line"/>
      <point x="985" y="544" type="line" smooth="yes"/>
      <point x="1016" y="564"/>
      <point x="1035" y="565"/>
      <point x="1054" y="565" type="curve" smooth="yes"/>
      <point x="1065" y="565" type="line"/>
      <point x="1088" y="710" type="line"/>
      <point x="735" y="710" type="line"/>
      <point x="712" y="565" type="line"/>
      <point x="733" y="565" type="line" smooth="yes"/>
      <point x="772" y="565"/>
      <point x="774" y="562"/>
      <point x="774" y="555" type="curve"/>
      <point x="501" y="371" type="line"/>
      <point x="498" y="352" type="line"/>
      <point x="673" y="154" type="line"/>
      <point x="671" y="147"/>
      <point x="664" y="145"/>
      <point x="637" y="145" type="curve" smooth="yes"/>
      <point x="616" y="145" type="line"/>
    </contour>
  </outline>
</glyph>
<glyph name="Kaverticalstrokecyr" format="2">
  <advance width="1187"/>
  <unicode hex="049C"/>
  <guideline x="480" y="796" angle="90" identifier="LxfLwWU0sJ"/>
  <guideline x="480" y="796" angle="90" identifier="Fh5FjoJgeT"/>
  <outline>
    <contour>
      <point x="486" y="171" type="line"/>
      <point x="623" y="171" type="line"/>
      <point x="683" y="544" type="line"/>
      <point x="546" y="544" type="line"/>
    </contour>
    <contour>
      <point x="46" y="0" type="line"/>
      <point x="467" y="0" type="line"/>
      <point x="491" y="145" type="line"/>
      <point x="475" y="145" type="line" smooth="yes"/>
      <point x="446" y="145"/>
      <point x="425" y="148"/>
      <point x="427" y="158" type="curve" smooth="yes"/>
      <point x="488" y="552" type="line" smooth="yes"/>
      <point x="490" y="562"/>
      <point x="510" y="565"/>
      <point x="540" y="565" type="curve" smooth="yes"/>
      <point x="557" y="565" type="line"/>
      <point x="580" y="710" type="line"/>
      <point x="159" y="710" type="line"/>
      <point x="136" y="565" type="line"/>
      <point x="161" y="565" type="line" smooth="yes"/>
      <point x="191" y="565"/>
      <point x="210" y="553"/>
      <point x="207" y="535" type="curve" smooth="yes"/>
      <point x="151" y="175" type="line" smooth="yes"/>
      <point x="148" y="155"/>
      <point x="126" y="145"/>
      <point x="96" y="145" type="curve" smooth="yes"/>
      <point x="70" y="145" type="line"/>
    </contour>
    <contour>
      <point x="710" y="0" type="line"/>
      <point x="1147" y="0" type="line"/>
      <point x="1173" y="145" type="line"/>
      <point x="1152" y="145" type="line" smooth="yes"/>
      <point x="1133" y="145"/>
      <point x="1108" y="149"/>
      <point x="1085" y="191" type="curve" smooth="yes"/>
      <point x="921" y="486" type="line"/>
      <point x="895" y="369" type="line"/>
      <point x="1097" y="540" type="line" smooth="yes"/>
      <point x="1125" y="563"/>
      <point x="1159" y="565"/>
      <point x="1178" y="565" type="curve" smooth="yes"/>
      <point x="1186" y="565" type="line"/>
      <point x="1209" y="710" type="line"/>
      <point x="856" y="710" type="line"/>
      <point x="833" y="565" type="line"/>
      <point x="853" y="565" type="line" smooth="yes"/>
      <point x="892" y="565"/>
      <point x="898" y="564"/>
      <point x="898" y="557" type="curve"/>
      <point x="678" y="371" type="line"/>
      <point x="675" y="352" type="line"/>
      <point x="787" y="151" type="line"/>
      <point x="786" y="147"/>
      <point x="777" y="145"/>
      <point x="754" y="145" type="curve" smooth="yes"/>
      <point x="736" y="145" type="line"/>
    </contour>
  </outline>
</glyph>
<glyph name="Entailcyr" format="2">
  <advance width="1057"/>
  <unicode hex="04A2"/>
  <outline>
    <contour>
      <point x="717" y="0" type="line" smooth="yes"/>
      <point x="782" y="0"/>
      <point x="814" y="-8"/>
      <point x="815" y="-55" type="curve" smooth="yes"/>
      <point x="817" y="-189" type="line"/>
      <point x="995" y="-189" type="line"/>
      <point x="1047" y="140" type="line"/>
      <point x="721" y="140" type="line"/>
      <point x="699" y="0" type="line"/>
    </contour>
    <contour>
      <point x="314" y="435" type="line"/>
      <point x="291" y="295" type="line"/>
      <point x="802" y="295" type="line"/>
      <point x="825" y="435" type="line"/>
    </contour>
    <contour>
      <point x="46" y="0" type="line"/>
      <point x="467" y="0" type="line"/>
      <point x="491" y="145" type="line"/>
      <point x="475" y="145" type="line" smooth="yes"/>
      <point x="446" y="145"/>
      <point x="425" y="148"/>
      <point x="427" y="158" type="curve" smooth="yes"/>
      <point x="488" y="552" type="line" smooth="yes"/>
      <point x="490" y="562"/>
      <point x="510" y="565"/>
      <point x="540" y="565" type="curve" smooth="yes"/>
      <point x="557" y="565" type="line"/>
      <point x="580" y="710" type="line"/>
      <point x="159" y="710" type="line"/>
      <point x="136" y="565" type="line"/>
      <point x="161" y="565" type="line" smooth="yes"/>
      <point x="191" y="565"/>
      <point x="210" y="553"/>
      <point x="207" y="535" type="curve" smooth="yes"/>
      <point x="151" y="175" type="line" smooth="yes"/>
      <point x="148" y="155"/>
      <point x="126" y="145"/>
      <point x="96" y="145" type="curve" smooth="yes"/>
      <point x="70" y="145" type="line"/>
    </contour>
    <contour>
      <point x="583" y="0" type="line"/>
      <point x="928" y="0" type="line"/>
      <point x="1013" y="535" type="line" smooth="yes"/>
      <point x="1016" y="555"/>
      <point x="1038" y="565"/>
      <point x="1068" y="565" type="curve" smooth="yes"/>
      <point x="1094" y="565" type="line"/>
      <point x="1117" y="710" type="line"/>
      <point x="696" y="710" type="line"/>
      <point x="673" y="565" type="line"/>
      <point x="689" y="565" type="line" smooth="yes"/>
      <point x="718" y="565"/>
      <point x="739" y="562"/>
      <point x="737" y="552" type="curve" smooth="yes"/>
      <point x="676" y="158" type="line" smooth="yes"/>
      <point x="674" y="148"/>
      <point x="654" y="145"/>
      <point x="624" y="145" type="curve" smooth="yes"/>
      <point x="607" y="145" type="line"/>
    </contour>
  </outline>
</glyph>
<glyph name="tetailcyr" format="2">
  <advance width="1350"/>
  <unicode hex="04AD"/>
  <outline>
    <contour>
      <point x="114" y="0" type="line"/>
      <point x="180" y="406" type="line" smooth="yes"/>
      <point x="182" y="419"/>
      <point x="171" y="424"/>
      <point x="133" y="429" type="curve" smooth="yes"/>
      <point x="111" y="432" type="line"/>
      <point x="134" y="572" type="line"/>
      <point x="433" y="572" type="line"/>
      <point x="438" y="416" type="line"/>
      <point x="443" y="404" type="line"/>
      <point x="377" y="0" type="line"/>
    </contour>
    <contour>
      <point x="544" y="0" type="line"/>
      <point x="600" y="321" type="line" smooth="yes"/>
      <point x="602.3014644569" y="334.1923230477"/>
      <point x="605" y="344.1724137931"/>
      <point x="605" y="353" type="curve" smooth="yes"/>
      <point x="605" y="382"/>
      <point x="589" y="399"/>
      <point x="553" y="399" type="curve" smooth="yes"/>
      <point x="510" y="399"/>
      <point x="463" y="387"/>
      <point x="395" y="285" type="curve"/>
      <point x="397" y="396" type="line"/>
      <point x="487" y="525"/>
      <point x="582" y="585"/>
      <point x="705" y="585" type="curve" smooth="yes"/>
      <point x="807.7619047619" y="585"/>
      <point x="871" y="524"/>
      <point x="871" y="446" type="curve" smooth="yes"/>
      <point x="871" y="430"/>
      <point x="871.4770066817" y="409.8068065396"/>
      <point x="868" y="387" type="curve" smooth="yes"/>
      <point x="809" y="0" type="line"/>
    </contour>
    <contour>
      <point x="1097" y="0" type="curve" smooth="yes"/>
      <point x="1030" y="0"/>
      <point x="997" y="34"/>
      <point x="997" y="115" type="curve" smooth="yes"/>
      <point x="997" y="145"/>
      <point x="1003" y="176"/>
      <point x="1015" y="247" type="curve" smooth="yes"/>
      <point x="1027" y="319" type="line" smooth="yes"/>
      <point x="1028.7947351276" y="329.7684107654"/>
      <point x="1031" y="337.5454545455"/>
      <point x="1031" y="355" type="curve" smooth="yes"/>
      <point x="1031" y="383.2857142857"/>
      <point x="1008" y="399"/>
      <point x="978" y="399" type="curve" smooth="yes"/>
      <point x="936" y="399"/>
      <point x="886" y="382"/>
      <point x="824" y="281" type="curve"/>
      <point x="826" y="396" type="line"/>
      <point x="915.90443814" y="524.8630280007"/>
      <point x="1003.4220779221" y="585"/>
      <point x="1133" y="585" type="curve" smooth="yes"/>
      <point x="1247" y="585"/>
      <point x="1301" y="524"/>
      <point x="1301" y="446" type="curve" smooth="yes"/>
      <point x="1301" y="430"/>
      <point x="1300" y="410"/>
      <point x="1296" y="387" type="curve" smooth="yes"/>
      <point x="1274" y="252" type="line" smooth="yes"/>
      <point x="1263.9284353535" y="190.1972169418"/>
      <point x="1263" y="183"/>
      <point x="1263" y="176" type="curve" smooth="yes"/>
      <point x="1263" y="146"/>
      <point x="1282.4117647059" y="135"/>
      <point x="1318" y="135" type="curve" smooth="yes"/>
      <point x="1377" y="135" type="line"/>
      <point x="1329" y="-170" type="line"/>
      <point x="1151" y="-170" type="line"/>
      <point x="1159" y="-61" type="line" smooth="yes"/>
      <point x="1162" y="-17"/>
      <point x="1161" y="0"/>
    </contour>
  </outline>
</glyph>
<glyph name="Ustraightstrokecyr" format="2">
  <advance width="908"/>
  <unicode hex="04B0"/>
  <outline>
    <contour>
      <point x="210" y="338" type="line"/>
      <point x="187" y="198" type="line"/>
      <point x="776" y="198" type="line"/>
      <point x="799" y="338" type="line"/>
    </contour>
    <contour>
      <point x="222" y="0" type="line"/>
      <point x="683" y="0" type="line"/>
      <point x="707" y="145" type="line"/>
      <point x="683" y="145" type="line" smooth="yes"/>
      <point x="648" y="145"/>
      <point x="618" y="152"/>
      <point x="623" y="181" type="curve" smooth="yes"/>
      <point x="638" y="279" type="line"/>
      <point x="594" y="250" type="line"/>
      <point x="912" y="535" type="line" smooth="yes"/>
      <point x="927" y="549"/>
      <point x="946" y="565"/>
      <point x="968" y="565" type="curve" smooth="yes"/>
      <point x="975" y="565" type="line"/>
      <point x="998" y="710" type="line"/>
      <point x="707" y="710" type="line"/>
      <point x="684" y="565" type="line"/>
      <point x="706" y="565" type="line" smooth="yes"/>
      <point x="749" y="565"/>
      <point x="753" y="561"/>
      <point x="755" y="556" type="curve"/>
      <point x="548" y="370" type="line"/>
      <point x="583" y="387" type="line"/>
      <point x="465" y="554" type="line"/>
      <point x="466" y="561"/>
      <point x="484" y="565"/>
      <point x="537" y="565" type="curve" smooth="yes"/>
      <point x="550" y="565" type="line"/>
      <point x="573" y="710" type="line"/>
      <point x="150" y="710" type="line"/>
      <point x="127" y="565" type="line"/>
      <point x="132" y="565" type="line" smooth="yes"/>
      <point x="167" y="565"/>
      <point x="175" y="540"/>
      <point x="204" y="498" type="curve" smooth="yes"/>
      <point x="374" y="257" type="line"/>
      <point x="363" y="300" type="line"/>
      <point x="344" y="181" type="line" smooth="yes"/>
      <point x="339" y="152"/>
      <point x="305" y="145"/>
      <point x="269" y="145" type="curve" smooth="yes"/>
      <point x="246" y="145" type="line"/>
    </contour>
  </outline>
</glyph>
<glyph name="Xatailcyr" format="2">
  <advance width="954"/>
  <unicode hex="04B2"/>
  <outline>
    <contour>
      <point x="604" y="0" type="line"/>
      <point x="625" y="0" type="line" smooth="yes"/>
      <point x="698" y="0"/>
      <point x="730" y="-6"/>
      <point x="731" y="-54" type="curve" smooth="yes"/>
      <point x="733" y="-189" type="line"/>
      <point x="910" y="-189" type="line"/>
      <point x="963" y="140" type="line"/>
      <point x="627" y="140" type="line"/>
    </contour>
    <contour>
      <point x="138" y="565" type="line"/>
      <point x="144" y="565" type="line" smooth="yes"/>
      <point x="195" y="565"/>
      <point x="207" y="554"/>
      <point x="225" y="531" type="curve"/>
      <point x="383" y="338" type="line"/>
      <point x="407" y="328" type="line"/>
      <point x="540" y="156" type="line"/>
      <point x="541" y="149"/>
      <point x="532" y="145"/>
      <point x="507" y="145" type="curve" smooth="yes"/>
      <point x="485" y="145" type="line"/>
      <point x="461" y="0" type="line"/>
      <point x="827" y="0" type="line"/>
      <point x="863" y="137" type="line"/>
      <point x="663" y="389" type="line"/>
      <point x="636" y="401" type="line"/>
      <point x="511" y="558" type="line"/>
      <point x="509" y="564"/>
      <point x="524" y="565"/>
      <point x="556" y="565" type="curve" smooth="yes"/>
      <point x="573" y="565" type="line"/>
      <point x="596" y="710" type="line"/>
      <point x="161" y="710" type="line"/>
    </contour>
    <contour>
      <point x="32" y="0" type="line"/>
      <point x="357" y="0" type="line"/>
      <point x="381" y="145" type="line"/>
      <point x="364" y="145" type="line" smooth="yes"/>
      <point x="337" y="145"/>
      <point x="314" y="148"/>
      <point x="315" y="157" type="curve"/>
      <point x="471" y="302" type="line"/>
      <point x="389" y="403" type="line"/>
      <point x="148" y="187" type="line" smooth="yes"/>
      <point x="112" y="154"/>
      <point x="94" y="145"/>
      <point x="68" y="145" type="curve" smooth="yes"/>
      <point x="56" y="145" type="line"/>
    </contour>
    <contour>
      <point x="654" y="293" type="line"/>
      <point x="890" y="520" type="line" smooth="yes"/>
      <point x="925" y="553"/>
      <point x="933" y="565"/>
      <point x="968" y="565" type="curve" smooth="yes"/>
      <point x="973" y="565" type="line"/>
      <point x="996" y="710" type="line"/>
      <point x="700" y="710" type="line"/>
      <point x="677" y="565" type="line"/>
      <point x="691" y="565" type="line" smooth="yes"/>
      <point x="717" y="565"/>
      <point x="744" y="564"/>
      <point x="744" y="558" type="curve"/>
      <point x="572" y="394" type="line"/>
    </contour>
  </outline>
</glyph>
<glyph name="Chevertcyr" format="2">
  <advance width="1061"/>
  <unicode hex="04B8"/>
  <guideline x="1130" y="741" angle="90" identifier="dvMXMzF90a"/>
  <guideline x="1130" y="741" angle="90" identifier="wNFSAzHSry"/>
  <guideline x="1130" y="741" angle="90" identifier="vWU3lVQVE4"/>
  <outline>
    <contour>
      <point x="496" y="179" type="line"/>
      <point x="625" y="179" type="line"/>
      <point x="678" y="512" type="line"/>
      <point x="549" y="512" type="line"/>
    </contour>
    <contour>
      <point x="192" y="468" type="line" smooth="yes"/>
      <point x="162" y="299"/>
      <point x="280" y="250"/>
      <point x="459" y="250" type="curve" smooth="yes"/>
      <point x="593" y="250"/>
      <point x="690" y="259"/>
      <point x="759" y="283" type="curve"/>
      <point x="780" y="409" type="line"/>
      <point x="719" y="386"/>
      <point x="687" y="382"/>
      <point x="611" y="382" type="curve" smooth="yes"/>
      <point x="494" y="382"/>
      <point x="451" y="392"/>
      <point x="476" y="509" type="curve" smooth="yes"/>
      <point x="485" y="552" type="line" smooth="yes"/>
      <point x="487" y="563"/>
      <point x="513" y="565"/>
      <point x="537" y="565" type="curve" smooth="yes"/>
      <point x="554" y="565" type="line"/>
      <point x="577" y="710" type="line"/>
      <point x="156" y="710" type="line"/>
      <point x="133" y="565" type="line"/>
      <point x="158" y="565" type="line" smooth="yes"/>
      <point x="179" y="565"/>
      <point x="208" y="558"/>
      <point x="204" y="535" type="curve" smooth="yes"/>
    </contour>
    <contour>
      <point x="600" y="0" type="line"/>
      <point x="1021" y="0" type="line"/>
      <point x="1045" y="145" type="line"/>
      <point x="1020" y="145" type="line" smooth="yes"/>
      <point x="990" y="145"/>
      <point x="971" y="157"/>
      <point x="974" y="175" type="curve" smooth="yes"/>
      <point x="1030" y="535" type="line" smooth="yes"/>
      <point x="1033" y="555"/>
      <point x="1055" y="565"/>
      <point x="1085" y="565" type="curve" smooth="yes"/>
      <point x="1111" y="565" type="line"/>
      <point x="1134" y="710" type="line"/>
      <point x="713" y="710" type="line"/>
      <point x="690" y="565" type="line"/>
      <point x="706" y="565" type="line" smooth="yes"/>
      <point x="735" y="565"/>
      <point x="756" y="562"/>
      <point x="754" y="552" type="curve" smooth="yes"/>
      <point x="693" y="158" type="line" smooth="yes"/>
      <point x="691" y="148"/>
      <point x="671" y="145"/>
      <point x="641" y="145" type="curve" smooth="yes"/>
      <point x="624" y="145" type="line"/>
    </contour>
  </outline>
</glyph>
<glyph name="Obarcyr" format="2">
  <advance width="1009"/>
  <unicode hex="04E8"/>
  <guideline x="1248" y="730" angle="90" identifier="hwb5F7EShy"/>
  <outline>
    <contour>
      <point x="277" y="435" type="line"/>
      <point x="258" y="295" type="line"/>
      <point x="865" y="295" type="line"/>
      <point x="884" y="435" type="line"/>
    </contour>
    <contour>
      <point x="529" y="-25" type="curve" smooth="yes"/>
      <point x="851" y="-25"/>
      <point x="1015" y="158"/>
      <point x="1015" y="393" type="curve" smooth="yes"/>
      <point x="1015" y="604"/>
      <point x="864" y="735"/>
      <point x="593" y="735" type="curve" smooth="yes"/>
      <point x="269" y="735"/>
      <point x="106" y="552"/>
      <point x="106" y="317" type="curve" smooth="yes"/>
      <point x="106" y="106"/>
      <point x="256" y="-25"/>
    </contour>
    <contour>
      <point x="591" y="567" type="curve" smooth="yes"/>
      <point x="683" y="567"/>
      <point x="723" y="508"/>
      <point x="723" y="424" type="curve" smooth="yes"/>
      <point x="723" y="378"/>
      <point x="722" y="337"/>
      <point x="709" y="291" type="curve" smooth="yes"/>
      <point x="679" y="184"/>
      <point x="613" y="143"/>
      <point x="530" y="143" type="curve" smooth="yes"/>
      <point x="438" y="143"/>
      <point x="397" y="200"/>
      <point x="397" y="293" type="curve" smooth="yes"/>
      <point x="397" y="338"/>
      <point x="397" y="373"/>
      <point x="412" y="419" type="curve" smooth="yes"/>
      <point x="446" y="526"/>
      <point x="508" y="567"/>
    </contour>
  </outline>
</glyph>
<glyph name="hastrokecyr" format="2">
  <advance width="786"/>
  <unicode hex="04FF"/>
  <outline>
    <contour>
      <point x="103" y="232" type="line"/>
      <point x="723" y="232" type="line"/>
      <point x="745" y="362" type="line"/>
      <point x="125" y="362" type="line"/>
    </contour>
    <contour>
      <point x="565" y="275" type="line"/>
      <point x="820" y="551" type="line"/>
      <point x="820" y="572" type="line"/>
      <point x="606" y="572" type="line"/>
      <point x="479" y="328" type="line"/>
    </contour>
    <contour>
      <point x="34" y="0" type="line"/>
      <point x="248" y="0" type="line"/>
      <point x="387" y="237" type="line"/>
      <point x="301" y="290" type="line"/>
      <point x="33" y="21" type="line"/>
    </contour>
    <contour>
      <point x="573" y="0" type="curve" smooth="yes"/>
      <point x="648" y="0"/>
      <point x="694" y="0"/>
      <point x="758" y="0" type="curve"/>
      <point x="777" y="130" type="line"/>
      <point x="759.4426229508" y="130"/>
      <point x="744" y="130"/>
      <point x="726" y="130" type="curve" smooth="yes"/>
      <point x="685.7746478873" y="130"/>
      <point x="675" y="135"/>
      <point x="646" y="178" type="curve" smooth="yes"/>
      <point x="381" y="572" type="line"/>
      <point x="129" y="572" type="line"/>
      <point x="110" y="446" type="line"/>
      <point x="131" y="444" type="line" smooth="yes"/>
      <point x="173.1867895634" y="439.9822105178"/>
      <point x="188.2751359854" y="430.4956720214"/>
      <point x="203" y="409" type="curve" smooth="yes"/>
      <point x="427" y="82" type="line" smooth="yes"/>
      <point x="465" y="26"/>
      <point x="499" y="0"/>
    </contour>
  </outline>
</glyph>
<glyph name="Germandbls" format="2">
  <advance width="1082"/>
  <unicode hex="1E9E"/>
  <outline>
    <contour>
      <point x="139" y="175" type="line" smooth="yes"/>
      <point x="136" y="155"/>
      <point x="114" y="145"/>
      <point x="84" y="145" type="curve" smooth="yes"/>
      <point x="58" y="145" type="line"/>
      <point x="34" y="0" type="line"/>
      <point x="390" y="0" type="line"/>
      <point x="456" y="423" type="line" smooth="yes"/>
      <point x="471" y="522"/>
      <point x="513" y="566"/>
      <point x="664" y="566" type="curve" smooth="yes"/>
      <point x="826" y="566" type="line"/>
      <point x="824" y="610" type="line"/>
      <point x="638" y="449" type="line"/>
      <point x="617" y="335" type="line"/>
      <point x="758" y="300"/>
      <point x="810" y="256"/>
      <point x="810" y="203" type="curve" smooth="yes"/>
      <point x="810" y="149"/>
      <point x="785" y="125"/>
      <point x="736" y="125" type="curve"/>
      <point x="677" y="125"/>
      <point x="645" y="150"/>
      <point x="632" y="217" type="curve"/>
      <point x="508" y="217" type="line"/>
      <point x="468" y="0" type="line"/>
      <point x="594" y="0" type="line"/>
      <point x="638" y="127" type="line"/>
      <point x="590" y="139" type="line"/>
      <point x="622" y="50"/>
      <point x="673" y="-14"/>
      <point x="833" y="-14" type="curve"/>
      <point x="971" y="-14"/>
      <point x="1069" y="62"/>
      <point x="1069" y="177" type="curve" smooth="yes"/>
      <point x="1069" y="290"/>
      <point x="989" y="363"/>
      <point x="789" y="406" type="curve"/>
      <point x="824" y="351" type="line"/>
      <point x="1066" y="549" type="line"/>
      <point x="1091" y="710" type="line"/>
      <point x="541" y="710" type="line" smooth="yes"/>
      <point x="291" y="710"/>
      <point x="208" y="613"/>
      <point x="186" y="472" type="curve" smooth="yes"/>
    </contour>
  </outline>
</glyph>
<glyph name="horizontalbar" format="2">
  <advance width="1015"/>
  <unicode hex="2015"/>
  <outline>
    <contour>
      <point x="65" y="409" type="line"/>
      <point x="37" y="232" type="line"/>
      <point x="1052" y="232" type="line"/>
      <point x="1080" y="409" type="line"/>
    </contour>
  </outline>
</glyph>
<glyph name="quoteright" format="2">
  <advance width="407"/>
  <unicode hex="2019"/>
  <outline>
    <contour>
      <point x="444" y="615" type="curve" smooth="yes"/>
      <point x="444" y="718"/>
      <point x="404" y="791"/>
      <point x="296" y="791" type="curve" smooth="yes"/>
      <point x="212" y="791"/>
      <point x="171" y="750"/>
      <point x="171" y="689" type="curve" smooth="yes"/>
      <point x="171" y="621"/>
      <point x="216" y="594"/>
      <point x="295" y="594" type="curve" smooth="yes"/>
      <point x="323" y="594"/>
      <point x="348" y="599"/>
      <point x="368" y="610" type="curve"/>
      <point x="351" y="631" type="line"/>
      <point x="351" y="534"/>
      <point x="267" y="489"/>
      <point x="145" y="474" type="curve"/>
      <point x="163" y="375" type="line"/>
      <point x="380" y="382"/>
      <point x="444" y="495"/>
    </contour>
  </outline>
</glyph>
<glyph name="dagger" format="2">
  <advance width="659"/>
  <unicode hex="2020"/>
  <outline>
    <contour>
      <point x="363" y="439" type="line"/>
      <point x="443" y="439" type="line"/>
      <point x="631" y="365" type="line"/>
      <point x="687" y="365" type="line"/>
      <point x="721" y="578" type="line"/>
      <point x="665" y="578" type="line"/>
      <point x="447" y="515" type="line"/>
      <point x="367" y="515" type="line"/>
      <point x="178" y="578" type="line"/>
      <point x="122" y="578" type="line"/>
      <point x="88" y="365" type="line"/>
      <point x="144" y="365" type="line"/>
    </contour>
    <contour>
      <point x="597" y="710" type="line"/>
      <point x="287" y="710" type="line"/>
      <point x="280" y="665" type="line" smooth="yes"/>
      <point x="274" y="625"/>
      <point x="359" y="558"/>
      <point x="346" y="473" type="curve"/>
      <point x="328" y="360"/>
      <point x="246" y="316"/>
      <point x="225" y="302" type="curve"/>
      <point x="221" y="278" type="line" smooth="yes"/>
      <point x="215" y="237"/>
      <point x="267" y="151"/>
      <point x="272" y="-67" type="curve"/>
      <point x="366" y="-67" type="line"/>
      <point x="441" y="151"/>
      <point x="521" y="237"/>
      <point x="527" y="278" type="curve" smooth="yes"/>
      <point x="531" y="302" type="line"/>
      <point x="513" y="316"/>
      <point x="446" y="360"/>
      <point x="464" y="473" type="curve"/>
      <point x="477" y="558"/>
      <point x="584" y="625"/>
      <point x="590" y="665" type="curve" smooth="yes"/>
    </contour>
  </outline>
</glyph>
<glyph name="bullet" format="2">
  <advance width="536"/>
  <unicode hex="2022"/>
  <outline>
    <contour>
      <point x="139" y="347" type="curve" smooth="yes"/>
      <point x="139" y="239"/>
      <point x="210" y="173"/>
      <point x="321" y="173" type="curve" smooth="yes"/>
      <point x="431" y="173"/>
      <point x="503" y="239"/>
      <point x="503" y="347" type="curve" smooth="yes"/>
      <point x="503" y="455"/>
      <point x="431" y="521"/>
      <point x="321" y="521" type="curve" smooth="yes"/>
      <point x="210" y="521"/>
      <point x="139" y="455"/>
    </contour>
  </outline>
</glyph>
<glyph name="guilsinglleft" format="2">
  <advance width="518"/>
  <unicode hex="2039"/>
  <outline>
    <contour>
      <point x="273" y="270" type="line"/>
      <point x="542" y="519" type="line"/>
      <point x="369" y="519" type="line"/>
      <point x="106" y="352" type="line"/>
      <point x="86" y="229" type="line"/>
      <point x="297" y="62" type="line"/>
      <point x="470" y="62" type="line"/>
      <point x="280" y="307" type="line"/>
    </contour>
  </outline>
</glyph>
<glyph name="minus.sup" format="2">
  <advance width="532"/>
  <unicode hex="207B"/>
  <outline>
    <contour>
      <point x="581" y="653" type="line"/>
      <point x="157" y="653" type="line"/>
      <point x="136" y="520" type="line"/>
      <point x="560" y="520" type="line"/>
    </contour>
  </outline>
</glyph>
<glyph name="plus.sub" format="2">
  <advance width="452"/>
  <unicode hex="208A"/>
  <outline>
    <contour>
      <point x="196" y="276" type="line"/>
      <point x="136" y="-101" type="line"/>
      <point x="285" y="-101" type="line"/>
      <point x="345" y="276" type="line"/>
    </contour>
    <contour>
      <point x="435" y="154" type="line"/>
      <point x="65" y="154" type="line"/>
      <point x="43" y="11" type="line"/>
      <point x="413" y="11" type="line"/>
    </contour>
  </outline>
</glyph>
<glyph name="naira" format="2">
  <advance width="680"/>
  <unicode hex="20A6"/>
  <outline>
    <contour>
      <point x="21" y="0" type="line"/>
      <point x="233" y="0" type="line"/>
      <point x="255" y="135" type="line"/>
      <point x="245" y="135" type="line" smooth="yes"/>
      <point x="220" y="135"/>
      <point x="218" y="141"/>
      <point x="219" y="148" type="curve" smooth="yes"/>
      <point x="304" y="601" type="line"/>
      <point x="285" y="616" type="line"/>
      <point x="368" y="0" type="line"/>
      <point x="577" y="0" type="line"/>
      <point x="677" y="534" type="line" smooth="yes"/>
      <point x="682" y="563"/>
      <point x="698" y="575"/>
      <point x="729" y="575" type="curve" smooth="yes"/>
      <point x="737" y="575" type="line"/>
      <point x="761" y="710" type="line"/>
      <point x="543" y="710" type="line"/>
      <point x="519" y="575" type="line"/>
      <point x="528" y="575" type="line" smooth="yes"/>
      <point x="549" y="575"/>
      <point x="553" y="569"/>
      <point x="552" y="562" type="curve" smooth="yes"/>
      <point x="480" y="175" type="line"/>
      <point x="496" y="177" type="line"/>
      <point x="422" y="710" type="line"/>
      <point x="142" y="710" type="line"/>
      <point x="118" y="575" type="line"/>
      <point x="126" y="575" type="line" smooth="yes"/>
      <point x="156" y="575"/>
      <point x="170" y="570"/>
      <point x="164" y="539" type="curve" smooth="yes"/>
      <point x="94" y="176" type="line" smooth="yes"/>
      <point x="89" y="147"/>
      <point x="83" y="135"/>
      <point x="51" y="135" type="curve" smooth="yes"/>
      <point x="43" y="135" type="line"/>
    </contour>
    <contour>
      <point x="237" y="489" type="line"/>
      <point x="97" y="489" type="line"/>
      <point x="76" y="359" type="line"/>
      <point x="216" y="359" type="line"/>
    </contour>
    <contour>
      <point x="419" y="470" type="line"/>
      <point x="556" y="392" type="line"/>
      <point x="565" y="359" type="line"/>
      <point x="715" y="359" type="line"/>
      <point x="736" y="489" type="line"/>
      <point x="422" y="489" type="line"/>
    </contour>
    <contour>
      <point x="531" y="187" type="line"/>
      <point x="688" y="187" type="line"/>
      <point x="709" y="317" type="line"/>
      <point x="553" y="317" type="line"/>
    </contour>
    <contour>
      <point x="370" y="211" type="line"/>
      <point x="206" y="288" type="line"/>
      <point x="210" y="317" type="line"/>
      <point x="71" y="317" type="line"/>
      <point x="50" y="187" type="line"/>
      <point x="366" y="187" type="line"/>
    </contour>
  </outline>
</glyph>
<glyph name="dong" format="2">
  <advance width="680"/>
  <unicode hex="20AB"/>
  <outline>
    <contour>
      <point x="221" y="-12" type="curve" smooth="yes"/>
      <point x="329" y="-12"/>
      <point x="379" y="55"/>
      <point x="463" y="183" type="curve"/>
      <point x="453" y="256" type="line"/>
      <point x="402" y="185"/>
      <point x="375" y="158"/>
      <point x="334" y="158" type="curve"/>
      <point x="286" y="158"/>
      <point x="280" y="200"/>
      <point x="280" y="242" type="curve" smooth="yes"/>
      <point x="280" y="290"/>
      <point x="290" y="328"/>
      <point x="304" y="355" type="curve" smooth="yes"/>
      <point x="320" y="387"/>
      <point x="342" y="403"/>
      <point x="368" y="403" type="curve" smooth="yes"/>
      <point x="419" y="403"/>
      <point x="430" y="348"/>
      <point x="448" y="309" type="curve"/>
      <point x="481" y="371" type="line"/>
      <point x="459" y="500"/>
      <point x="409" y="583"/>
      <point x="315" y="583" type="curve" smooth="yes"/>
      <point x="147" y="583"/>
      <point x="61" y="413"/>
      <point x="61" y="220" type="curve"/>
      <point x="61" y="89"/>
      <point x="106" y="-12"/>
    </contour>
    <contour>
      <point x="562" y="0" type="curve" smooth="yes"/>
      <point x="589" y="0"/>
      <point x="617" y="0"/>
      <point x="655" y="0" type="curve"/>
      <point x="675" y="130" type="line"/>
      <point x="666" y="130"/>
      <point x="657" y="130"/>
      <point x="647" y="130" type="curve" smooth="yes"/>
      <point x="623" y="130"/>
      <point x="613" y="140"/>
      <point x="613" y="160" type="curve" smooth="yes"/>
      <point x="613" y="175"/>
      <point x="621" y="228"/>
      <point x="631" y="292" type="curve" smooth="yes"/>
      <point x="708" y="780" type="line"/>
      <point x="488" y="780" type="line"/>
      <point x="382" y="114" type="line"/>
      <point x="404" y="141" type="line"/>
      <point x="403" y="118"/>
      <point x="403" y="108"/>
      <point x="404" y="97" type="curve" smooth="yes"/>
      <point x="412" y="29"/>
      <point x="466" y="0"/>
    </contour>
    <contour>
      <point x="68" y="-203" type="line"/>
      <point x="635" y="-203" type="line"/>
      <point x="655" y="-80" type="line"/>
      <point x="88" y="-80" type="line"/>
    </contour>
    <contour>
      <point x="300" y="616" type="line"/>
      <point x="752" y="616" type="line"/>
      <point x="771" y="733" type="line"/>
      <point x="319" y="733" type="line"/>
    </contour>
  </outline>
</glyph>
<glyph name="kip" format="2">
  <advance width="680"/>
  <unicode hex="20AD"/>
  <outline>
    <contour>
      <point x="117" y="422" type="line"/>
      <point x="96" y="297" type="line"/>
      <point x="659" y="297" type="line"/>
      <point x="680" y="422" type="line"/>
    </contour>
    <contour>
      <point x="55" y="0" type="line"/>
      <point x="312" y="0" type="line"/>
      <point x="334" y="135" type="line"/>
      <point x="331" y="135" type="line" smooth="yes"/>
      <point x="314" y="135"/>
      <point x="304" y="138"/>
      <point x="305" y="145" type="curve" smooth="yes"/>
      <point x="370" y="565" type="line" smooth="yes"/>
      <point x="371" y="572"/>
      <point x="385" y="575"/>
      <point x="412" y="575" type="curve" smooth="yes"/>
      <point x="417" y="575" type="line"/>
      <point x="439" y="710" type="line"/>
      <point x="167" y="710" type="line"/>
      <point x="145" y="575" type="line"/>
      <point x="152" y="575" type="line" smooth="yes"/>
      <point x="186" y="575"/>
      <point x="194" y="568"/>
      <point x="189" y="539" type="curve" smooth="yes"/>
      <point x="132" y="171" type="line" smooth="yes"/>
      <point x="127" y="142"/>
      <point x="118" y="135"/>
      <point x="84" y="135" type="curve" smooth="yes"/>
      <point x="77" y="135" type="line"/>
    </contour>
    <contour>
      <point x="375" y="0" type="line"/>
      <point x="632" y="0" type="line"/>
      <point x="654" y="135" type="line"/>
      <point x="652" y="135" type="line" smooth="yes"/>
      <point x="628" y="135"/>
      <point x="622" y="140"/>
      <point x="611" y="168" type="curve" smooth="yes"/>
      <point x="506" y="414" type="line"/>
      <point x="480" y="341" type="line"/>
      <point x="647" y="546" type="line" smooth="yes"/>
      <point x="669" y="573"/>
      <point x="676" y="575"/>
      <point x="701" y="575" type="curve" smooth="yes"/>
      <point x="709" y="575" type="line"/>
      <point x="731" y="710" type="line"/>
      <point x="481" y="710" type="line"/>
      <point x="459" y="575" type="line"/>
      <point x="466" y="575" type="line" smooth="yes"/>
      <point x="495" y="575"/>
      <point x="505" y="572"/>
      <point x="504" y="565" type="curve"/>
      <point x="340" y="370" type="line"/>
      <point x="344" y="360" type="line"/>
      <point x="430" y="145" type="line"/>
      <point x="429" y="138"/>
      <point x="423" y="135"/>
      <point x="401" y="135" type="curve" smooth="yes"/>
      <point x="397" y="135" type="line"/>
    </contour>
  </outline>
</glyph>
<glyph name="uni20B4" format="2">
  <advance width="680"/>
  <unicode hex="20B4"/>
  <outline>
    <contour>
      <point x="99" y="402" type="line"/>
      <point x="709" y="402" type="line"/>
      <point x="729" y="529" type="line"/>
      <point x="119" y="529" type="line"/>
    </contour>
    <contour>
      <point x="66" y="205" type="line"/>
      <point x="676" y="205" type="line"/>
      <point x="698" y="332" type="line"/>
      <point x="88" y="332" type="line"/>
    </contour>
    <contour>
      <point x="393" y="-10" type="curve" smooth="yes"/>
      <point x="513" y="-10"/>
      <point x="595" y="26"/>
      <point x="629" y="44" type="curve"/>
      <point x="648" y="165" type="line"/>
      <point x="488" y="165" type="line"/>
      <point x="472" y="64" type="line"/>
      <point x="505" y="65"/>
      <point x="562" y="135"/>
      <point x="559" y="144" type="curve"/>
      <point x="519" y="124"/>
      <point x="472" y="113"/>
      <point x="427" y="113" type="curve" smooth="yes"/>
      <point x="374" y="113"/>
      <point x="339" y="122"/>
      <point x="339" y="169" type="curve" smooth="yes"/>
      <point x="339" y="209"/>
      <point x="375" y="246"/>
      <point x="427" y="278" type="curve"/>
      <point x="208" y="283" type="line"/>
      <point x="153" y="247"/>
      <point x="109" y="205"/>
      <point x="109" y="139" type="curve" smooth="yes"/>
      <point x="109" y="18"/>
      <point x="237" y="-10"/>
    </contour>
    <contour>
      <point x="597" y="449" type="line"/>
      <point x="645" y="480"/>
      <point x="699" y="524"/>
      <point x="699" y="590" type="curve"/>
      <point x="699" y="693"/>
      <point x="587" y="730"/>
      <point x="450" y="730" type="curve" smooth="yes"/>
      <point x="336" y="730"/>
      <point x="248" y="700"/>
      <point x="208" y="675" type="curve"/>
      <point x="192" y="568" type="line"/>
      <point x="352" y="568" type="line"/>
      <point x="368" y="672" type="line"/>
      <point x="340" y="669"/>
      <point x="301" y="634"/>
      <point x="304" y="600" type="curve"/>
      <point x="330.3187128975" y="611.2794483846"/>
      <point x="374.5225225225" y="618"/>
      <point x="407" y="618" type="curve" smooth="yes"/>
      <point x="450.2413793103" y="618"/>
      <point x="473" y="605"/>
      <point x="473" y="570" type="curve" smooth="yes"/>
      <point x="473" y="520"/>
      <point x="424.0415510468" y="502.5464148299"/>
      <point x="378" y="464" type="curve"/>
    </contour>
  </outline>
</glyph>
